<svg width="46" height="53" viewBox="0 0 46 53" fill="none" xmlns="http://www.w3.org/2000/svg">
<path d="M25.837 42.1775V39.4928C25.837 37.6368 26.2182 35.9382 26.9805 34.397C27.7594 32.8392 28.8863 31.5963 30.3612 30.6683C31.8527 29.7237 33.659 29.2514 35.7802 29.2514C37.9346 29.2514 39.7409 29.7237 41.1993 30.6683C42.6576 31.5963 43.7596 32.8392 44.5054 34.397C45.2511 35.9382 45.624 37.6368 45.624 39.4928V42.1775C45.624 44.0336 45.2428 45.7405 44.4805 47.2982C43.7348 48.8394 42.6245 50.0823 41.1495 51.0269C39.6912 51.955 37.9014 52.419 35.7802 52.419C33.6259 52.419 31.8112 51.955 30.3363 51.0269C28.8614 50.0823 27.7428 48.8394 26.9805 47.2982C26.2182 45.7405 25.837 44.0336 25.837 42.1775ZM30.9081 39.4928V42.1775C30.9081 43.7187 31.2727 45.1025 32.0018 46.3288C32.731 47.5385 33.9905 48.1434 35.7802 48.1434C37.5203 48.1434 38.7466 47.5385 39.4592 46.3288C40.1884 45.1025 40.553 43.7187 40.553 42.1775V39.4928C40.553 37.9516 40.2049 36.5762 39.5089 35.3664C38.8129 34.1401 37.57 33.5269 35.7802 33.5269C34.0402 33.5269 32.789 34.1401 32.0267 35.3664C31.2809 36.5762 30.9081 37.9516 30.9081 39.4928ZM0.481934 13.044V10.3593C0.481934 8.50326 0.863089 6.80463 1.6254 5.26344C2.40428 3.70567 3.53118 2.46278 5.00608 1.53475C6.49756 0.590143 8.3039 0.117842 10.4251 0.117842C12.5795 0.117842 14.3858 0.590143 15.8442 1.53475C17.3025 2.46278 18.4045 3.70567 19.1503 5.26344C19.896 6.80463 20.2689 8.50326 20.2689 10.3593V13.044C20.2689 14.9 19.8877 16.607 19.1254 18.1647C18.3797 19.7059 17.2693 20.9488 15.7944 21.8934C14.3361 22.8214 12.5463 23.2855 10.4251 23.2855C8.27076 23.2855 6.45613 22.8214 4.98122 21.8934C3.50632 20.9488 2.38771 19.7059 1.6254 18.1647C0.863089 16.607 0.481934 14.9 0.481934 13.044ZM5.55296 10.3593V13.044C5.55296 14.5852 5.91754 15.9689 6.64671 17.1953C7.37587 18.405 8.63534 19.0099 10.4251 19.0099C12.1652 19.0099 13.3915 18.405 14.1041 17.1953C14.8333 15.9689 15.1978 14.5852 15.1978 13.044V10.3593C15.1978 8.81813 14.8498 7.44265 14.1538 6.2329C13.4578 5.00657 12.2149 4.39341 10.4251 4.39341C8.68506 4.39341 7.43388 5.00657 6.67157 6.2329C5.92583 7.44265 5.55296 8.81813 5.55296 10.3593ZM2.37114 51.723L37.3711 0.813865H43.0388L8.03875 51.723H2.37114Z" fill="#00C1AD"/>
</svg>
