<svg width="23" height="22" viewBox="0 0 23 22" fill="none" xmlns="http://www.w3.org/2000/svg">
<path fill-rule="evenodd" clip-rule="evenodd" d="M0.952357 1.78633C0.952357 0.913393 1.65998 0.205767 2.53292 0.205767L22.2897 0.205765L22.2897 19.9625C22.2897 20.8354 21.582 21.5431 20.7091 21.5431C19.8362 21.5432 19.1285 20.8354 19.1286 19.9626L19.1286 9.41782C19.1285 8.0097 17.4261 7.30462 16.4304 8.3003L4.44077 20.29C3.82359 20.9072 2.82273 20.9072 2.20555 20.29C1.58828 19.6727 1.58828 18.6718 2.20546 18.0547L14.1951 6.06498C15.1909 5.06922 14.4857 3.36689 13.0776 3.36681L2.53283 3.36681C1.65998 3.3669 0.952269 2.65918 0.952357 1.78633Z" fill="white"/>
</svg>
