<svg width="25" height="25" viewBox="0 0 25 25" fill="none" xmlns="http://www.w3.org/2000/svg">
<path d="M8.25 6.55001V5.70001C8.25 4.57284 8.69776 3.49183 9.49479 2.6948C10.2918 1.89778 11.3728 1.45001 12.5 1.45001C13.6272 1.45001 14.7082 1.89778 15.5052 2.6948C16.3022 3.49183 16.75 4.57284 16.75 5.70001V6.55001" stroke="#9C9C9C" stroke-linecap="round" stroke-linejoin="round"/>
<path d="M2.2998 6.54999H22.6998" stroke="#9C9C9C" stroke-linecap="round" stroke-linejoin="round"/>
<path d="M4.8501 6.54999H20.1501V21.85C20.1501 22.3008 19.9709 22.7333 19.6522 23.0521C19.3334 23.3708 18.9009 23.55 18.4501 23.55H6.5501C6.09922 23.55 5.66683 23.3708 5.34801 23.0521C5.02921 22.7333 4.8501 22.3008 4.8501 21.85V6.54999Z" stroke="#9C9C9C" stroke-linecap="round" stroke-linejoin="round"/>
<path d="M9.82129 11.6097V18.7553" stroke="#9C9C9C" stroke-linecap="round" stroke-linejoin="round"/>
<path d="M15.1787 11.6097V18.7553" stroke="#9C9C9C" stroke-linecap="round" stroke-linejoin="round"/>
</svg>
