<?xml version="1.0" encoding="UTF-8"?> <svg xmlns="http://www.w3.org/2000/svg" width="716" height="336" viewBox="0 0 716 336" fill="none"><path d="M63.187 290.458C63.187 290.698 63.193 290.968 63.205 291.268C63.223 291.562 63.271 291.841 63.349 292.105C63.433 292.363 63.565 292.582 63.745 292.762C63.925 292.942 64.177 293.032 64.501 293.032C64.825 293.032 65.077 292.942 65.257 292.762C65.437 292.582 65.566 292.363 65.644 292.105C65.728 291.841 65.776 291.562 65.788 291.268C65.806 290.968 65.815 290.698 65.815 290.458C65.815 290.302 65.812 290.131 65.806 289.945C65.806 289.753 65.791 289.564 65.761 289.378C65.737 289.186 65.698 289 65.644 288.82C65.596 288.64 65.521 288.484 65.419 288.352C65.323 288.214 65.2 288.103 65.05 288.019C64.9 287.935 64.717 287.893 64.501 287.893C64.285 287.893 64.102 287.935 63.952 288.019C63.802 288.103 63.676 288.214 63.574 288.352C63.478 288.484 63.403 288.64 63.349 288.82C63.301 289 63.262 289.186 63.232 289.378C63.208 289.564 63.193 289.753 63.187 289.945C63.187 290.131 63.187 290.302 63.187 290.458ZM62.377 290.467C62.377 290.233 62.383 289.99 62.395 289.738C62.407 289.486 62.437 289.24 62.485 289C62.533 288.76 62.602 288.532 62.692 288.316C62.782 288.1 62.905 287.911 63.061 287.749C63.217 287.587 63.412 287.458 63.646 287.362C63.886 287.266 64.171 287.218 64.501 287.218C64.831 287.218 65.113 287.266 65.347 287.362C65.587 287.458 65.785 287.587 65.941 287.749C66.097 287.911 66.22 288.1 66.31 288.316C66.4 288.532 66.469 288.76 66.517 289C66.565 289.24 66.595 289.486 66.607 289.738C66.619 289.99 66.625 290.233 66.625 290.467C66.625 290.701 66.619 290.944 66.607 291.196C66.595 291.448 66.565 291.694 66.517 291.934C66.469 292.174 66.4 292.402 66.31 292.618C66.22 292.828 66.097 293.014 65.941 293.176C65.785 293.338 65.59 293.467 65.356 293.563C65.122 293.653 64.837 293.698 64.501 293.698C64.171 293.698 63.886 293.653 63.646 293.563C63.412 293.467 63.217 293.338 63.061 293.176C62.905 293.014 62.782 292.828 62.692 292.618C62.602 292.402 62.533 292.174 62.485 291.934C62.437 291.694 62.407 291.448 62.395 291.196C62.383 290.944 62.377 290.701 62.377 290.467Z" fill="white" fill-opacity="0.49"></path><path d="M75 290.599H696" stroke="white" stroke-opacity="0.49"></path><path d="M102.549 307.007C102.711 306.869 102.888 306.719 103.08 306.557C103.278 306.389 103.461 306.209 103.629 306.017C103.803 305.825 103.95 305.624 104.07 305.414C104.19 305.198 104.253 304.964 104.259 304.712C104.271 304.328 104.16 304.034 103.926 303.83C103.692 303.62 103.383 303.515 102.999 303.515C102.693 303.515 102.426 303.578 102.198 303.704C101.97 303.83 101.82 304.013 101.748 304.253H100.911C100.953 304.007 101.04 303.794 101.172 303.614C101.31 303.428 101.475 303.275 101.667 303.155C101.865 303.035 102.081 302.945 102.315 302.885C102.549 302.825 102.789 302.795 103.035 302.795C103.329 302.795 103.599 302.837 103.845 302.921C104.091 302.999 104.304 303.116 104.484 303.272C104.664 303.428 104.802 303.623 104.898 303.857C105 304.085 105.051 304.346 105.051 304.64C105.051 304.934 105.006 305.198 104.916 305.432C104.832 305.666 104.715 305.882 104.565 306.08C104.421 306.278 104.256 306.464 104.07 306.638C103.884 306.812 103.692 306.986 103.494 307.16L101.883 308.519H105.123V309.23H100.749V308.582L102.549 307.007ZM111.058 306.053C111.058 306.461 111.016 306.86 110.932 307.25C110.854 307.64 110.719 307.988 110.527 308.294C110.335 308.594 110.08 308.837 109.762 309.023C109.444 309.209 109.048 309.302 108.574 309.302C108.094 309.302 107.695 309.209 107.377 309.023C107.059 308.837 106.804 308.594 106.612 308.294C106.42 307.988 106.285 307.646 106.207 307.268C106.129 306.89 106.09 306.485 106.09 306.053C106.09 305.621 106.129 305.216 106.207 304.838C106.285 304.454 106.42 304.112 106.612 303.812C106.804 303.512 107.059 303.269 107.377 303.083C107.695 302.891 108.094 302.795 108.574 302.795C109.048 302.795 109.444 302.888 109.762 303.074C110.08 303.26 110.335 303.506 110.527 303.812C110.719 304.118 110.854 304.466 110.932 304.856C111.016 305.246 111.058 305.645 111.058 306.053ZM106.891 306.053C106.891 306.341 106.912 306.635 106.954 306.935C106.996 307.235 107.077 307.508 107.197 307.754C107.317 308 107.485 308.201 107.701 308.357C107.923 308.513 108.214 308.591 108.574 308.591C108.928 308.591 109.213 308.513 109.429 308.357C109.651 308.201 109.822 308 109.942 307.754C110.062 307.508 110.143 307.235 110.185 306.935C110.227 306.635 110.248 306.341 110.248 306.053C110.248 305.771 110.227 305.48 110.185 305.18C110.143 304.88 110.062 304.607 109.942 304.361C109.822 304.109 109.651 303.905 109.429 303.749C109.213 303.587 108.928 303.506 108.574 303.506C108.214 303.506 107.923 303.587 107.701 303.749C107.485 303.905 107.317 304.109 107.197 304.361C107.077 304.607 106.996 304.88 106.954 305.18C106.912 305.48 106.891 305.771 106.891 306.053ZM113.867 309.23H113.084V304.127H111.788V303.596C111.968 303.584 112.133 303.569 112.283 303.551C112.433 303.527 112.571 303.488 112.697 303.434C112.823 303.38 112.937 303.308 113.039 303.218C113.141 303.128 113.234 303.011 113.318 302.867H113.867V309.23ZM117.451 309.302C117.199 309.302 116.944 309.278 116.686 309.23C116.434 309.182 116.197 309.101 115.975 308.987C115.759 308.867 115.573 308.711 115.417 308.519C115.267 308.327 115.171 308.09 115.129 307.808H115.939C115.993 307.964 116.074 308.093 116.182 308.195C116.296 308.291 116.422 308.369 116.56 308.429C116.704 308.489 116.854 308.531 117.01 308.555C117.166 308.579 117.316 308.591 117.46 308.591C117.592 308.591 117.742 308.579 117.91 308.555C118.078 308.531 118.234 308.48 118.378 308.402C118.528 308.324 118.651 308.21 118.747 308.06C118.849 307.904 118.9 307.7 118.9 307.448C118.9 307.208 118.852 307.016 118.756 306.872C118.666 306.728 118.546 306.617 118.396 306.539C118.252 306.461 118.087 306.41 117.901 306.386C117.721 306.362 117.538 306.35 117.352 306.35H116.74V305.648H117.109C117.271 305.648 117.421 305.645 117.559 305.639C117.697 305.627 117.85 305.585 118.018 305.513C118.21 305.423 118.363 305.297 118.477 305.135C118.591 304.967 118.651 304.775 118.657 304.559C118.657 304.343 118.621 304.166 118.549 304.028C118.477 303.89 118.381 303.782 118.261 303.704C118.141 303.626 118.006 303.575 117.856 303.551C117.706 303.521 117.553 303.506 117.397 303.506C117.271 303.506 117.139 303.521 117.001 303.551C116.869 303.575 116.743 303.617 116.623 303.677C116.509 303.737 116.407 303.818 116.317 303.92C116.227 304.016 116.164 304.133 116.128 304.271H115.345C115.381 304.007 115.465 303.782 115.597 303.596C115.729 303.41 115.891 303.257 116.083 303.137C116.281 303.017 116.497 302.93 116.731 302.876C116.971 302.822 117.214 302.795 117.46 302.795C117.73 302.795 117.982 302.825 118.216 302.885C118.456 302.939 118.666 303.032 118.846 303.164C119.026 303.29 119.167 303.458 119.269 303.668C119.377 303.878 119.431 304.133 119.431 304.433C119.431 304.547 119.419 304.67 119.395 304.802C119.371 304.928 119.326 305.054 119.26 305.18C119.194 305.306 119.098 305.432 118.972 305.558C118.846 305.684 118.681 305.789 118.477 305.873C118.879 305.951 119.185 306.128 119.395 306.404C119.605 306.674 119.71 307.001 119.71 307.385V307.421C119.71 307.751 119.65 308.036 119.53 308.276C119.416 308.51 119.257 308.705 119.053 308.861C118.849 309.011 118.609 309.122 118.333 309.194C118.057 309.266 117.763 309.302 117.451 309.302Z" fill="white" fill-opacity="0.49"></path><path d="M204.322 307.007C204.484 306.869 204.661 306.719 204.853 306.557C205.051 306.389 205.234 306.209 205.402 306.017C205.576 305.825 205.723 305.624 205.843 305.414C205.963 305.198 206.026 304.964 206.032 304.712C206.044 304.328 205.933 304.034 205.699 303.83C205.465 303.62 205.156 303.515 204.772 303.515C204.466 303.515 204.199 303.578 203.971 303.704C203.743 303.83 203.593 304.013 203.521 304.253H202.684C202.726 304.007 202.813 303.794 202.945 303.614C203.083 303.428 203.248 303.275 203.44 303.155C203.638 303.035 203.854 302.945 204.088 302.885C204.322 302.825 204.562 302.795 204.808 302.795C205.102 302.795 205.372 302.837 205.618 302.921C205.864 302.999 206.077 303.116 206.257 303.272C206.437 303.428 206.575 303.623 206.671 303.857C206.773 304.085 206.824 304.346 206.824 304.64C206.824 304.934 206.779 305.198 206.689 305.432C206.605 305.666 206.488 305.882 206.338 306.08C206.194 306.278 206.029 306.464 205.843 306.638C205.657 306.812 205.465 306.986 205.267 307.16L203.656 308.519H206.896V309.23H202.522V308.582L204.322 307.007ZM212.831 306.053C212.831 306.461 212.789 306.86 212.705 307.25C212.627 307.64 212.492 307.988 212.3 308.294C212.108 308.594 211.853 308.837 211.535 309.023C211.217 309.209 210.821 309.302 210.347 309.302C209.867 309.302 209.468 309.209 209.15 309.023C208.832 308.837 208.577 308.594 208.385 308.294C208.193 307.988 208.058 307.646 207.98 307.268C207.902 306.89 207.863 306.485 207.863 306.053C207.863 305.621 207.902 305.216 207.98 304.838C208.058 304.454 208.193 304.112 208.385 303.812C208.577 303.512 208.832 303.269 209.15 303.083C209.468 302.891 209.867 302.795 210.347 302.795C210.821 302.795 211.217 302.888 211.535 303.074C211.853 303.26 212.108 303.506 212.3 303.812C212.492 304.118 212.627 304.466 212.705 304.856C212.789 305.246 212.831 305.645 212.831 306.053ZM208.664 306.053C208.664 306.341 208.685 306.635 208.727 306.935C208.769 307.235 208.85 307.508 208.97 307.754C209.09 308 209.258 308.201 209.474 308.357C209.696 308.513 209.987 308.591 210.347 308.591C210.701 308.591 210.986 308.513 211.202 308.357C211.424 308.201 211.595 308 211.715 307.754C211.835 307.508 211.916 307.235 211.958 306.935C212 306.635 212.021 306.341 212.021 306.053C212.021 305.771 212 305.48 211.958 305.18C211.916 304.88 211.835 304.607 211.715 304.361C211.595 304.109 211.424 303.905 211.202 303.749C210.986 303.587 210.701 303.506 210.347 303.506C209.987 303.506 209.696 303.587 209.474 303.749C209.258 303.905 209.09 304.109 208.97 304.361C208.85 304.607 208.769 304.88 208.727 305.18C208.685 305.48 208.664 305.771 208.664 306.053ZM215.639 309.23H214.856V304.127H213.56V303.596C213.74 303.584 213.905 303.569 214.055 303.551C214.205 303.527 214.343 303.488 214.469 303.434C214.595 303.38 214.709 303.308 214.811 303.218C214.913 303.128 215.006 303.011 215.09 302.867H215.639V309.23ZM217.343 306.368L217.631 302.867H221.438V303.587H218.333L218.153 305.585C218.315 305.453 218.513 305.348 218.747 305.27C218.981 305.186 219.269 305.144 219.611 305.144C219.917 305.144 220.196 305.192 220.448 305.288C220.7 305.384 220.916 305.522 221.096 305.702C221.276 305.876 221.414 306.089 221.51 306.341C221.612 306.593 221.663 306.872 221.663 307.178C221.663 307.514 221.603 307.814 221.483 308.078C221.369 308.336 221.21 308.558 221.006 308.744C220.802 308.93 220.559 309.071 220.277 309.167C220.001 309.263 219.701 309.311 219.377 309.311C219.113 309.311 218.858 309.281 218.612 309.221C218.372 309.161 218.153 309.071 217.955 308.951C217.757 308.825 217.589 308.666 217.451 308.474C217.313 308.282 217.217 308.054 217.163 307.79H217.955C218.003 307.916 218.075 308.03 218.171 308.132C218.267 308.228 218.375 308.312 218.495 308.384C218.621 308.45 218.753 308.501 218.891 308.537C219.029 308.573 219.167 308.591 219.305 308.591C219.521 308.591 219.722 308.564 219.908 308.51C220.1 308.456 220.265 308.375 220.403 308.267C220.547 308.153 220.658 308.012 220.736 307.844C220.814 307.67 220.853 307.463 220.853 307.223C220.853 306.785 220.721 306.449 220.457 306.215C220.193 305.981 219.851 305.864 219.431 305.864C219.179 305.864 218.945 305.909 218.729 305.999C218.519 306.089 218.327 306.212 218.153 306.368H217.343Z" fill="white" fill-opacity="0.49"></path><path d="M306.676 307.007C306.838 306.869 307.015 306.719 307.207 306.557C307.405 306.389 307.588 306.209 307.756 306.017C307.93 305.825 308.077 305.624 308.197 305.414C308.317 305.198 308.38 304.964 308.386 304.712C308.398 304.328 308.287 304.034 308.053 303.83C307.819 303.62 307.51 303.515 307.126 303.515C306.82 303.515 306.553 303.578 306.325 303.704C306.097 303.83 305.947 304.013 305.875 304.253H305.038C305.08 304.007 305.167 303.794 305.299 303.614C305.437 303.428 305.602 303.275 305.794 303.155C305.992 303.035 306.208 302.945 306.442 302.885C306.676 302.825 306.916 302.795 307.162 302.795C307.456 302.795 307.726 302.837 307.972 302.921C308.218 302.999 308.431 303.116 308.611 303.272C308.791 303.428 308.929 303.623 309.025 303.857C309.127 304.085 309.178 304.346 309.178 304.64C309.178 304.934 309.133 305.198 309.043 305.432C308.959 305.666 308.842 305.882 308.692 306.08C308.548 306.278 308.383 306.464 308.197 306.638C308.011 306.812 307.819 306.986 307.621 307.16L306.01 308.519H309.25V309.23H304.876V308.582L306.676 307.007ZM315.185 306.053C315.185 306.461 315.143 306.86 315.059 307.25C314.981 307.64 314.846 307.988 314.654 308.294C314.462 308.594 314.207 308.837 313.889 309.023C313.571 309.209 313.175 309.302 312.701 309.302C312.221 309.302 311.822 309.209 311.504 309.023C311.186 308.837 310.931 308.594 310.739 308.294C310.547 307.988 310.412 307.646 310.334 307.268C310.256 306.89 310.217 306.485 310.217 306.053C310.217 305.621 310.256 305.216 310.334 304.838C310.412 304.454 310.547 304.112 310.739 303.812C310.931 303.512 311.186 303.269 311.504 303.083C311.822 302.891 312.221 302.795 312.701 302.795C313.175 302.795 313.571 302.888 313.889 303.074C314.207 303.26 314.462 303.506 314.654 303.812C314.846 304.118 314.981 304.466 315.059 304.856C315.143 305.246 315.185 305.645 315.185 306.053ZM311.018 306.053C311.018 306.341 311.039 306.635 311.081 306.935C311.123 307.235 311.204 307.508 311.324 307.754C311.444 308 311.612 308.201 311.828 308.357C312.05 308.513 312.341 308.591 312.701 308.591C313.055 308.591 313.34 308.513 313.556 308.357C313.778 308.201 313.949 308 314.069 307.754C314.189 307.508 314.27 307.235 314.312 306.935C314.354 306.635 314.375 306.341 314.375 306.053C314.375 305.771 314.354 305.48 314.312 305.18C314.27 304.88 314.189 304.607 314.069 304.361C313.949 304.109 313.778 303.905 313.556 303.749C313.34 303.587 313.055 303.506 312.701 303.506C312.341 303.506 312.05 303.587 311.828 303.749C311.612 303.905 311.444 304.109 311.324 304.361C311.204 304.607 311.123 304.88 311.081 305.18C311.039 305.48 311.018 305.771 311.018 306.053ZM317.993 309.23H317.21V304.127H315.914V303.596C316.094 303.584 316.259 303.569 316.409 303.551C316.559 303.527 316.697 303.488 316.823 303.434C316.949 303.38 317.063 303.308 317.165 303.218C317.267 303.128 317.36 303.011 317.444 302.867H317.993V309.23ZM319.858 309.23L322.432 303.587H319.066V302.867H323.296V303.515L320.722 309.23H319.858Z" fill="white" fill-opacity="0.49"></path><path d="M408.009 307.007C408.171 306.869 408.348 306.719 408.54 306.557C408.738 306.389 408.921 306.209 409.089 306.017C409.263 305.825 409.41 305.624 409.53 305.414C409.65 305.198 409.713 304.964 409.719 304.712C409.731 304.328 409.62 304.034 409.386 303.83C409.152 303.62 408.843 303.515 408.459 303.515C408.153 303.515 407.886 303.578 407.658 303.704C407.43 303.83 407.28 304.013 407.208 304.253H406.371C406.413 304.007 406.5 303.794 406.632 303.614C406.77 303.428 406.935 303.275 407.127 303.155C407.325 303.035 407.541 302.945 407.775 302.885C408.009 302.825 408.249 302.795 408.495 302.795C408.789 302.795 409.059 302.837 409.305 302.921C409.551 302.999 409.764 303.116 409.944 303.272C410.124 303.428 410.262 303.623 410.358 303.857C410.46 304.085 410.511 304.346 410.511 304.64C410.511 304.934 410.466 305.198 410.376 305.432C410.292 305.666 410.175 305.882 410.025 306.08C409.881 306.278 409.716 306.464 409.53 306.638C409.344 306.812 409.152 306.986 408.954 307.16L407.343 308.519H410.583V309.23H406.209V308.582L408.009 307.007ZM416.518 306.053C416.518 306.461 416.476 306.86 416.392 307.25C416.314 307.64 416.179 307.988 415.987 308.294C415.795 308.594 415.54 308.837 415.222 309.023C414.904 309.209 414.508 309.302 414.034 309.302C413.554 309.302 413.155 309.209 412.837 309.023C412.519 308.837 412.264 308.594 412.072 308.294C411.88 307.988 411.745 307.646 411.667 307.268C411.589 306.89 411.55 306.485 411.55 306.053C411.55 305.621 411.589 305.216 411.667 304.838C411.745 304.454 411.88 304.112 412.072 303.812C412.264 303.512 412.519 303.269 412.837 303.083C413.155 302.891 413.554 302.795 414.034 302.795C414.508 302.795 414.904 302.888 415.222 303.074C415.54 303.26 415.795 303.506 415.987 303.812C416.179 304.118 416.314 304.466 416.392 304.856C416.476 305.246 416.518 305.645 416.518 306.053ZM412.351 306.053C412.351 306.341 412.372 306.635 412.414 306.935C412.456 307.235 412.537 307.508 412.657 307.754C412.777 308 412.945 308.201 413.161 308.357C413.383 308.513 413.674 308.591 414.034 308.591C414.388 308.591 414.673 308.513 414.889 308.357C415.111 308.201 415.282 308 415.402 307.754C415.522 307.508 415.603 307.235 415.645 306.935C415.687 306.635 415.708 306.341 415.708 306.053C415.708 305.771 415.687 305.48 415.645 305.18C415.603 304.88 415.522 304.607 415.402 304.361C415.282 304.109 415.111 303.905 414.889 303.749C414.673 303.587 414.388 303.506 414.034 303.506C413.674 303.506 413.383 303.587 413.161 303.749C412.945 303.905 412.777 304.109 412.657 304.361C412.537 304.607 412.456 304.88 412.414 305.18C412.372 305.48 412.351 305.771 412.351 306.053ZM419.326 309.23H418.543V304.127H417.247V303.596C417.427 303.584 417.592 303.569 417.742 303.551C417.892 303.527 418.03 303.488 418.156 303.434C418.282 303.38 418.396 303.308 418.498 303.218C418.6 303.128 418.693 303.011 418.777 302.867H419.326V309.23ZM424.621 305.945C424.537 306.119 424.429 306.269 424.297 306.395C424.165 306.515 424.018 306.614 423.856 306.692C423.694 306.77 423.523 306.827 423.343 306.863C423.169 306.893 422.992 306.908 422.812 306.908C422.53 306.908 422.266 306.866 422.02 306.782C421.774 306.692 421.558 306.563 421.372 306.395C421.192 306.227 421.048 306.02 420.94 305.774C420.832 305.528 420.778 305.243 420.778 304.919C420.778 304.601 420.832 304.313 420.94 304.055C421.048 303.791 421.198 303.566 421.39 303.38C421.588 303.194 421.819 303.05 422.083 302.948C422.347 302.846 422.65 302.795 422.992 302.795C423.46 302.795 423.847 302.9 424.153 303.11C424.459 303.314 424.702 303.578 424.882 303.902C425.062 304.226 425.188 304.589 425.26 304.991C425.332 305.393 425.368 305.789 425.368 306.179C425.368 306.611 425.317 307.034 425.215 307.448C425.119 307.856 424.96 308.204 424.738 308.492C424.546 308.744 424.294 308.942 423.982 309.086C423.676 309.23 423.307 309.302 422.875 309.302C422.647 309.302 422.422 309.275 422.2 309.221C421.984 309.161 421.786 309.074 421.606 308.96C421.426 308.84 421.27 308.696 421.138 308.528C421.006 308.354 420.91 308.15 420.85 307.916H421.714C421.816 308.144 421.987 308.315 422.227 308.429C422.473 308.537 422.719 308.591 422.965 308.591C423.259 308.585 423.508 308.525 423.712 308.411C423.916 308.297 424.081 308.144 424.207 307.952C424.297 307.814 424.369 307.661 424.423 307.493C424.477 307.319 424.519 307.151 424.549 306.989C424.579 306.821 424.597 306.662 424.603 306.512C424.615 306.362 424.621 306.239 424.621 306.143V305.945ZM421.579 304.847C421.579 305.267 421.699 305.594 421.939 305.828C422.185 306.062 422.515 306.182 422.929 306.188C423.121 306.188 423.301 306.158 423.469 306.098C423.643 306.038 423.793 305.951 423.919 305.837C424.051 305.723 424.153 305.588 424.225 305.432C424.303 305.27 424.342 305.093 424.342 304.901C424.342 304.697 424.306 304.511 424.234 304.343C424.168 304.169 424.072 304.022 423.946 303.902C423.826 303.776 423.682 303.68 423.514 303.614C423.346 303.542 423.163 303.506 422.965 303.506C422.767 303.506 422.581 303.542 422.407 303.614C422.239 303.686 422.092 303.782 421.966 303.902C421.846 304.022 421.75 304.163 421.678 304.325C421.612 304.487 421.579 304.661 421.579 304.847Z" fill="white" fill-opacity="0.49"></path><path d="M510.169 307.007C510.331 306.869 510.508 306.719 510.7 306.557C510.898 306.389 511.081 306.209 511.249 306.017C511.423 305.825 511.57 305.624 511.69 305.414C511.81 305.198 511.873 304.964 511.879 304.712C511.891 304.328 511.78 304.034 511.546 303.83C511.312 303.62 511.003 303.515 510.619 303.515C510.313 303.515 510.046 303.578 509.818 303.704C509.59 303.83 509.44 304.013 509.368 304.253H508.531C508.573 304.007 508.66 303.794 508.792 303.614C508.93 303.428 509.095 303.275 509.287 303.155C509.485 303.035 509.701 302.945 509.935 302.885C510.169 302.825 510.409 302.795 510.655 302.795C510.949 302.795 511.219 302.837 511.465 302.921C511.711 302.999 511.924 303.116 512.104 303.272C512.284 303.428 512.422 303.623 512.518 303.857C512.62 304.085 512.671 304.346 512.671 304.64C512.671 304.934 512.626 305.198 512.536 305.432C512.452 305.666 512.335 305.882 512.185 306.08C512.041 306.278 511.876 306.464 511.69 306.638C511.504 306.812 511.312 306.986 511.114 307.16L509.503 308.519H512.743V309.23H508.369V308.582L510.169 307.007ZM518.678 306.053C518.678 306.461 518.636 306.86 518.552 307.25C518.474 307.64 518.339 307.988 518.147 308.294C517.955 308.594 517.7 308.837 517.382 309.023C517.064 309.209 516.668 309.302 516.194 309.302C515.714 309.302 515.315 309.209 514.997 309.023C514.679 308.837 514.424 308.594 514.232 308.294C514.04 307.988 513.905 307.646 513.827 307.268C513.749 306.89 513.71 306.485 513.71 306.053C513.71 305.621 513.749 305.216 513.827 304.838C513.905 304.454 514.04 304.112 514.232 303.812C514.424 303.512 514.679 303.269 514.997 303.083C515.315 302.891 515.714 302.795 516.194 302.795C516.668 302.795 517.064 302.888 517.382 303.074C517.7 303.26 517.955 303.506 518.147 303.812C518.339 304.118 518.474 304.466 518.552 304.856C518.636 305.246 518.678 305.645 518.678 306.053ZM514.511 306.053C514.511 306.341 514.532 306.635 514.574 306.935C514.616 307.235 514.697 307.508 514.817 307.754C514.937 308 515.105 308.201 515.321 308.357C515.543 308.513 515.834 308.591 516.194 308.591C516.548 308.591 516.833 308.513 517.049 308.357C517.271 308.201 517.442 308 517.562 307.754C517.682 307.508 517.763 307.235 517.805 306.935C517.847 306.635 517.868 306.341 517.868 306.053C517.868 305.771 517.847 305.48 517.805 305.18C517.763 304.88 517.682 304.607 517.562 304.361C517.442 304.109 517.271 303.905 517.049 303.749C516.833 303.587 516.548 303.506 516.194 303.506C515.834 303.506 515.543 303.587 515.321 303.749C515.105 303.905 514.937 304.109 514.817 304.361C514.697 304.607 514.616 304.88 514.574 305.18C514.532 305.48 514.511 305.771 514.511 306.053ZM521.12 307.007C521.282 306.869 521.459 306.719 521.651 306.557C521.849 306.389 522.032 306.209 522.2 306.017C522.374 305.825 522.521 305.624 522.641 305.414C522.761 305.198 522.824 304.964 522.83 304.712C522.842 304.328 522.731 304.034 522.497 303.83C522.263 303.62 521.954 303.515 521.57 303.515C521.264 303.515 520.997 303.578 520.769 303.704C520.541 303.83 520.391 304.013 520.319 304.253H519.482C519.524 304.007 519.611 303.794 519.743 303.614C519.881 303.428 520.046 303.275 520.238 303.155C520.436 303.035 520.652 302.945 520.886 302.885C521.12 302.825 521.36 302.795 521.606 302.795C521.9 302.795 522.17 302.837 522.416 302.921C522.662 302.999 522.875 303.116 523.055 303.272C523.235 303.428 523.373 303.623 523.469 303.857C523.571 304.085 523.622 304.346 523.622 304.64C523.622 304.934 523.577 305.198 523.487 305.432C523.403 305.666 523.286 305.882 523.136 306.08C522.992 306.278 522.827 306.464 522.641 306.638C522.455 306.812 522.263 306.986 522.065 307.16L520.454 308.519H523.694V309.23H519.32V308.582L521.12 307.007ZM526.452 309.23H525.669V304.127H524.373V303.596C524.553 303.584 524.718 303.569 524.868 303.551C525.018 303.527 525.156 303.488 525.282 303.434C525.408 303.38 525.522 303.308 525.624 303.218C525.726 303.128 525.819 303.011 525.903 302.867H526.452V309.23Z" fill="white" fill-opacity="0.49"></path><path d="M610.963 307.007C611.125 306.869 611.302 306.719 611.494 306.557C611.692 306.389 611.875 306.209 612.043 306.017C612.217 305.825 612.364 305.624 612.484 305.414C612.604 305.198 612.667 304.964 612.673 304.712C612.685 304.328 612.574 304.034 612.34 303.83C612.106 303.62 611.797 303.515 611.413 303.515C611.107 303.515 610.84 303.578 610.612 303.704C610.384 303.83 610.234 304.013 610.162 304.253H609.325C609.367 304.007 609.454 303.794 609.586 303.614C609.724 303.428 609.889 303.275 610.081 303.155C610.279 303.035 610.495 302.945 610.729 302.885C610.963 302.825 611.203 302.795 611.449 302.795C611.743 302.795 612.013 302.837 612.259 302.921C612.505 302.999 612.718 303.116 612.898 303.272C613.078 303.428 613.216 303.623 613.312 303.857C613.414 304.085 613.465 304.346 613.465 304.64C613.465 304.934 613.42 305.198 613.33 305.432C613.246 305.666 613.129 305.882 612.979 306.08C612.835 306.278 612.67 306.464 612.484 306.638C612.298 306.812 612.106 306.986 611.908 307.16L610.297 308.519H613.537V309.23H609.163V308.582L610.963 307.007ZM619.471 306.053C619.471 306.461 619.429 306.86 619.345 307.25C619.267 307.64 619.132 307.988 618.94 308.294C618.748 308.594 618.493 308.837 618.175 309.023C617.857 309.209 617.461 309.302 616.987 309.302C616.507 309.302 616.108 309.209 615.79 309.023C615.472 308.837 615.217 308.594 615.025 308.294C614.833 307.988 614.698 307.646 614.62 307.268C614.542 306.89 614.503 306.485 614.503 306.053C614.503 305.621 614.542 305.216 614.62 304.838C614.698 304.454 614.833 304.112 615.025 303.812C615.217 303.512 615.472 303.269 615.79 303.083C616.108 302.891 616.507 302.795 616.987 302.795C617.461 302.795 617.857 302.888 618.175 303.074C618.493 303.26 618.748 303.506 618.94 303.812C619.132 304.118 619.267 304.466 619.345 304.856C619.429 305.246 619.471 305.645 619.471 306.053ZM615.304 306.053C615.304 306.341 615.325 306.635 615.367 306.935C615.409 307.235 615.49 307.508 615.61 307.754C615.73 308 615.898 308.201 616.114 308.357C616.336 308.513 616.627 308.591 616.987 308.591C617.341 308.591 617.626 308.513 617.842 308.357C618.064 308.201 618.235 308 618.355 307.754C618.475 307.508 618.556 307.235 618.598 306.935C618.64 306.635 618.661 306.341 618.661 306.053C618.661 305.771 618.64 305.48 618.598 305.18C618.556 304.88 618.475 304.607 618.355 304.361C618.235 304.109 618.064 303.905 617.842 303.749C617.626 303.587 617.341 303.506 616.987 303.506C616.627 303.506 616.336 303.587 616.114 303.749C615.898 303.905 615.73 304.109 615.61 304.361C615.49 304.607 615.409 304.88 615.367 305.18C615.325 305.48 615.304 305.771 615.304 306.053ZM621.914 307.007C622.076 306.869 622.253 306.719 622.445 306.557C622.643 306.389 622.826 306.209 622.994 306.017C623.168 305.825 623.315 305.624 623.435 305.414C623.555 305.198 623.618 304.964 623.624 304.712C623.636 304.328 623.525 304.034 623.291 303.83C623.057 303.62 622.748 303.515 622.364 303.515C622.058 303.515 621.791 303.578 621.563 303.704C621.335 303.83 621.185 304.013 621.113 304.253H620.276C620.318 304.007 620.405 303.794 620.537 303.614C620.675 303.428 620.84 303.275 621.032 303.155C621.23 303.035 621.446 302.945 621.68 302.885C621.914 302.825 622.154 302.795 622.4 302.795C622.694 302.795 622.964 302.837 623.21 302.921C623.456 302.999 623.669 303.116 623.849 303.272C624.029 303.428 624.167 303.623 624.263 303.857C624.365 304.085 624.416 304.346 624.416 304.64C624.416 304.934 624.371 305.198 624.281 305.432C624.197 305.666 624.08 305.882 623.93 306.08C623.786 306.278 623.621 306.464 623.435 306.638C623.249 306.812 623.057 306.986 622.859 307.16L621.248 308.519H624.488V309.23H620.114V308.582L621.914 307.007ZM627.56 309.302C627.308 309.302 627.053 309.278 626.795 309.23C626.543 309.182 626.306 309.101 626.084 308.987C625.868 308.867 625.682 308.711 625.526 308.519C625.376 308.327 625.28 308.09 625.238 307.808H626.048C626.102 307.964 626.183 308.093 626.291 308.195C626.405 308.291 626.531 308.369 626.669 308.429C626.813 308.489 626.963 308.531 627.119 308.555C627.275 308.579 627.425 308.591 627.569 308.591C627.701 308.591 627.851 308.579 628.019 308.555C628.187 308.531 628.343 308.48 628.487 308.402C628.637 308.324 628.76 308.21 628.856 308.06C628.958 307.904 629.009 307.7 629.009 307.448C629.009 307.208 628.961 307.016 628.865 306.872C628.775 306.728 628.655 306.617 628.505 306.539C628.361 306.461 628.196 306.41 628.01 306.386C627.83 306.362 627.647 306.35 627.461 306.35H626.849V305.648H627.218C627.38 305.648 627.53 305.645 627.668 305.639C627.806 305.627 627.959 305.585 628.127 305.513C628.319 305.423 628.472 305.297 628.586 305.135C628.7 304.967 628.76 304.775 628.766 304.559C628.766 304.343 628.73 304.166 628.658 304.028C628.586 303.89 628.49 303.782 628.37 303.704C628.25 303.626 628.115 303.575 627.965 303.551C627.815 303.521 627.662 303.506 627.506 303.506C627.38 303.506 627.248 303.521 627.11 303.551C626.978 303.575 626.852 303.617 626.732 303.677C626.618 303.737 626.516 303.818 626.426 303.92C626.336 304.016 626.273 304.133 626.237 304.271H625.454C625.49 304.007 625.574 303.782 625.706 303.596C625.838 303.41 626 303.257 626.192 303.137C626.39 303.017 626.606 302.93 626.84 302.876C627.08 302.822 627.323 302.795 627.569 302.795C627.839 302.795 628.091 302.825 628.325 302.885C628.565 302.939 628.775 303.032 628.955 303.164C629.135 303.29 629.276 303.458 629.378 303.668C629.486 303.878 629.54 304.133 629.54 304.433C629.54 304.547 629.528 304.67 629.504 304.802C629.48 304.928 629.435 305.054 629.369 305.18C629.303 305.306 629.207 305.432 629.081 305.558C628.955 305.684 628.79 305.789 628.586 305.873C628.988 305.951 629.294 306.128 629.504 306.404C629.714 306.674 629.819 307.001 629.819 307.385V307.421C629.819 307.751 629.759 308.036 629.639 308.276C629.525 308.51 629.366 308.705 629.162 308.861C628.958 309.011 628.718 309.122 628.442 309.194C628.166 309.266 627.872 309.302 627.56 309.302Z" fill="white" fill-opacity="0.49"></path><path d="M111 277C125.075 246.646 141.229 220.74 162.182 215.42C183.134 210.1 189.932 253.535 213.364 246.646C236.795 239.757 246.552 189.152 264.545 183.294C282.539 177.437 294.375 217.136 315.727 214.811C337.08 212.486 345.717 159.645 366.909 171.47C388.102 183.294 396.179 209.383 418.091 215.808C440.003 222.232 450.16 180.13 469.273 184.026C488.386 187.923 498.862 194.807 520.455 191.064C542.047 187.321 550.204 142.899 571.636 161.855C593.069 180.811 597.147 102.548 622.818 95.8073C648.489 89.067 663.444 69.811 674 23" stroke="#00FFBF" stroke-width="2" stroke-linejoin="round"></path><path d="M24.0013 244.304C24.3311 244.605 24.4961 244.984 24.4961 245.439C24.4961 245.706 24.4307 245.962 24.2999 246.206C24.169 246.451 23.987 246.644 23.7539 246.787C23.5377 246.934 23.259 247.037 22.9178 247.094V247.844H22.0903V247.085C21.84 247.04 21.6125 246.951 21.4077 246.821C21.203 246.69 21.0324 246.525 20.8959 246.326C20.6399 245.979 20.512 245.595 20.512 245.174H21.348C21.348 245.294 21.3679 245.419 21.4077 245.549C21.4532 245.675 21.5158 245.78 21.5954 245.865C21.7035 246.013 21.8343 246.13 21.9879 246.215C22.1414 246.295 22.3092 246.334 22.4912 246.334C22.6448 246.334 22.7955 246.314 22.9434 246.275C23.0969 246.229 23.2278 246.161 23.3358 246.07C23.5292 245.911 23.6259 245.692 23.6259 245.413C23.6259 245.288 23.5974 245.177 23.5406 245.08C23.4894 244.978 23.4041 244.881 23.2846 244.79C23.1766 244.705 23.0571 244.631 22.9263 244.568C22.7955 244.506 22.6277 244.432 22.423 244.347C22.2865 244.295 22.1358 244.23 21.9708 244.15C21.5215 243.957 21.1831 243.718 20.9556 243.434C20.8532 243.309 20.7707 243.161 20.7082 242.99C20.6456 242.814 20.6143 242.635 20.6143 242.453C20.6143 242.219 20.6627 241.992 20.7594 241.77C20.8561 241.548 20.9897 241.361 21.1603 241.207C21.4106 240.98 21.7206 240.832 22.0903 240.763V240.013H22.9178V240.781C23.3273 240.866 23.6628 241.071 23.9245 241.395C24.2202 241.73 24.3709 242.123 24.3766 242.572H23.5064C23.5064 242.328 23.424 242.1 23.259 241.89C23.0429 241.645 22.7841 241.523 22.4827 241.523C22.1813 241.523 21.9338 241.619 21.7405 241.813C21.5698 241.983 21.4845 242.194 21.4845 242.444C21.4845 242.649 21.5414 242.819 21.6552 242.956C21.7291 243.058 21.8372 243.152 21.9793 243.238C22.1272 243.323 22.3121 243.408 22.5339 243.493C22.9775 243.681 23.2932 243.823 23.4808 243.92C23.6685 244.017 23.842 244.145 24.0013 244.304Z" fill="#7D7D7D"></path><path d="M28.8698 243.749C29.0291 243.926 29.1457 244.128 29.2196 244.355C29.2993 244.577 29.3391 244.813 29.3391 245.063C29.3391 245.376 29.2793 245.672 29.1599 245.95C29.0462 246.229 28.8755 246.462 28.648 246.65C28.4603 246.804 28.2499 246.92 28.0167 247C27.7892 247.085 27.556 247.125 27.3172 247.119C27.0783 247.125 26.8422 247.085 26.6091 247C26.3759 246.92 26.1654 246.804 25.9777 246.65C25.682 246.411 25.4744 246.098 25.355 245.712L26.1484 245.49C26.228 245.734 26.3531 245.925 26.5237 246.061C26.7512 246.243 27.0129 246.334 27.3086 246.334C27.6214 246.323 27.8831 246.229 28.0935 246.053C28.23 245.939 28.3295 245.8 28.3921 245.635C28.4603 245.47 28.4945 245.294 28.4945 245.106C28.4945 244.708 28.3693 244.395 28.1191 244.167C27.903 243.968 27.63 243.869 27.3001 243.869C27.101 243.869 26.8991 243.923 26.6944 244.031L26.3019 243.374L28.1362 241.642H25.5938V240.857H29.2538V241.668L27.6584 243.178C28.1475 243.223 28.5513 243.414 28.8698 243.749Z" fill="#7D7D7D"></path><path d="M32.9338 246.949C32.6608 247.062 32.3651 247.119 32.0466 247.119C31.7338 247.119 31.438 247.062 31.1593 246.949C30.8806 246.829 30.6446 246.659 30.4512 246.437C30.2635 246.215 30.1299 245.987 30.0503 245.754C29.9763 245.515 29.9394 245.237 29.9394 244.918V242.93C29.9394 242.612 29.9763 242.333 30.0503 242.094C30.1299 241.855 30.2664 241.622 30.4598 241.395C30.6531 241.179 30.8892 241.014 31.1679 240.9C31.4522 240.786 31.7565 240.729 32.0807 240.729C32.3765 240.729 32.658 240.786 32.9253 240.9C33.1983 241.014 33.4315 241.179 33.6249 241.395C33.8182 241.611 33.9547 241.841 34.0344 242.086C34.114 242.325 34.1538 242.606 34.1538 242.93V244.918C34.1538 245.231 34.114 245.51 34.0344 245.754C33.9604 245.999 33.8296 246.226 33.6419 246.437C33.4486 246.659 33.2125 246.829 32.9338 246.949ZM32.6608 241.676C32.4675 241.568 32.2627 241.514 32.0466 241.514C31.8305 241.514 31.6257 241.568 31.4323 241.676C31.2446 241.784 31.0939 241.929 30.9802 242.111C30.9062 242.219 30.855 242.339 30.8266 242.47C30.7982 242.601 30.7839 242.754 30.7839 242.93V244.918C30.7839 245.089 30.7982 245.242 30.8266 245.379C30.855 245.515 30.9091 245.643 30.9887 245.763C31.1081 245.939 31.2589 246.081 31.4409 246.189C31.6285 246.292 31.8305 246.34 32.0466 246.334C32.2627 246.34 32.4646 246.292 32.6523 246.189C32.84 246.081 32.9935 245.936 33.113 245.754C33.1869 245.64 33.2381 245.521 33.2666 245.396C33.295 245.265 33.3092 245.106 33.3092 244.918V242.93C33.3092 242.754 33.295 242.606 33.2666 242.487C33.2438 242.362 33.1955 242.237 33.1215 242.111C33.0078 241.929 32.8542 241.784 32.6608 241.676Z" fill="#7D7D7D"></path><path d="M42.4369 242.734C42.6474 242.91 42.7867 243.118 42.855 243.357C42.9289 243.596 42.9659 243.894 42.9659 244.253L42.9573 247H42.1298L42.1383 244.253C42.1383 244.025 42.1156 243.849 42.0701 243.724C42.0303 243.593 41.945 243.468 41.8141 243.348C41.7345 243.269 41.6378 243.206 41.5241 243.161C41.4103 243.115 41.2966 243.092 41.1828 243.092C41.035 243.092 40.8956 243.124 40.7648 243.186C40.634 243.243 40.5231 243.326 40.4321 243.434C40.3411 243.542 40.2785 243.656 40.2444 243.775C40.216 243.889 40.2017 244.022 40.2017 244.176V247H39.3742V244.253C39.3742 244.025 39.3543 243.849 39.3145 243.724C39.2747 243.593 39.1894 243.468 39.0585 243.348C38.8765 243.178 38.6633 243.092 38.4187 243.092C38.2708 243.092 38.1315 243.124 38.0007 243.186C37.8755 243.243 37.7675 243.326 37.6765 243.434C37.5798 243.542 37.5144 243.656 37.4803 243.775C37.4518 243.889 37.4376 244.022 37.4376 244.176V247H36.6101V242.393H37.3438V242.982C37.4973 242.788 37.6879 242.637 37.9154 242.529C38.1485 242.416 38.3931 242.359 38.649 242.359C38.831 242.359 39.0102 242.393 39.1865 242.461C39.3685 242.524 39.5306 242.615 39.6728 242.734C39.8036 242.842 39.9145 242.973 40.0055 243.127L40.0311 243.075C40.179 242.854 40.3752 242.68 40.6198 242.555C40.87 242.424 41.1316 242.359 41.4046 242.359C41.5866 242.359 41.7686 242.393 41.9506 242.461C42.1327 242.524 42.2947 242.615 42.4369 242.734Z" fill="#7D7D7D"></path><path d="M44.7413 240.815V241.642H43.9138V240.815H44.7413ZM44.7413 242.393V247H43.9138V242.393H44.7413Z" fill="#7D7D7D"></path><path d="M46.6837 247H45.8562V240.729H46.6837V247Z" fill="#7D7D7D"></path><path d="M48.5434 247H47.7159V240.729H48.5434V247Z" fill="#7D7D7D"></path><path d="M50.4884 240.815V241.642H49.6609V240.815H50.4884ZM50.4884 242.393V247H49.6609V242.393H50.4884Z" fill="#7D7D7D"></path><path d="M53.5825 247.128C53.2413 247.128 52.9228 247.062 52.627 246.932C52.3313 246.801 52.0839 246.613 51.8848 246.368C51.5265 245.925 51.3473 245.367 51.3473 244.696C51.3473 244.025 51.5265 243.465 51.8848 243.016C52.0782 242.777 52.3256 242.592 52.627 242.461C52.9285 242.33 53.247 242.265 53.5825 242.265C53.9238 242.265 54.2423 242.33 54.538 242.461C54.8395 242.586 55.0897 242.771 55.2888 243.016C55.6471 243.465 55.8262 244.025 55.8262 244.696C55.8262 245.356 55.6471 245.913 55.2888 246.368C55.084 246.619 54.8338 246.809 54.538 246.94C54.248 247.065 53.9295 247.128 53.5825 247.128ZM54.6319 245.865C54.8423 245.586 54.9475 245.197 54.9475 244.696C54.9475 244.19 54.8423 243.798 54.6319 243.519C54.5181 243.365 54.3674 243.249 54.1797 243.169C53.9977 243.09 53.7986 243.05 53.5825 243.05C53.3664 243.05 53.1673 243.09 52.9853 243.169C52.8033 243.249 52.6555 243.365 52.5417 243.519C52.3313 243.798 52.226 244.19 52.226 244.696C52.226 245.197 52.3313 245.586 52.5417 245.865C52.6555 246.019 52.8033 246.138 52.9853 246.223C53.1673 246.303 53.3664 246.343 53.5825 246.343C53.7986 246.343 53.9977 246.303 54.1797 246.223C54.3617 246.138 54.5124 246.019 54.6319 245.865Z" fill="#7D7D7D"></path><path d="M59.9851 242.7C60.2695 242.928 60.46 243.203 60.5567 243.528C60.6534 243.852 60.6989 244.25 60.6932 244.722V247H59.8572V244.722C59.8572 244.392 59.8259 244.113 59.7633 243.886C59.7008 243.653 59.5813 243.465 59.405 243.323C59.1889 243.147 58.913 243.064 58.5775 243.075C58.2988 243.092 58.0656 243.178 57.8779 243.331C57.6675 243.502 57.5367 243.741 57.4855 244.048C57.457 244.167 57.44 244.31 57.4343 244.475C57.4286 244.639 57.4258 244.807 57.4258 244.978V247H56.5982V242.393H57.3319V242.854C57.3319 242.854 57.3632 242.822 57.4258 242.76C57.6021 242.601 57.8068 242.481 58.04 242.401C58.2789 242.322 58.5206 242.282 58.7652 242.282C58.987 242.282 59.2031 242.319 59.4135 242.393C59.6297 242.461 59.8202 242.564 59.9851 242.7Z" fill="#7D7D7D"></path><path d="M24.0013 197.304C24.3311 197.605 24.4961 197.984 24.4961 198.439C24.4961 198.706 24.4307 198.962 24.2999 199.206C24.169 199.451 23.987 199.644 23.7539 199.787C23.5377 199.934 23.259 200.037 22.9178 200.094V200.844H22.0903V200.085C21.84 200.04 21.6125 199.951 21.4077 199.821C21.203 199.69 21.0324 199.525 20.8959 199.326C20.6399 198.979 20.512 198.595 20.512 198.174H21.348C21.348 198.294 21.3679 198.419 21.4077 198.549C21.4532 198.675 21.5158 198.78 21.5954 198.865C21.7035 199.013 21.8343 199.13 21.9879 199.215C22.1414 199.295 22.3092 199.334 22.4912 199.334C22.6448 199.334 22.7955 199.314 22.9434 199.275C23.0969 199.229 23.2278 199.161 23.3358 199.07C23.5292 198.911 23.6259 198.692 23.6259 198.413C23.6259 198.288 23.5974 198.177 23.5406 198.08C23.4894 197.978 23.4041 197.881 23.2846 197.79C23.1766 197.705 23.0571 197.631 22.9263 197.568C22.7955 197.506 22.6277 197.432 22.423 197.347C22.2865 197.295 22.1358 197.23 21.9708 197.15C21.5215 196.957 21.1831 196.718 20.9556 196.434C20.8532 196.309 20.7707 196.161 20.7082 195.99C20.6456 195.814 20.6143 195.635 20.6143 195.453C20.6143 195.219 20.6627 194.992 20.7594 194.77C20.8561 194.548 20.9897 194.361 21.1603 194.207C21.4106 193.98 21.7206 193.832 22.0903 193.763V193.013H22.9178V193.781C23.3273 193.866 23.6628 194.071 23.9245 194.395C24.2202 194.73 24.3709 195.123 24.3766 195.572H23.5064C23.5064 195.328 23.424 195.1 23.259 194.89C23.0429 194.645 22.7841 194.523 22.4827 194.523C22.1813 194.523 21.9338 194.619 21.7405 194.813C21.5698 194.983 21.4845 195.194 21.4845 195.444C21.4845 195.649 21.5414 195.819 21.6552 195.956C21.7291 196.058 21.8372 196.152 21.9793 196.238C22.1272 196.323 22.3121 196.408 22.5339 196.493C22.9775 196.681 23.2932 196.823 23.4808 196.92C23.6685 197.017 23.842 197.145 24.0013 197.304Z" fill="#7D7D7D"></path><path d="M28.5115 195.06C28.3864 194.89 28.23 194.756 28.0423 194.659C27.8546 194.563 27.6584 194.514 27.4537 194.514C27.2318 194.514 27.0214 194.568 26.8223 194.676C26.629 194.784 26.4782 194.929 26.3702 195.111C26.1996 195.345 26.1142 195.643 26.1142 196.007V196.656C26.2849 196.468 26.4896 196.32 26.7285 196.212C26.9674 196.104 27.2176 196.05 27.4792 196.05C27.7295 196.05 27.9741 196.098 28.2129 196.195C28.4575 196.286 28.6736 196.417 28.8613 196.587C29.2708 196.98 29.4756 197.463 29.4756 198.038C29.4756 198.316 29.4215 198.586 29.3135 198.848C29.2054 199.104 29.0518 199.329 28.8528 199.522C28.6708 199.71 28.4518 199.858 28.1959 199.966C27.9399 200.068 27.6755 200.119 27.4025 200.119C27.1124 200.119 26.8337 200.065 26.5664 199.957C26.2991 199.849 26.0687 199.696 25.8754 199.496C25.6536 199.275 25.4971 199.033 25.4061 198.771C25.3151 198.504 25.2696 198.197 25.2696 197.85V196.007C25.2696 195.677 25.3123 195.384 25.3976 195.128C25.4886 194.867 25.6336 194.625 25.8327 194.403C26.0431 194.176 26.2877 194.005 26.5664 193.891C26.8451 193.778 27.1408 193.726 27.4537 193.738C27.7835 193.732 28.0907 193.795 28.375 193.926C28.6651 194.056 28.9125 194.247 29.1173 194.497L28.5115 195.06ZM27.7693 199.164C27.9229 199.118 28.0565 199.041 28.1703 198.933C28.2897 198.82 28.3836 198.689 28.4518 198.541C28.5144 198.41 28.5457 198.257 28.5457 198.08C28.5457 197.927 28.5229 197.79 28.4774 197.671C28.4205 197.523 28.3381 197.392 28.23 197.278C28.1276 197.159 28.0082 197.068 27.8717 197.005C27.7067 196.931 27.5447 196.894 27.3854 196.894C27.2489 196.894 27.1124 196.92 26.9759 196.971C26.8223 197.022 26.6858 197.102 26.5664 197.21C26.4527 197.318 26.3645 197.443 26.3019 197.585C26.2394 197.716 26.2081 197.873 26.2081 198.055C26.2081 198.208 26.2308 198.345 26.2763 198.464C26.3275 198.606 26.4043 198.734 26.5067 198.848C26.6091 198.962 26.7257 199.047 26.8565 199.104C27.0214 199.189 27.1949 199.232 27.3769 199.232C27.502 199.232 27.6328 199.209 27.7693 199.164Z" fill="#7D7D7D"></path><path d="M33.0778 199.949C32.8048 200.062 32.509 200.119 32.1905 200.119C31.8777 200.119 31.582 200.062 31.3033 199.949C31.0246 199.829 30.7886 199.659 30.5952 199.437C30.4075 199.215 30.2738 198.987 30.1942 198.754C30.1203 198.515 30.0833 198.237 30.0833 197.918V195.93C30.0833 195.612 30.1203 195.333 30.1942 195.094C30.2738 194.855 30.4103 194.622 30.6037 194.395C30.7971 194.179 31.0331 194.014 31.3118 193.9C31.5962 193.786 31.9005 193.729 32.2247 193.729C32.5204 193.729 32.802 193.786 33.0693 193.9C33.3423 194.014 33.5755 194.179 33.7688 194.395C33.9622 194.611 34.0987 194.841 34.1783 195.086C34.258 195.325 34.2978 195.606 34.2978 195.93V197.918C34.2978 198.231 34.258 198.51 34.1783 198.754C34.1044 198.999 33.9736 199.226 33.7859 199.437C33.5925 199.659 33.3565 199.829 33.0778 199.949ZM32.8048 194.676C32.6114 194.568 32.4067 194.514 32.1905 194.514C31.9744 194.514 31.7697 194.568 31.5763 194.676C31.3886 194.784 31.2379 194.929 31.1241 195.111C31.0502 195.219 30.999 195.339 30.9706 195.47C30.9421 195.601 30.9279 195.754 30.9279 195.93V197.918C30.9279 198.089 30.9421 198.242 30.9706 198.379C30.999 198.515 31.053 198.643 31.1327 198.763C31.2521 198.939 31.4028 199.081 31.5848 199.189C31.7725 199.292 31.9744 199.34 32.1905 199.334C32.4067 199.34 32.6086 199.292 32.7963 199.189C32.984 199.081 33.1375 198.936 33.257 198.754C33.3309 198.64 33.3821 198.521 33.4105 198.396C33.439 198.265 33.4532 198.106 33.4532 197.918V195.93C33.4532 195.754 33.439 195.606 33.4105 195.487C33.3878 195.362 33.3394 195.237 33.2655 195.111C33.1517 194.929 32.9982 194.784 32.8048 194.676Z" fill="#7D7D7D"></path><path d="M42.5809 195.734C42.7913 195.91 42.9307 196.118 42.9989 196.357C43.0729 196.596 43.1098 196.894 43.1098 197.253L43.1013 200H42.2738L42.2823 197.253C42.2823 197.025 42.2596 196.849 42.2141 196.724C42.1742 196.593 42.0889 196.468 41.9581 196.348C41.8785 196.269 41.7818 196.206 41.6681 196.161C41.5543 196.115 41.4405 196.092 41.3268 196.092C41.1789 196.092 41.0396 196.124 40.9088 196.186C40.778 196.243 40.667 196.326 40.576 196.434C40.485 196.542 40.4225 196.656 40.3884 196.775C40.3599 196.889 40.3457 197.022 40.3457 197.176V200H39.5182V197.253C39.5182 197.025 39.4983 196.849 39.4584 196.724C39.4186 196.593 39.3333 196.468 39.2025 196.348C39.0205 196.178 38.8072 196.092 38.5627 196.092C38.4148 196.092 38.2754 196.124 38.1446 196.186C38.0195 196.243 37.9114 196.326 37.8204 196.434C37.7238 196.542 37.6583 196.656 37.6242 196.775C37.5958 196.889 37.5816 197.022 37.5816 197.176V200H36.754V195.393H37.4877V195.982C37.6413 195.788 37.8318 195.637 38.0593 195.529C38.2925 195.416 38.5371 195.359 38.793 195.359C38.975 195.359 39.1542 195.393 39.3305 195.461C39.5125 195.524 39.6746 195.615 39.8168 195.734C39.9476 195.842 40.0585 195.973 40.1495 196.127L40.1751 196.075C40.323 195.854 40.5192 195.68 40.7637 195.555C41.014 195.424 41.2756 195.359 41.5486 195.359C41.7306 195.359 41.9126 195.393 42.0946 195.461C42.2766 195.524 42.4387 195.615 42.5809 195.734Z" fill="#7D7D7D"></path><path d="M44.8853 193.815V194.642H44.0578V193.815H44.8853ZM44.8853 195.393V200H44.0578V195.393H44.8853Z" fill="#7D7D7D"></path><path d="M46.8277 200H46.0001V193.729H46.8277V200Z" fill="#7D7D7D"></path><path d="M48.6874 200H47.8598V193.729H48.6874V200Z" fill="#7D7D7D"></path><path d="M50.6324 193.815V194.642H49.8049V193.815H50.6324ZM50.6324 195.393V200H49.8049V195.393H50.6324Z" fill="#7D7D7D"></path><path d="M53.7265 200.128C53.3852 200.128 53.0667 200.062 52.771 199.932C52.4752 199.801 52.2278 199.613 52.0288 199.368C51.6704 198.925 51.4913 198.368 51.4913 197.696C51.4913 197.025 51.6704 196.465 52.0288 196.016C52.2221 195.777 52.4695 195.592 52.771 195.461C53.0724 195.33 53.3909 195.265 53.7265 195.265C54.0677 195.265 54.3862 195.33 54.682 195.461C54.9834 195.586 55.2337 195.771 55.4327 196.016C55.7911 196.465 55.9702 197.025 55.9702 197.696C55.9702 198.356 55.7911 198.913 55.4327 199.368C55.228 199.619 54.9777 199.809 54.682 199.94C54.3919 200.065 54.0734 200.128 53.7265 200.128ZM54.7758 198.865C54.9863 198.586 55.0915 198.197 55.0915 197.696C55.0915 197.19 54.9863 196.798 54.7758 196.519C54.6621 196.365 54.5114 196.249 54.3237 196.169C54.1417 196.09 53.9426 196.05 53.7265 196.05C53.5104 196.05 53.3113 196.09 53.1293 196.169C52.9473 196.249 52.7994 196.365 52.6857 196.519C52.4752 196.798 52.37 197.19 52.37 197.696C52.37 198.197 52.4752 198.586 52.6857 198.865C52.7994 199.019 52.9473 199.138 53.1293 199.223C53.3113 199.303 53.5104 199.343 53.7265 199.343C53.9426 199.343 54.1417 199.303 54.3237 199.223C54.5057 199.138 54.6564 199.019 54.7758 198.865Z" fill="#7D7D7D"></path><path d="M60.1291 195.7C60.4135 195.928 60.604 196.203 60.7007 196.528C60.7974 196.852 60.8429 197.25 60.8372 197.722V200H60.0011V197.722C60.0011 197.392 59.9699 197.113 59.9073 196.886C59.8447 196.653 59.7253 196.465 59.549 196.323C59.3329 196.147 59.057 196.064 58.7214 196.075C58.4428 196.092 58.2096 196.178 58.0219 196.331C57.8114 196.502 57.6806 196.741 57.6294 197.048C57.601 197.167 57.5839 197.31 57.5783 197.475C57.5726 197.639 57.5697 197.807 57.5697 197.978V200H56.7422V195.393H57.4759V195.854C57.4759 195.854 57.5072 195.822 57.5697 195.76C57.746 195.601 57.9508 195.481 58.184 195.401C58.4228 195.322 58.6646 195.282 58.9091 195.282C59.1309 195.282 59.3471 195.319 59.5575 195.393C59.7736 195.461 59.9642 195.564 60.1291 195.7Z" fill="#7D7D7D"></path><path d="M24.0013 150.304C24.3311 150.605 24.4961 150.984 24.4961 151.439C24.4961 151.706 24.4307 151.962 24.2999 152.206C24.169 152.451 23.987 152.644 23.7539 152.787C23.5377 152.934 23.259 153.037 22.9178 153.094V153.844H22.0903V153.085C21.84 153.04 21.6125 152.951 21.4077 152.821C21.203 152.69 21.0324 152.525 20.8959 152.326C20.6399 151.979 20.512 151.595 20.512 151.174H21.348C21.348 151.294 21.3679 151.419 21.4077 151.549C21.4532 151.675 21.5158 151.78 21.5954 151.865C21.7035 152.013 21.8343 152.13 21.9879 152.215C22.1414 152.295 22.3092 152.334 22.4912 152.334C22.6448 152.334 22.7955 152.314 22.9434 152.275C23.0969 152.229 23.2278 152.161 23.3358 152.07C23.5292 151.911 23.6259 151.692 23.6259 151.413C23.6259 151.288 23.5974 151.177 23.5406 151.08C23.4894 150.978 23.4041 150.881 23.2846 150.79C23.1766 150.705 23.0571 150.631 22.9263 150.568C22.7955 150.506 22.6277 150.432 22.423 150.347C22.2865 150.295 22.1358 150.23 21.9708 150.15C21.5215 149.957 21.1831 149.718 20.9556 149.434C20.8532 149.309 20.7707 149.161 20.7082 148.99C20.6456 148.814 20.6143 148.635 20.6143 148.453C20.6143 148.219 20.6627 147.992 20.7594 147.77C20.8561 147.548 20.9897 147.361 21.1603 147.207C21.4106 146.98 21.7206 146.832 22.0903 146.763V146.013H22.9178V146.781C23.3273 146.866 23.6628 147.071 23.9245 147.395C24.2202 147.73 24.3709 148.123 24.3766 148.572H23.5064C23.5064 148.328 23.424 148.1 23.259 147.89C23.0429 147.645 22.7841 147.523 22.4827 147.523C22.1813 147.523 21.9338 147.619 21.7405 147.813C21.5698 147.983 21.4845 148.194 21.4845 148.444C21.4845 148.649 21.5414 148.819 21.6552 148.956C21.7291 149.058 21.8372 149.152 21.9793 149.238C22.1272 149.323 22.3121 149.408 22.5339 149.493C22.9775 149.681 23.2932 149.823 23.4808 149.92C23.6685 150.017 23.842 150.145 24.0013 150.304Z" fill="#7D7D7D"></path><path d="M26.3361 151.805C26.4555 151.97 26.6091 152.101 26.7967 152.198C26.9844 152.295 27.1835 152.343 27.3939 152.343C27.6214 152.343 27.8319 152.289 28.0252 152.181C28.2186 152.073 28.3693 151.928 28.4774 151.746C28.648 151.518 28.7333 151.222 28.7333 150.858V150.21C28.5627 150.398 28.358 150.546 28.1191 150.654C27.8802 150.762 27.63 150.816 27.3683 150.816C27.1181 150.816 26.8707 150.77 26.6261 150.679C26.3872 150.583 26.174 150.449 25.9863 150.278C25.5768 149.886 25.372 149.402 25.372 148.828C25.372 148.549 25.4261 148.279 25.5341 148.018C25.6422 147.756 25.7929 147.531 25.9863 147.344C26.174 147.156 26.3958 147.011 26.6517 146.908C26.9077 146.8 27.1693 146.746 27.4366 146.746C27.7323 146.746 28.0139 146.8 28.2812 146.908C28.5485 147.011 28.7788 147.162 28.9722 147.361C29.194 147.582 29.3504 147.827 29.4414 148.094C29.5324 148.362 29.5779 148.669 29.5779 149.016V150.858C29.5779 151.188 29.5324 151.484 29.4414 151.746C29.3561 152.002 29.2111 152.238 29.0063 152.454C28.8016 152.681 28.557 152.852 28.2727 152.966C27.994 153.074 27.6925 153.128 27.3683 153.128C27.0442 153.128 26.7399 153.062 26.4555 152.932C26.1711 152.795 25.9294 152.605 25.7303 152.36L26.3361 151.805ZM27.0783 147.693C26.9247 147.745 26.7882 147.824 26.6688 147.932C26.5493 148.04 26.4583 148.168 26.3958 148.316C26.3332 148.447 26.3019 148.603 26.3019 148.785C26.3019 148.939 26.3247 149.073 26.3702 149.186C26.4214 149.334 26.4982 149.468 26.6005 149.587C26.7086 149.701 26.8337 149.792 26.9759 149.86C27.1295 149.929 27.2944 149.963 27.4707 149.963C27.5958 149.963 27.7267 149.94 27.8632 149.894C28.0167 149.843 28.1532 149.764 28.2727 149.656C28.3921 149.547 28.4831 149.42 28.5457 149.272C28.6082 149.141 28.6395 148.987 28.6395 148.811C28.6395 148.652 28.6168 148.515 28.5713 148.401C28.5201 148.259 28.4433 148.134 28.3409 148.026C28.2385 147.912 28.1219 147.824 27.9911 147.762C27.8319 147.676 27.6556 147.634 27.4622 147.634C27.3257 147.634 27.1977 147.654 27.0783 147.693Z" fill="#7D7D7D"></path><path d="M33.1738 152.949C32.9008 153.062 32.605 153.119 32.2865 153.119C31.9737 153.119 31.678 153.062 31.3993 152.949C31.1206 152.829 30.8845 152.659 30.6912 152.437C30.5035 152.215 30.3698 151.987 30.2902 151.754C30.2163 151.515 30.1793 151.237 30.1793 150.918V148.93C30.1793 148.612 30.2163 148.333 30.2902 148.094C30.3698 147.855 30.5063 147.622 30.6997 147.395C30.8931 147.179 31.1291 147.014 31.4078 146.9C31.6922 146.786 31.9965 146.729 32.3206 146.729C32.6164 146.729 32.8979 146.786 33.1652 146.9C33.4382 147.014 33.6714 147.179 33.8648 147.395C34.0582 147.611 34.1947 147.841 34.2743 148.086C34.3539 148.325 34.3937 148.606 34.3937 148.93V150.918C34.3937 151.231 34.3539 151.51 34.2743 151.754C34.2004 151.999 34.0696 152.226 33.8819 152.437C33.6885 152.659 33.4525 152.829 33.1738 152.949ZM32.9008 147.676C32.7074 147.568 32.5026 147.514 32.2865 147.514C32.0704 147.514 31.8656 147.568 31.6723 147.676C31.4846 147.784 31.3339 147.929 31.2201 148.111C31.1462 148.219 31.095 148.339 31.0665 148.47C31.0381 148.601 31.0239 148.754 31.0239 148.93V150.918C31.0239 151.089 31.0381 151.242 31.0665 151.379C31.095 151.515 31.149 151.643 31.2286 151.763C31.3481 151.939 31.4988 152.081 31.6808 152.189C31.8685 152.292 32.0704 152.34 32.2865 152.334C32.5026 152.34 32.7046 152.292 32.8922 152.189C33.0799 152.081 33.2335 151.936 33.3529 151.754C33.4269 151.64 33.4781 151.521 33.5065 151.396C33.5349 151.265 33.5491 151.106 33.5491 150.918V148.93C33.5491 148.754 33.5349 148.606 33.5065 148.487C33.4837 148.362 33.4354 148.237 33.3615 148.111C33.2477 147.929 33.0941 147.784 32.9008 147.676Z" fill="#7D7D7D"></path><path d="M42.6769 148.734C42.8873 148.91 43.0267 149.118 43.0949 149.357C43.1688 149.596 43.2058 149.894 43.2058 150.253L43.1973 153H42.3697L42.3783 150.253C42.3783 150.025 42.3555 149.849 42.31 149.724C42.2702 149.593 42.1849 149.468 42.0541 149.348C41.9745 149.269 41.8778 149.206 41.764 149.161C41.6503 149.115 41.5365 149.092 41.4228 149.092C41.2749 149.092 41.1356 149.124 41.0047 149.186C40.8739 149.243 40.763 149.326 40.672 149.434C40.581 149.542 40.5185 149.656 40.4843 149.775C40.4559 149.889 40.4417 150.022 40.4417 150.176V153H39.6141V150.253C39.6141 150.025 39.5942 149.849 39.5544 149.724C39.5146 149.593 39.4293 149.468 39.2985 149.348C39.1165 149.178 38.9032 149.092 38.6586 149.092C38.5108 149.092 38.3714 149.124 38.2406 149.186C38.1155 149.243 38.0074 149.326 37.9164 149.434C37.8197 149.542 37.7543 149.656 37.7202 149.775C37.6918 149.889 37.6775 150.022 37.6775 150.176V153H36.85V148.393H37.5837V148.982C37.7373 148.788 37.9278 148.637 38.1553 148.529C38.3885 148.416 38.633 148.359 38.889 148.359C39.071 148.359 39.2501 148.393 39.4265 148.461C39.6085 148.524 39.7705 148.615 39.9127 148.734C40.0436 148.842 40.1545 148.973 40.2455 149.127L40.2711 149.075C40.4189 148.854 40.6151 148.68 40.8597 148.555C41.11 148.424 41.3716 148.359 41.6446 148.359C41.8266 148.359 42.0086 148.393 42.1906 148.461C42.3726 148.524 42.5347 148.615 42.6769 148.734Z" fill="#7D7D7D"></path><path d="M44.9813 146.815V147.642H44.1537V146.815H44.9813ZM44.9813 148.393V153H44.1537V148.393H44.9813Z" fill="#7D7D7D"></path><path d="M46.9236 153H46.0961V146.729H46.9236V153Z" fill="#7D7D7D"></path><path d="M48.7834 153H47.9558V146.729H48.7834V153Z" fill="#7D7D7D"></path><path d="M50.7284 146.815V147.642H49.9008V146.815H50.7284ZM50.7284 148.393V153H49.9008V148.393H50.7284Z" fill="#7D7D7D"></path><path d="M53.8225 153.128C53.4812 153.128 53.1627 153.062 52.867 152.932C52.5712 152.801 52.3238 152.613 52.1247 152.368C51.7664 151.925 51.5873 151.367 51.5873 150.696C51.5873 150.025 51.7664 149.465 52.1247 149.016C52.3181 148.777 52.5655 148.592 52.867 148.461C53.1684 148.33 53.4869 148.265 53.8225 148.265C54.1637 148.265 54.4822 148.33 54.778 148.461C55.0794 148.586 55.3297 148.771 55.5287 149.016C55.887 149.465 56.0662 150.025 56.0662 150.696C56.0662 151.356 55.887 151.913 55.5287 152.368C55.324 152.619 55.0737 152.809 54.778 152.94C54.4879 153.065 54.1694 153.128 53.8225 153.128ZM54.8718 151.865C55.0822 151.586 55.1875 151.197 55.1875 150.696C55.1875 150.19 55.0822 149.798 54.8718 149.519C54.7581 149.365 54.6073 149.249 54.4197 149.169C54.2377 149.09 54.0386 149.05 53.8225 149.05C53.6063 149.05 53.4073 149.09 53.2253 149.169C53.0433 149.249 52.8954 149.365 52.7816 149.519C52.5712 149.798 52.466 150.19 52.466 150.696C52.466 151.197 52.5712 151.586 52.7816 151.865C52.8954 152.019 53.0433 152.138 53.2253 152.223C53.4073 152.303 53.6063 152.343 53.8225 152.343C54.0386 152.343 54.2377 152.303 54.4197 152.223C54.6017 152.138 54.7524 152.019 54.8718 151.865Z" fill="#7D7D7D"></path><path d="M60.2251 148.7C60.5095 148.928 60.7 149.203 60.7967 149.528C60.8934 149.852 60.9389 150.25 60.9332 150.722V153H60.0971V150.722C60.0971 150.392 60.0658 150.113 60.0033 149.886C59.9407 149.653 59.8213 149.465 59.645 149.323C59.4288 149.147 59.153 149.064 58.8174 149.075C58.5387 149.092 58.3055 149.178 58.1179 149.331C57.9074 149.502 57.7766 149.741 57.7254 150.048C57.697 150.167 57.6799 150.31 57.6742 150.475C57.6685 150.639 57.6657 150.807 57.6657 150.978V153H56.8382V148.393H57.5719V148.854C57.5719 148.854 57.6031 148.822 57.6657 148.76C57.842 148.601 58.0468 148.481 58.2799 148.401C58.5188 148.322 58.7605 148.282 59.0051 148.282C59.2269 148.282 59.443 148.319 59.6535 148.393C59.8696 148.461 60.0601 148.564 60.2251 148.7Z" fill="#7D7D7D"></path><path d="M24.0013 103.304C24.3311 103.605 24.4961 103.984 24.4961 104.439C24.4961 104.706 24.4307 104.962 24.2999 105.206C24.169 105.451 23.987 105.644 23.7539 105.787C23.5377 105.934 23.259 106.037 22.9178 106.094V106.844H22.0903V106.085C21.84 106.04 21.6125 105.951 21.4077 105.821C21.203 105.69 21.0324 105.525 20.8959 105.326C20.6399 104.979 20.512 104.595 20.512 104.174H21.348C21.348 104.294 21.3679 104.419 21.4077 104.549C21.4532 104.675 21.5158 104.78 21.5954 104.865C21.7035 105.013 21.8343 105.13 21.9879 105.215C22.1414 105.295 22.3092 105.334 22.4912 105.334C22.6448 105.334 22.7955 105.314 22.9434 105.275C23.0969 105.229 23.2278 105.161 23.3358 105.07C23.5292 104.911 23.6259 104.692 23.6259 104.413C23.6259 104.288 23.5974 104.177 23.5406 104.08C23.4894 103.978 23.4041 103.881 23.2846 103.79C23.1766 103.705 23.0571 103.631 22.9263 103.568C22.7955 103.506 22.6277 103.432 22.423 103.347C22.2865 103.295 22.1358 103.23 21.9708 103.15C21.5215 102.957 21.1831 102.718 20.9556 102.434C20.8532 102.309 20.7707 102.161 20.7082 101.99C20.6456 101.814 20.6143 101.635 20.6143 101.453C20.6143 101.219 20.6627 100.992 20.7594 100.77C20.8561 100.548 20.9897 100.361 21.1603 100.207C21.4106 99.9796 21.7206 99.8317 22.0903 99.7634V99.0127H22.9178V99.7805C23.3273 99.8658 23.6628 100.071 23.9245 100.395C24.2202 100.73 24.3709 101.123 24.3766 101.572H23.5064C23.5064 101.328 23.424 101.1 23.259 100.89C23.0429 100.645 22.7841 100.523 22.4827 100.523C22.1813 100.523 21.9338 100.619 21.7405 100.813C21.5698 100.983 21.4845 101.194 21.4845 101.444C21.4845 101.649 21.5414 101.819 21.6552 101.956C21.7291 102.058 21.8372 102.152 21.9793 102.238C22.1272 102.323 22.3121 102.408 22.5339 102.493C22.9775 102.681 23.2932 102.823 23.4808 102.92C23.6685 103.017 23.842 103.145 24.0013 103.304Z" fill="#7D7D7D"></path><path d="M27.1124 99.8573V106H26.2678V100.77L25.1161 101.47V100.548L26.2678 99.8573H27.1124Z" fill="#7D7D7D"></path><path d="M28.3552 101.649C28.3495 101.376 28.4035 101.114 28.5173 100.864C28.631 100.608 28.7874 100.389 28.9865 100.207C29.1685 100.048 29.379 99.9284 29.6178 99.8488C29.8567 99.7691 30.1041 99.7293 30.36 99.7293C30.6444 99.7293 30.9089 99.7805 31.1535 99.8829C31.398 99.9796 31.6056 100.127 31.7762 100.327C31.9469 100.503 32.0777 100.708 32.1687 100.941C32.2597 101.168 32.3052 101.407 32.3052 101.657C32.3052 101.993 32.2312 102.289 32.0834 102.545C31.9412 102.801 31.7051 103.085 31.3753 103.398L29.5922 105.206H32.2455V105.991H28.3211V105.206L30.9061 102.698C31.2701 102.351 31.4521 102.001 31.4521 101.649C31.4521 101.507 31.4265 101.367 31.3753 101.231C31.3241 101.094 31.2501 100.975 31.1535 100.873C30.9316 100.634 30.653 100.514 30.3174 100.514C30.1752 100.514 30.0387 100.543 29.9079 100.6C29.7771 100.651 29.6605 100.725 29.5581 100.821C29.4444 100.924 29.3562 101.049 29.2936 101.197C29.2311 101.339 29.1998 101.49 29.1998 101.649H28.3552Z" fill="#7D7D7D"></path><path d="M35.9133 105.949C35.6403 106.062 35.3445 106.119 35.026 106.119C34.7132 106.119 34.4175 106.062 34.1388 105.949C33.8601 105.829 33.624 105.659 33.4307 105.437C33.243 105.215 33.1093 104.987 33.0297 104.754C32.9558 104.515 32.9188 104.237 32.9188 103.918V101.93C32.9188 101.612 32.9558 101.333 33.0297 101.094C33.1093 100.855 33.2458 100.622 33.4392 100.395C33.6326 100.179 33.8686 100.014 34.1473 99.8999C34.4317 99.7862 34.736 99.7293 35.0601 99.7293C35.3559 99.7293 35.6374 99.7862 35.9047 99.8999C36.1777 100.014 36.4109 100.179 36.6043 100.395C36.7977 100.611 36.9342 100.841 37.0138 101.086C37.0934 101.325 37.1332 101.606 37.1332 101.93V103.918C37.1332 104.231 37.0934 104.51 37.0138 104.754C36.9399 104.999 36.8091 105.226 36.6214 105.437C36.428 105.659 36.192 105.829 35.9133 105.949ZM35.6403 100.676C35.4469 100.568 35.2421 100.514 35.026 100.514C34.8099 100.514 34.6051 100.568 34.4118 100.676C34.2241 100.784 34.0734 100.929 33.9596 101.111C33.8857 101.219 33.8345 101.339 33.806 101.47C33.7776 101.601 33.7634 101.754 33.7634 101.93V103.918C33.7634 104.089 33.7776 104.242 33.806 104.379C33.8345 104.515 33.8885 104.643 33.9681 104.763C34.0876 104.939 34.2383 105.081 34.4203 105.189C34.608 105.292 34.8099 105.34 35.026 105.334C35.2421 105.34 35.4441 105.292 35.6317 105.189C35.8194 105.081 35.973 104.936 36.0924 104.754C36.1664 104.64 36.2176 104.521 36.246 104.396C36.2744 104.265 36.2887 104.106 36.2887 103.918V101.93C36.2887 101.754 36.2744 101.606 36.246 101.487C36.2232 101.362 36.1749 101.237 36.101 101.111C35.9872 100.929 35.8336 100.784 35.6403 100.676Z" fill="#7D7D7D"></path><path d="M45.4164 101.734C45.6268 101.91 45.7662 102.118 45.8344 102.357C45.9083 102.596 45.9453 102.894 45.9453 103.253L45.9368 106H45.1092L45.1178 103.253C45.1178 103.025 45.095 102.849 45.0495 102.724C45.0097 102.593 44.9244 102.468 44.7936 102.348C44.714 102.269 44.6173 102.206 44.5035 102.161C44.3898 102.115 44.276 102.092 44.1623 102.092C44.0144 102.092 43.8751 102.124 43.7442 102.186C43.6134 102.243 43.5025 102.326 43.4115 102.434C43.3205 102.542 43.258 102.656 43.2238 102.775C43.1954 102.889 43.1812 103.022 43.1812 103.176V106H42.3536V103.253C42.3536 103.025 42.3337 102.849 42.2939 102.724C42.2541 102.593 42.1688 102.468 42.038 102.348C41.856 102.178 41.6427 102.092 41.3981 102.092C41.2503 102.092 41.1109 102.124 40.9801 102.186C40.855 102.243 40.7469 102.326 40.6559 102.434C40.5592 102.542 40.4938 102.656 40.4597 102.775C40.4313 102.889 40.417 103.022 40.417 103.176V106H39.5895V101.393H40.3232V101.982C40.4768 101.788 40.6673 101.637 40.8948 101.529C41.128 101.416 41.3725 101.359 41.6285 101.359C41.8105 101.359 41.9896 101.393 42.166 101.461C42.348 101.524 42.51 101.615 42.6522 101.734C42.7831 101.842 42.894 101.973 42.985 102.127L43.0106 102.075C43.1584 101.854 43.3546 101.68 43.5992 101.555C43.8495 101.424 44.1111 101.359 44.3841 101.359C44.5661 101.359 44.7481 101.393 44.9301 101.461C45.1121 101.524 45.2742 101.615 45.4164 101.734Z" fill="#7D7D7D"></path><path d="M47.7208 99.8146V100.642H46.8932V99.8146H47.7208ZM47.7208 101.393V106H46.8932V101.393H47.7208Z" fill="#7D7D7D"></path><path d="M49.6631 106H48.8356V99.7293H49.6631V106Z" fill="#7D7D7D"></path><path d="M51.5229 106H50.6953V99.7293H51.5229V106Z" fill="#7D7D7D"></path><path d="M53.4679 99.8146V100.642H52.6403V99.8146H53.4679ZM53.4679 101.393V106H52.6403V101.393H53.4679Z" fill="#7D7D7D"></path><path d="M56.562 106.128C56.2207 106.128 55.9022 106.062 55.6065 105.932C55.3107 105.801 55.0633 105.613 54.8642 105.369C54.5059 104.925 54.3268 104.367 54.3268 103.696C54.3268 103.025 54.5059 102.465 54.8642 102.016C55.0576 101.777 55.305 101.592 55.6065 101.461C55.9079 101.33 56.2264 101.265 56.562 101.265C56.9032 101.265 57.2217 101.33 57.5175 101.461C57.8189 101.586 58.0692 101.771 58.2682 102.016C58.6265 102.465 58.8057 103.025 58.8057 103.696C58.8057 104.356 58.6265 104.913 58.2682 105.369C58.0635 105.619 57.8132 105.809 57.5175 105.94C57.2274 106.065 56.9089 106.128 56.562 106.128ZM57.6113 104.865C57.8217 104.586 57.927 104.197 57.927 103.696C57.927 103.19 57.8217 102.798 57.6113 102.519C57.4976 102.365 57.3468 102.249 57.1591 102.169C56.9771 102.09 56.7781 102.05 56.562 102.05C56.3458 102.05 56.1468 102.09 55.9648 102.169C55.7828 102.249 55.6349 102.365 55.5211 102.519C55.3107 102.798 55.2055 103.19 55.2055 103.696C55.2055 104.197 55.3107 104.586 55.5211 104.865C55.6349 105.019 55.7828 105.138 55.9648 105.223C56.1468 105.303 56.3458 105.343 56.562 105.343C56.7781 105.343 56.9771 105.303 57.1591 105.223C57.3411 105.138 57.4919 105.019 57.6113 104.865Z" fill="#7D7D7D"></path><path d="M62.9646 101.7C63.249 101.928 63.4395 102.203 63.5362 102.528C63.6329 102.852 63.6784 103.25 63.6727 103.722V106H62.8366V103.722C62.8366 103.392 62.8053 103.113 62.7428 102.886C62.6802 102.653 62.5608 102.465 62.3845 102.323C62.1683 102.147 61.8925 102.064 61.5569 102.075C61.2782 102.092 61.045 102.178 60.8574 102.331C60.6469 102.502 60.5161 102.741 60.4649 103.048C60.4365 103.167 60.4194 103.31 60.4137 103.475C60.408 103.639 60.4052 103.807 60.4052 103.978V106H59.5777V101.393H60.3114V101.854C60.3114 101.854 60.3426 101.822 60.4052 101.76C60.5815 101.601 60.7863 101.481 61.0195 101.401C61.2583 101.322 61.5 101.282 61.7446 101.282C61.9664 101.282 62.1825 101.319 62.393 101.393C62.6091 101.461 62.7996 101.564 62.9646 101.7Z" fill="#7D7D7D"></path></svg> 