<svg width="716" height="336" viewBox="0 0 716 336" fill="none" xmlns="http://www.w3.org/2000/svg">
<path d="M63.187 290.458C63.187 290.698 63.193 290.968 63.205 291.268C63.223 291.562 63.271 291.841 63.349 292.105C63.433 292.363 63.565 292.582 63.745 292.762C63.925 292.942 64.177 293.032 64.501 293.032C64.825 293.032 65.077 292.942 65.257 292.762C65.437 292.582 65.566 292.363 65.644 292.105C65.728 291.841 65.776 291.562 65.788 291.268C65.806 290.968 65.815 290.698 65.815 290.458C65.815 290.302 65.812 290.131 65.806 289.945C65.806 289.753 65.791 289.564 65.761 289.378C65.737 289.186 65.698 289 65.644 288.82C65.596 288.64 65.521 288.484 65.419 288.352C65.323 288.214 65.2 288.103 65.05 288.019C64.9 287.935 64.717 287.893 64.501 287.893C64.285 287.893 64.102 287.935 63.952 288.019C63.802 288.103 63.676 288.214 63.574 288.352C63.478 288.484 63.403 288.64 63.349 288.82C63.301 289 63.262 289.186 63.232 289.378C63.208 289.564 63.193 289.753 63.187 289.945C63.187 290.131 63.187 290.302 63.187 290.458ZM62.377 290.467C62.377 290.233 62.383 289.99 62.395 289.738C62.407 289.486 62.437 289.24 62.485 289C62.533 288.76 62.602 288.532 62.692 288.316C62.782 288.1 62.905 287.911 63.061 287.749C63.217 287.587 63.412 287.458 63.646 287.362C63.886 287.266 64.171 287.218 64.501 287.218C64.831 287.218 65.113 287.266 65.347 287.362C65.587 287.458 65.785 287.587 65.941 287.749C66.097 287.911 66.22 288.1 66.31 288.316C66.4 288.532 66.469 288.76 66.517 289C66.565 289.24 66.595 289.486 66.607 289.738C66.619 289.99 66.625 290.233 66.625 290.467C66.625 290.701 66.619 290.944 66.607 291.196C66.595 291.448 66.565 291.694 66.517 291.934C66.469 292.174 66.4 292.402 66.31 292.618C66.22 292.828 66.097 293.014 65.941 293.176C65.785 293.338 65.59 293.467 65.356 293.563C65.122 293.653 64.837 293.698 64.501 293.698C64.171 293.698 63.886 293.653 63.646 293.563C63.412 293.467 63.217 293.338 63.061 293.176C62.905 293.014 62.782 292.828 62.692 292.618C62.602 292.402 62.533 292.174 62.485 291.934C62.437 291.694 62.407 291.448 62.395 291.196C62.383 290.944 62.377 290.701 62.377 290.467Z" fill="white" fill-opacity="0.49"/>
<path d="M75 290.599H696" stroke="white" stroke-opacity="0.49"/>
<path d="M102.549 307.007C102.711 306.869 102.888 306.719 103.08 306.557C103.278 306.389 103.461 306.209 103.629 306.017C103.803 305.825 103.95 305.624 104.07 305.414C104.19 305.198 104.253 304.964 104.259 304.712C104.271 304.328 104.16 304.034 103.926 303.83C103.692 303.62 103.383 303.515 102.999 303.515C102.693 303.515 102.426 303.578 102.198 303.704C101.97 303.83 101.82 304.013 101.748 304.253H100.911C100.953 304.007 101.04 303.794 101.172 303.614C101.31 303.428 101.475 303.275 101.667 303.155C101.865 303.035 102.081 302.945 102.315 302.885C102.549 302.825 102.789 302.795 103.035 302.795C103.329 302.795 103.599 302.837 103.845 302.921C104.091 302.999 104.304 303.116 104.484 303.272C104.664 303.428 104.802 303.623 104.898 303.857C105 304.085 105.051 304.346 105.051 304.64C105.051 304.934 105.006 305.198 104.916 305.432C104.832 305.666 104.715 305.882 104.565 306.08C104.421 306.278 104.256 306.464 104.07 306.638C103.884 306.812 103.692 306.986 103.494 307.16L101.883 308.519H105.123V309.23H100.749V308.582L102.549 307.007ZM111.058 306.053C111.058 306.461 111.016 306.86 110.932 307.25C110.854 307.64 110.719 307.988 110.527 308.294C110.335 308.594 110.08 308.837 109.762 309.023C109.444 309.209 109.048 309.302 108.574 309.302C108.094 309.302 107.695 309.209 107.377 309.023C107.059 308.837 106.804 308.594 106.612 308.294C106.42 307.988 106.285 307.646 106.207 307.268C106.129 306.89 106.09 306.485 106.09 306.053C106.09 305.621 106.129 305.216 106.207 304.838C106.285 304.454 106.42 304.112 106.612 303.812C106.804 303.512 107.059 303.269 107.377 303.083C107.695 302.891 108.094 302.795 108.574 302.795C109.048 302.795 109.444 302.888 109.762 303.074C110.08 303.26 110.335 303.506 110.527 303.812C110.719 304.118 110.854 304.466 110.932 304.856C111.016 305.246 111.058 305.645 111.058 306.053ZM106.891 306.053C106.891 306.341 106.912 306.635 106.954 306.935C106.996 307.235 107.077 307.508 107.197 307.754C107.317 308 107.485 308.201 107.701 308.357C107.923 308.513 108.214 308.591 108.574 308.591C108.928 308.591 109.213 308.513 109.429 308.357C109.651 308.201 109.822 308 109.942 307.754C110.062 307.508 110.143 307.235 110.185 306.935C110.227 306.635 110.248 306.341 110.248 306.053C110.248 305.771 110.227 305.48 110.185 305.18C110.143 304.88 110.062 304.607 109.942 304.361C109.822 304.109 109.651 303.905 109.429 303.749C109.213 303.587 108.928 303.506 108.574 303.506C108.214 303.506 107.923 303.587 107.701 303.749C107.485 303.905 107.317 304.109 107.197 304.361C107.077 304.607 106.996 304.88 106.954 305.18C106.912 305.48 106.891 305.771 106.891 306.053ZM113.867 309.23H113.084V304.127H111.788V303.596C111.968 303.584 112.133 303.569 112.283 303.551C112.433 303.527 112.571 303.488 112.697 303.434C112.823 303.38 112.937 303.308 113.039 303.218C113.141 303.128 113.234 303.011 113.318 302.867H113.867V309.23ZM117.451 309.302C117.199 309.302 116.944 309.278 116.686 309.23C116.434 309.182 116.197 309.101 115.975 308.987C115.759 308.867 115.573 308.711 115.417 308.519C115.267 308.327 115.171 308.09 115.129 307.808H115.939C115.993 307.964 116.074 308.093 116.182 308.195C116.296 308.291 116.422 308.369 116.56 308.429C116.704 308.489 116.854 308.531 117.01 308.555C117.166 308.579 117.316 308.591 117.46 308.591C117.592 308.591 117.742 308.579 117.91 308.555C118.078 308.531 118.234 308.48 118.378 308.402C118.528 308.324 118.651 308.21 118.747 308.06C118.849 307.904 118.9 307.7 118.9 307.448C118.9 307.208 118.852 307.016 118.756 306.872C118.666 306.728 118.546 306.617 118.396 306.539C118.252 306.461 118.087 306.41 117.901 306.386C117.721 306.362 117.538 306.35 117.352 306.35H116.74V305.648H117.109C117.271 305.648 117.421 305.645 117.559 305.639C117.697 305.627 117.85 305.585 118.018 305.513C118.21 305.423 118.363 305.297 118.477 305.135C118.591 304.967 118.651 304.775 118.657 304.559C118.657 304.343 118.621 304.166 118.549 304.028C118.477 303.89 118.381 303.782 118.261 303.704C118.141 303.626 118.006 303.575 117.856 303.551C117.706 303.521 117.553 303.506 117.397 303.506C117.271 303.506 117.139 303.521 117.001 303.551C116.869 303.575 116.743 303.617 116.623 303.677C116.509 303.737 116.407 303.818 116.317 303.92C116.227 304.016 116.164 304.133 116.128 304.271H115.345C115.381 304.007 115.465 303.782 115.597 303.596C115.729 303.41 115.891 303.257 116.083 303.137C116.281 303.017 116.497 302.93 116.731 302.876C116.971 302.822 117.214 302.795 117.46 302.795C117.73 302.795 117.982 302.825 118.216 302.885C118.456 302.939 118.666 303.032 118.846 303.164C119.026 303.29 119.167 303.458 119.269 303.668C119.377 303.878 119.431 304.133 119.431 304.433C119.431 304.547 119.419 304.67 119.395 304.802C119.371 304.928 119.326 305.054 119.26 305.18C119.194 305.306 119.098 305.432 118.972 305.558C118.846 305.684 118.681 305.789 118.477 305.873C118.879 305.951 119.185 306.128 119.395 306.404C119.605 306.674 119.71 307.001 119.71 307.385V307.421C119.71 307.751 119.65 308.036 119.53 308.276C119.416 308.51 119.257 308.705 119.053 308.861C118.849 309.011 118.609 309.122 118.333 309.194C118.057 309.266 117.763 309.302 117.451 309.302Z" fill="white" fill-opacity="0.49"/>
<path d="M204.322 307.007C204.484 306.869 204.661 306.719 204.853 306.557C205.051 306.389 205.234 306.209 205.402 306.017C205.576 305.825 205.723 305.624 205.843 305.414C205.963 305.198 206.026 304.964 206.032 304.712C206.044 304.328 205.933 304.034 205.699 303.83C205.465 303.62 205.156 303.515 204.772 303.515C204.466 303.515 204.199 303.578 203.971 303.704C203.743 303.83 203.593 304.013 203.521 304.253H202.684C202.726 304.007 202.813 303.794 202.945 303.614C203.083 303.428 203.248 303.275 203.44 303.155C203.638 303.035 203.854 302.945 204.088 302.885C204.322 302.825 204.562 302.795 204.808 302.795C205.102 302.795 205.372 302.837 205.618 302.921C205.864 302.999 206.077 303.116 206.257 303.272C206.437 303.428 206.575 303.623 206.671 303.857C206.773 304.085 206.824 304.346 206.824 304.64C206.824 304.934 206.779 305.198 206.689 305.432C206.605 305.666 206.488 305.882 206.338 306.08C206.194 306.278 206.029 306.464 205.843 306.638C205.657 306.812 205.465 306.986 205.267 307.16L203.656 308.519H206.896V309.23H202.522V308.582L204.322 307.007ZM212.831 306.053C212.831 306.461 212.789 306.86 212.705 307.25C212.627 307.64 212.492 307.988 212.3 308.294C212.108 308.594 211.853 308.837 211.535 309.023C211.217 309.209 210.821 309.302 210.347 309.302C209.867 309.302 209.468 309.209 209.15 309.023C208.832 308.837 208.577 308.594 208.385 308.294C208.193 307.988 208.058 307.646 207.98 307.268C207.902 306.89 207.863 306.485 207.863 306.053C207.863 305.621 207.902 305.216 207.98 304.838C208.058 304.454 208.193 304.112 208.385 303.812C208.577 303.512 208.832 303.269 209.15 303.083C209.468 302.891 209.867 302.795 210.347 302.795C210.821 302.795 211.217 302.888 211.535 303.074C211.853 303.26 212.108 303.506 212.3 303.812C212.492 304.118 212.627 304.466 212.705 304.856C212.789 305.246 212.831 305.645 212.831 306.053ZM208.664 306.053C208.664 306.341 208.685 306.635 208.727 306.935C208.769 307.235 208.85 307.508 208.97 307.754C209.09 308 209.258 308.201 209.474 308.357C209.696 308.513 209.987 308.591 210.347 308.591C210.701 308.591 210.986 308.513 211.202 308.357C211.424 308.201 211.595 308 211.715 307.754C211.835 307.508 211.916 307.235 211.958 306.935C212 306.635 212.021 306.341 212.021 306.053C212.021 305.771 212 305.48 211.958 305.18C211.916 304.88 211.835 304.607 211.715 304.361C211.595 304.109 211.424 303.905 211.202 303.749C210.986 303.587 210.701 303.506 210.347 303.506C209.987 303.506 209.696 303.587 209.474 303.749C209.258 303.905 209.09 304.109 208.97 304.361C208.85 304.607 208.769 304.88 208.727 305.18C208.685 305.48 208.664 305.771 208.664 306.053ZM215.639 309.23H214.856V304.127H213.56V303.596C213.74 303.584 213.905 303.569 214.055 303.551C214.205 303.527 214.343 303.488 214.469 303.434C214.595 303.38 214.709 303.308 214.811 303.218C214.913 303.128 215.006 303.011 215.09 302.867H215.639V309.23ZM217.343 306.368L217.631 302.867H221.438V303.587H218.333L218.153 305.585C218.315 305.453 218.513 305.348 218.747 305.27C218.981 305.186 219.269 305.144 219.611 305.144C219.917 305.144 220.196 305.192 220.448 305.288C220.7 305.384 220.916 305.522 221.096 305.702C221.276 305.876 221.414 306.089 221.51 306.341C221.612 306.593 221.663 306.872 221.663 307.178C221.663 307.514 221.603 307.814 221.483 308.078C221.369 308.336 221.21 308.558 221.006 308.744C220.802 308.93 220.559 309.071 220.277 309.167C220.001 309.263 219.701 309.311 219.377 309.311C219.113 309.311 218.858 309.281 218.612 309.221C218.372 309.161 218.153 309.071 217.955 308.951C217.757 308.825 217.589 308.666 217.451 308.474C217.313 308.282 217.217 308.054 217.163 307.79H217.955C218.003 307.916 218.075 308.03 218.171 308.132C218.267 308.228 218.375 308.312 218.495 308.384C218.621 308.45 218.753 308.501 218.891 308.537C219.029 308.573 219.167 308.591 219.305 308.591C219.521 308.591 219.722 308.564 219.908 308.51C220.1 308.456 220.265 308.375 220.403 308.267C220.547 308.153 220.658 308.012 220.736 307.844C220.814 307.67 220.853 307.463 220.853 307.223C220.853 306.785 220.721 306.449 220.457 306.215C220.193 305.981 219.851 305.864 219.431 305.864C219.179 305.864 218.945 305.909 218.729 305.999C218.519 306.089 218.327 306.212 218.153 306.368H217.343Z" fill="white" fill-opacity="0.49"/>
<path d="M306.676 307.007C306.838 306.869 307.015 306.719 307.207 306.557C307.405 306.389 307.588 306.209 307.756 306.017C307.93 305.825 308.077 305.624 308.197 305.414C308.317 305.198 308.38 304.964 308.386 304.712C308.398 304.328 308.287 304.034 308.053 303.83C307.819 303.62 307.51 303.515 307.126 303.515C306.82 303.515 306.553 303.578 306.325 303.704C306.097 303.83 305.947 304.013 305.875 304.253H305.038C305.08 304.007 305.167 303.794 305.299 303.614C305.437 303.428 305.602 303.275 305.794 303.155C305.992 303.035 306.208 302.945 306.442 302.885C306.676 302.825 306.916 302.795 307.162 302.795C307.456 302.795 307.726 302.837 307.972 302.921C308.218 302.999 308.431 303.116 308.611 303.272C308.791 303.428 308.929 303.623 309.025 303.857C309.127 304.085 309.178 304.346 309.178 304.64C309.178 304.934 309.133 305.198 309.043 305.432C308.959 305.666 308.842 305.882 308.692 306.08C308.548 306.278 308.383 306.464 308.197 306.638C308.011 306.812 307.819 306.986 307.621 307.16L306.01 308.519H309.25V309.23H304.876V308.582L306.676 307.007ZM315.185 306.053C315.185 306.461 315.143 306.86 315.059 307.25C314.981 307.64 314.846 307.988 314.654 308.294C314.462 308.594 314.207 308.837 313.889 309.023C313.571 309.209 313.175 309.302 312.701 309.302C312.221 309.302 311.822 309.209 311.504 309.023C311.186 308.837 310.931 308.594 310.739 308.294C310.547 307.988 310.412 307.646 310.334 307.268C310.256 306.89 310.217 306.485 310.217 306.053C310.217 305.621 310.256 305.216 310.334 304.838C310.412 304.454 310.547 304.112 310.739 303.812C310.931 303.512 311.186 303.269 311.504 303.083C311.822 302.891 312.221 302.795 312.701 302.795C313.175 302.795 313.571 302.888 313.889 303.074C314.207 303.26 314.462 303.506 314.654 303.812C314.846 304.118 314.981 304.466 315.059 304.856C315.143 305.246 315.185 305.645 315.185 306.053ZM311.018 306.053C311.018 306.341 311.039 306.635 311.081 306.935C311.123 307.235 311.204 307.508 311.324 307.754C311.444 308 311.612 308.201 311.828 308.357C312.05 308.513 312.341 308.591 312.701 308.591C313.055 308.591 313.34 308.513 313.556 308.357C313.778 308.201 313.949 308 314.069 307.754C314.189 307.508 314.27 307.235 314.312 306.935C314.354 306.635 314.375 306.341 314.375 306.053C314.375 305.771 314.354 305.48 314.312 305.18C314.27 304.88 314.189 304.607 314.069 304.361C313.949 304.109 313.778 303.905 313.556 303.749C313.34 303.587 313.055 303.506 312.701 303.506C312.341 303.506 312.05 303.587 311.828 303.749C311.612 303.905 311.444 304.109 311.324 304.361C311.204 304.607 311.123 304.88 311.081 305.18C311.039 305.48 311.018 305.771 311.018 306.053ZM317.993 309.23H317.21V304.127H315.914V303.596C316.094 303.584 316.259 303.569 316.409 303.551C316.559 303.527 316.697 303.488 316.823 303.434C316.949 303.38 317.063 303.308 317.165 303.218C317.267 303.128 317.36 303.011 317.444 302.867H317.993V309.23ZM319.858 309.23L322.432 303.587H319.066V302.867H323.296V303.515L320.722 309.23H319.858Z" fill="white" fill-opacity="0.49"/>
<path d="M408.009 307.007C408.171 306.869 408.348 306.719 408.54 306.557C408.738 306.389 408.921 306.209 409.089 306.017C409.263 305.825 409.41 305.624 409.53 305.414C409.65 305.198 409.713 304.964 409.719 304.712C409.731 304.328 409.62 304.034 409.386 303.83C409.152 303.62 408.843 303.515 408.459 303.515C408.153 303.515 407.886 303.578 407.658 303.704C407.43 303.83 407.28 304.013 407.208 304.253H406.371C406.413 304.007 406.5 303.794 406.632 303.614C406.77 303.428 406.935 303.275 407.127 303.155C407.325 303.035 407.541 302.945 407.775 302.885C408.009 302.825 408.249 302.795 408.495 302.795C408.789 302.795 409.059 302.837 409.305 302.921C409.551 302.999 409.764 303.116 409.944 303.272C410.124 303.428 410.262 303.623 410.358 303.857C410.46 304.085 410.511 304.346 410.511 304.64C410.511 304.934 410.466 305.198 410.376 305.432C410.292 305.666 410.175 305.882 410.025 306.08C409.881 306.278 409.716 306.464 409.53 306.638C409.344 306.812 409.152 306.986 408.954 307.16L407.343 308.519H410.583V309.23H406.209V308.582L408.009 307.007ZM416.518 306.053C416.518 306.461 416.476 306.86 416.392 307.25C416.314 307.64 416.179 307.988 415.987 308.294C415.795 308.594 415.54 308.837 415.222 309.023C414.904 309.209 414.508 309.302 414.034 309.302C413.554 309.302 413.155 309.209 412.837 309.023C412.519 308.837 412.264 308.594 412.072 308.294C411.88 307.988 411.745 307.646 411.667 307.268C411.589 306.89 411.55 306.485 411.55 306.053C411.55 305.621 411.589 305.216 411.667 304.838C411.745 304.454 411.88 304.112 412.072 303.812C412.264 303.512 412.519 303.269 412.837 303.083C413.155 302.891 413.554 302.795 414.034 302.795C414.508 302.795 414.904 302.888 415.222 303.074C415.54 303.26 415.795 303.506 415.987 303.812C416.179 304.118 416.314 304.466 416.392 304.856C416.476 305.246 416.518 305.645 416.518 306.053ZM412.351 306.053C412.351 306.341 412.372 306.635 412.414 306.935C412.456 307.235 412.537 307.508 412.657 307.754C412.777 308 412.945 308.201 413.161 308.357C413.383 308.513 413.674 308.591 414.034 308.591C414.388 308.591 414.673 308.513 414.889 308.357C415.111 308.201 415.282 308 415.402 307.754C415.522 307.508 415.603 307.235 415.645 306.935C415.687 306.635 415.708 306.341 415.708 306.053C415.708 305.771 415.687 305.48 415.645 305.18C415.603 304.88 415.522 304.607 415.402 304.361C415.282 304.109 415.111 303.905 414.889 303.749C414.673 303.587 414.388 303.506 414.034 303.506C413.674 303.506 413.383 303.587 413.161 303.749C412.945 303.905 412.777 304.109 412.657 304.361C412.537 304.607 412.456 304.88 412.414 305.18C412.372 305.48 412.351 305.771 412.351 306.053ZM419.326 309.23H418.543V304.127H417.247V303.596C417.427 303.584 417.592 303.569 417.742 303.551C417.892 303.527 418.03 303.488 418.156 303.434C418.282 303.38 418.396 303.308 418.498 303.218C418.6 303.128 418.693 303.011 418.777 302.867H419.326V309.23ZM424.621 305.945C424.537 306.119 424.429 306.269 424.297 306.395C424.165 306.515 424.018 306.614 423.856 306.692C423.694 306.77 423.523 306.827 423.343 306.863C423.169 306.893 422.992 306.908 422.812 306.908C422.53 306.908 422.266 306.866 422.02 306.782C421.774 306.692 421.558 306.563 421.372 306.395C421.192 306.227 421.048 306.02 420.94 305.774C420.832 305.528 420.778 305.243 420.778 304.919C420.778 304.601 420.832 304.313 420.94 304.055C421.048 303.791 421.198 303.566 421.39 303.38C421.588 303.194 421.819 303.05 422.083 302.948C422.347 302.846 422.65 302.795 422.992 302.795C423.46 302.795 423.847 302.9 424.153 303.11C424.459 303.314 424.702 303.578 424.882 303.902C425.062 304.226 425.188 304.589 425.26 304.991C425.332 305.393 425.368 305.789 425.368 306.179C425.368 306.611 425.317 307.034 425.215 307.448C425.119 307.856 424.96 308.204 424.738 308.492C424.546 308.744 424.294 308.942 423.982 309.086C423.676 309.23 423.307 309.302 422.875 309.302C422.647 309.302 422.422 309.275 422.2 309.221C421.984 309.161 421.786 309.074 421.606 308.96C421.426 308.84 421.27 308.696 421.138 308.528C421.006 308.354 420.91 308.15 420.85 307.916H421.714C421.816 308.144 421.987 308.315 422.227 308.429C422.473 308.537 422.719 308.591 422.965 308.591C423.259 308.585 423.508 308.525 423.712 308.411C423.916 308.297 424.081 308.144 424.207 307.952C424.297 307.814 424.369 307.661 424.423 307.493C424.477 307.319 424.519 307.151 424.549 306.989C424.579 306.821 424.597 306.662 424.603 306.512C424.615 306.362 424.621 306.239 424.621 306.143V305.945ZM421.579 304.847C421.579 305.267 421.699 305.594 421.939 305.828C422.185 306.062 422.515 306.182 422.929 306.188C423.121 306.188 423.301 306.158 423.469 306.098C423.643 306.038 423.793 305.951 423.919 305.837C424.051 305.723 424.153 305.588 424.225 305.432C424.303 305.27 424.342 305.093 424.342 304.901C424.342 304.697 424.306 304.511 424.234 304.343C424.168 304.169 424.072 304.022 423.946 303.902C423.826 303.776 423.682 303.68 423.514 303.614C423.346 303.542 423.163 303.506 422.965 303.506C422.767 303.506 422.581 303.542 422.407 303.614C422.239 303.686 422.092 303.782 421.966 303.902C421.846 304.022 421.75 304.163 421.678 304.325C421.612 304.487 421.579 304.661 421.579 304.847Z" fill="white" fill-opacity="0.49"/>
<path d="M510.169 307.007C510.331 306.869 510.508 306.719 510.7 306.557C510.898 306.389 511.081 306.209 511.249 306.017C511.423 305.825 511.57 305.624 511.69 305.414C511.81 305.198 511.873 304.964 511.879 304.712C511.891 304.328 511.78 304.034 511.546 303.83C511.312 303.62 511.003 303.515 510.619 303.515C510.313 303.515 510.046 303.578 509.818 303.704C509.59 303.83 509.44 304.013 509.368 304.253H508.531C508.573 304.007 508.66 303.794 508.792 303.614C508.93 303.428 509.095 303.275 509.287 303.155C509.485 303.035 509.701 302.945 509.935 302.885C510.169 302.825 510.409 302.795 510.655 302.795C510.949 302.795 511.219 302.837 511.465 302.921C511.711 302.999 511.924 303.116 512.104 303.272C512.284 303.428 512.422 303.623 512.518 303.857C512.62 304.085 512.671 304.346 512.671 304.64C512.671 304.934 512.626 305.198 512.536 305.432C512.452 305.666 512.335 305.882 512.185 306.08C512.041 306.278 511.876 306.464 511.69 306.638C511.504 306.812 511.312 306.986 511.114 307.16L509.503 308.519H512.743V309.23H508.369V308.582L510.169 307.007ZM518.678 306.053C518.678 306.461 518.636 306.86 518.552 307.25C518.474 307.64 518.339 307.988 518.147 308.294C517.955 308.594 517.7 308.837 517.382 309.023C517.064 309.209 516.668 309.302 516.194 309.302C515.714 309.302 515.315 309.209 514.997 309.023C514.679 308.837 514.424 308.594 514.232 308.294C514.04 307.988 513.905 307.646 513.827 307.268C513.749 306.89 513.71 306.485 513.71 306.053C513.71 305.621 513.749 305.216 513.827 304.838C513.905 304.454 514.04 304.112 514.232 303.812C514.424 303.512 514.679 303.269 514.997 303.083C515.315 302.891 515.714 302.795 516.194 302.795C516.668 302.795 517.064 302.888 517.382 303.074C517.7 303.26 517.955 303.506 518.147 303.812C518.339 304.118 518.474 304.466 518.552 304.856C518.636 305.246 518.678 305.645 518.678 306.053ZM514.511 306.053C514.511 306.341 514.532 306.635 514.574 306.935C514.616 307.235 514.697 307.508 514.817 307.754C514.937 308 515.105 308.201 515.321 308.357C515.543 308.513 515.834 308.591 516.194 308.591C516.548 308.591 516.833 308.513 517.049 308.357C517.271 308.201 517.442 308 517.562 307.754C517.682 307.508 517.763 307.235 517.805 306.935C517.847 306.635 517.868 306.341 517.868 306.053C517.868 305.771 517.847 305.48 517.805 305.18C517.763 304.88 517.682 304.607 517.562 304.361C517.442 304.109 517.271 303.905 517.049 303.749C516.833 303.587 516.548 303.506 516.194 303.506C515.834 303.506 515.543 303.587 515.321 303.749C515.105 303.905 514.937 304.109 514.817 304.361C514.697 304.607 514.616 304.88 514.574 305.18C514.532 305.48 514.511 305.771 514.511 306.053ZM521.12 307.007C521.282 306.869 521.459 306.719 521.651 306.557C521.849 306.389 522.032 306.209 522.2 306.017C522.374 305.825 522.521 305.624 522.641 305.414C522.761 305.198 522.824 304.964 522.83 304.712C522.842 304.328 522.731 304.034 522.497 303.83C522.263 303.62 521.954 303.515 521.57 303.515C521.264 303.515 520.997 303.578 520.769 303.704C520.541 303.83 520.391 304.013 520.319 304.253H519.482C519.524 304.007 519.611 303.794 519.743 303.614C519.881 303.428 520.046 303.275 520.238 303.155C520.436 303.035 520.652 302.945 520.886 302.885C521.12 302.825 521.36 302.795 521.606 302.795C521.9 302.795 522.17 302.837 522.416 302.921C522.662 302.999 522.875 303.116 523.055 303.272C523.235 303.428 523.373 303.623 523.469 303.857C523.571 304.085 523.622 304.346 523.622 304.64C523.622 304.934 523.577 305.198 523.487 305.432C523.403 305.666 523.286 305.882 523.136 306.08C522.992 306.278 522.827 306.464 522.641 306.638C522.455 306.812 522.263 306.986 522.065 307.16L520.454 308.519H523.694V309.23H519.32V308.582L521.12 307.007ZM526.452 309.23H525.669V304.127H524.373V303.596C524.553 303.584 524.718 303.569 524.868 303.551C525.018 303.527 525.156 303.488 525.282 303.434C525.408 303.38 525.522 303.308 525.624 303.218C525.726 303.128 525.819 303.011 525.903 302.867H526.452V309.23Z" fill="white" fill-opacity="0.49"/>
<path d="M610.963 307.007C611.125 306.869 611.302 306.719 611.494 306.557C611.692 306.389 611.875 306.209 612.043 306.017C612.217 305.825 612.364 305.624 612.484 305.414C612.604 305.198 612.667 304.964 612.673 304.712C612.685 304.328 612.574 304.034 612.34 303.83C612.106 303.62 611.797 303.515 611.413 303.515C611.107 303.515 610.84 303.578 610.612 303.704C610.384 303.83 610.234 304.013 610.162 304.253H609.325C609.367 304.007 609.454 303.794 609.586 303.614C609.724 303.428 609.889 303.275 610.081 303.155C610.279 303.035 610.495 302.945 610.729 302.885C610.963 302.825 611.203 302.795 611.449 302.795C611.743 302.795 612.013 302.837 612.259 302.921C612.505 302.999 612.718 303.116 612.898 303.272C613.078 303.428 613.216 303.623 613.312 303.857C613.414 304.085 613.465 304.346 613.465 304.64C613.465 304.934 613.42 305.198 613.33 305.432C613.246 305.666 613.129 305.882 612.979 306.08C612.835 306.278 612.67 306.464 612.484 306.638C612.298 306.812 612.106 306.986 611.908 307.16L610.297 308.519H613.537V309.23H609.163V308.582L610.963 307.007ZM619.471 306.053C619.471 306.461 619.429 306.86 619.345 307.25C619.267 307.64 619.132 307.988 618.94 308.294C618.748 308.594 618.493 308.837 618.175 309.023C617.857 309.209 617.461 309.302 616.987 309.302C616.507 309.302 616.108 309.209 615.79 309.023C615.472 308.837 615.217 308.594 615.025 308.294C614.833 307.988 614.698 307.646 614.62 307.268C614.542 306.89 614.503 306.485 614.503 306.053C614.503 305.621 614.542 305.216 614.62 304.838C614.698 304.454 614.833 304.112 615.025 303.812C615.217 303.512 615.472 303.269 615.79 303.083C616.108 302.891 616.507 302.795 616.987 302.795C617.461 302.795 617.857 302.888 618.175 303.074C618.493 303.26 618.748 303.506 618.94 303.812C619.132 304.118 619.267 304.466 619.345 304.856C619.429 305.246 619.471 305.645 619.471 306.053ZM615.304 306.053C615.304 306.341 615.325 306.635 615.367 306.935C615.409 307.235 615.49 307.508 615.61 307.754C615.73 308 615.898 308.201 616.114 308.357C616.336 308.513 616.627 308.591 616.987 308.591C617.341 308.591 617.626 308.513 617.842 308.357C618.064 308.201 618.235 308 618.355 307.754C618.475 307.508 618.556 307.235 618.598 306.935C618.64 306.635 618.661 306.341 618.661 306.053C618.661 305.771 618.64 305.48 618.598 305.18C618.556 304.88 618.475 304.607 618.355 304.361C618.235 304.109 618.064 303.905 617.842 303.749C617.626 303.587 617.341 303.506 616.987 303.506C616.627 303.506 616.336 303.587 616.114 303.749C615.898 303.905 615.73 304.109 615.61 304.361C615.49 304.607 615.409 304.88 615.367 305.18C615.325 305.48 615.304 305.771 615.304 306.053ZM621.914 307.007C622.076 306.869 622.253 306.719 622.445 306.557C622.643 306.389 622.826 306.209 622.994 306.017C623.168 305.825 623.315 305.624 623.435 305.414C623.555 305.198 623.618 304.964 623.624 304.712C623.636 304.328 623.525 304.034 623.291 303.83C623.057 303.62 622.748 303.515 622.364 303.515C622.058 303.515 621.791 303.578 621.563 303.704C621.335 303.83 621.185 304.013 621.113 304.253H620.276C620.318 304.007 620.405 303.794 620.537 303.614C620.675 303.428 620.84 303.275 621.032 303.155C621.23 303.035 621.446 302.945 621.68 302.885C621.914 302.825 622.154 302.795 622.4 302.795C622.694 302.795 622.964 302.837 623.21 302.921C623.456 302.999 623.669 303.116 623.849 303.272C624.029 303.428 624.167 303.623 624.263 303.857C624.365 304.085 624.416 304.346 624.416 304.64C624.416 304.934 624.371 305.198 624.281 305.432C624.197 305.666 624.08 305.882 623.93 306.08C623.786 306.278 623.621 306.464 623.435 306.638C623.249 306.812 623.057 306.986 622.859 307.16L621.248 308.519H624.488V309.23H620.114V308.582L621.914 307.007ZM627.56 309.302C627.308 309.302 627.053 309.278 626.795 309.23C626.543 309.182 626.306 309.101 626.084 308.987C625.868 308.867 625.682 308.711 625.526 308.519C625.376 308.327 625.28 308.09 625.238 307.808H626.048C626.102 307.964 626.183 308.093 626.291 308.195C626.405 308.291 626.531 308.369 626.669 308.429C626.813 308.489 626.963 308.531 627.119 308.555C627.275 308.579 627.425 308.591 627.569 308.591C627.701 308.591 627.851 308.579 628.019 308.555C628.187 308.531 628.343 308.48 628.487 308.402C628.637 308.324 628.76 308.21 628.856 308.06C628.958 307.904 629.009 307.7 629.009 307.448C629.009 307.208 628.961 307.016 628.865 306.872C628.775 306.728 628.655 306.617 628.505 306.539C628.361 306.461 628.196 306.41 628.01 306.386C627.83 306.362 627.647 306.35 627.461 306.35H626.849V305.648H627.218C627.38 305.648 627.53 305.645 627.668 305.639C627.806 305.627 627.959 305.585 628.127 305.513C628.319 305.423 628.472 305.297 628.586 305.135C628.7 304.967 628.76 304.775 628.766 304.559C628.766 304.343 628.73 304.166 628.658 304.028C628.586 303.89 628.49 303.782 628.37 303.704C628.25 303.626 628.115 303.575 627.965 303.551C627.815 303.521 627.662 303.506 627.506 303.506C627.38 303.506 627.248 303.521 627.11 303.551C626.978 303.575 626.852 303.617 626.732 303.677C626.618 303.737 626.516 303.818 626.426 303.92C626.336 304.016 626.273 304.133 626.237 304.271H625.454C625.49 304.007 625.574 303.782 625.706 303.596C625.838 303.41 626 303.257 626.192 303.137C626.39 303.017 626.606 302.93 626.84 302.876C627.08 302.822 627.323 302.795 627.569 302.795C627.839 302.795 628.091 302.825 628.325 302.885C628.565 302.939 628.775 303.032 628.955 303.164C629.135 303.29 629.276 303.458 629.378 303.668C629.486 303.878 629.54 304.133 629.54 304.433C629.54 304.547 629.528 304.67 629.504 304.802C629.48 304.928 629.435 305.054 629.369 305.18C629.303 305.306 629.207 305.432 629.081 305.558C628.955 305.684 628.79 305.789 628.586 305.873C628.988 305.951 629.294 306.128 629.504 306.404C629.714 306.674 629.819 307.001 629.819 307.385V307.421C629.819 307.751 629.759 308.036 629.639 308.276C629.525 308.51 629.366 308.705 629.162 308.861C628.958 309.011 628.718 309.122 628.442 309.194C628.166 309.266 627.872 309.302 627.56 309.302Z" fill="white" fill-opacity="0.49"/>
<path d="M24.0013 244.304C24.3311 244.605 24.4961 244.984 24.4961 245.439C24.4961 245.706 24.4307 245.962 24.2999 246.206C24.169 246.451 23.987 246.644 23.7539 246.787C23.5377 246.934 23.259 247.037 22.9178 247.094V247.844H22.0903V247.085C21.84 247.04 21.6125 246.951 21.4077 246.821C21.203 246.69 21.0324 246.525 20.8959 246.326C20.6399 245.979 20.512 245.595 20.512 245.174H21.348C21.348 245.294 21.3679 245.419 21.4077 245.549C21.4532 245.675 21.5158 245.78 21.5954 245.865C21.7035 246.013 21.8343 246.13 21.9879 246.215C22.1414 246.295 22.3092 246.334 22.4912 246.334C22.6448 246.334 22.7955 246.314 22.9434 246.275C23.0969 246.229 23.2278 246.161 23.3358 246.07C23.5292 245.911 23.6259 245.692 23.6259 245.413C23.6259 245.288 23.5974 245.177 23.5406 245.08C23.4894 244.978 23.4041 244.881 23.2846 244.79C23.1766 244.705 23.0571 244.631 22.9263 244.568C22.7955 244.506 22.6277 244.432 22.423 244.347C22.2865 244.295 22.1358 244.23 21.9708 244.15C21.5215 243.957 21.1831 243.718 20.9556 243.434C20.8532 243.309 20.7707 243.161 20.7082 242.99C20.6456 242.814 20.6143 242.635 20.6143 242.453C20.6143 242.219 20.6627 241.992 20.7594 241.77C20.8561 241.548 20.9897 241.361 21.1603 241.207C21.4106 240.98 21.7206 240.832 22.0903 240.763V240.013H22.9178V240.781C23.3273 240.866 23.6628 241.071 23.9245 241.395C24.2202 241.73 24.3709 242.123 24.3766 242.572H23.5064C23.5064 242.328 23.424 242.1 23.259 241.89C23.0429 241.645 22.7841 241.523 22.4827 241.523C22.1813 241.523 21.9338 241.619 21.7405 241.813C21.5698 241.983 21.4845 242.194 21.4845 242.444C21.4845 242.649 21.5414 242.819 21.6552 242.956C21.7291 243.058 21.8372 243.152 21.9793 243.238C22.1272 243.323 22.3121 243.408 22.5339 243.493C22.9775 243.681 23.2932 243.823 23.4808 243.92C23.6685 244.017 23.842 244.145 24.0013 244.304Z" fill="#7D7D7D"/>
<path d="M28.8698 243.749C29.0291 243.926 29.1457 244.128 29.2196 244.355C29.2993 244.577 29.3391 244.813 29.3391 245.063C29.3391 245.376 29.2793 245.672 29.1599 245.95C29.0462 246.229 28.8755 246.462 28.648 246.65C28.4603 246.804 28.2499 246.92 28.0167 247C27.7892 247.085 27.556 247.125 27.3172 247.119C27.0783 247.125 26.8422 247.085 26.6091 247C26.3759 246.92 26.1654 246.804 25.9777 246.65C25.682 246.411 25.4744 246.098 25.355 245.712L26.1484 245.49C26.228 245.734 26.3531 245.925 26.5237 246.061C26.7512 246.243 27.0129 246.334 27.3086 246.334C27.6214 246.323 27.8831 246.229 28.0935 246.053C28.23 245.939 28.3295 245.8 28.3921 245.635C28.4603 245.47 28.4945 245.294 28.4945 245.106C28.4945 244.708 28.3693 244.395 28.1191 244.167C27.903 243.968 27.63 243.869 27.3001 243.869C27.101 243.869 26.8991 243.923 26.6944 244.031L26.3019 243.374L28.1362 241.642H25.5938V240.857H29.2538V241.668L27.6584 243.178C28.1475 243.223 28.5513 243.414 28.8698 243.749Z" fill="#7D7D7D"/>
<path d="M32.9339 246.949C32.6609 247.062 32.3652 247.119 32.0467 247.119C31.7339 247.119 31.4381 247.062 31.1594 246.949C30.8807 246.829 30.6447 246.659 30.4513 246.437C30.2636 246.215 30.13 245.987 30.0504 245.754C29.9764 245.515 29.9395 245.237 29.9395 244.918V242.93C29.9395 242.612 29.9764 242.333 30.0504 242.094C30.13 241.855 30.2665 241.622 30.4599 241.395C30.6532 241.179 30.8893 241.014 31.168 240.9C31.4523 240.786 31.7566 240.729 32.0808 240.729C32.3766 240.729 32.6581 240.786 32.9254 240.9C33.1984 241.014 33.4316 241.179 33.625 241.395C33.8183 241.611 33.9548 241.841 34.0345 242.086C34.1141 242.325 34.1539 242.606 34.1539 242.93V244.918C34.1539 245.231 34.1141 245.51 34.0345 245.754C33.9605 245.999 33.8297 246.226 33.642 246.437C33.4487 246.659 33.2126 246.829 32.9339 246.949ZM32.6609 241.676C32.4676 241.568 32.2628 241.514 32.0467 241.514C31.8306 241.514 31.6258 241.568 31.4324 241.676C31.2447 241.784 31.094 241.929 30.9803 242.111C30.9063 242.219 30.8551 242.339 30.8267 242.47C30.7983 242.601 30.784 242.754 30.784 242.93V244.918C30.784 245.089 30.7983 245.242 30.8267 245.379C30.8551 245.515 30.9092 245.643 30.9888 245.763C31.1082 245.939 31.259 246.081 31.441 246.189C31.6286 246.292 31.8306 246.34 32.0467 246.334C32.2628 246.34 32.4647 246.292 32.6524 246.189C32.8401 246.081 32.9936 245.936 33.1131 245.754C33.187 245.64 33.2382 245.521 33.2667 245.396C33.2951 245.265 33.3093 245.106 33.3093 244.918V242.93C33.3093 242.754 33.2951 242.606 33.2667 242.487C33.2439 242.362 33.1956 242.237 33.1216 242.111C33.0079 241.929 32.8543 241.784 32.6609 241.676Z" fill="#7D7D7D"/>
<path d="M42.4369 242.734C42.6474 242.91 42.7867 243.118 42.855 243.357C42.9289 243.596 42.9659 243.894 42.9659 244.253L42.9573 247H42.1298L42.1383 244.253C42.1383 244.025 42.1156 243.849 42.0701 243.724C42.0303 243.593 41.945 243.468 41.8141 243.348C41.7345 243.269 41.6378 243.206 41.5241 243.161C41.4103 243.115 41.2966 243.092 41.1828 243.092C41.035 243.092 40.8956 243.124 40.7648 243.186C40.634 243.243 40.5231 243.326 40.4321 243.434C40.3411 243.542 40.2785 243.656 40.2444 243.775C40.216 243.889 40.2017 244.022 40.2017 244.176V247H39.3742V244.253C39.3742 244.025 39.3543 243.849 39.3145 243.724C39.2747 243.593 39.1894 243.468 39.0585 243.348C38.8765 243.178 38.6633 243.092 38.4187 243.092C38.2708 243.092 38.1315 243.124 38.0007 243.186C37.8755 243.243 37.7675 243.326 37.6765 243.434C37.5798 243.542 37.5144 243.656 37.4803 243.775C37.4518 243.889 37.4376 244.022 37.4376 244.176V247H36.6101V242.393H37.3438V242.982C37.4973 242.788 37.6879 242.637 37.9154 242.529C38.1485 242.416 38.3931 242.359 38.649 242.359C38.831 242.359 39.0102 242.393 39.1865 242.461C39.3685 242.524 39.5306 242.615 39.6728 242.734C39.8036 242.842 39.9145 242.973 40.0055 243.127L40.0311 243.075C40.179 242.854 40.3752 242.68 40.6198 242.555C40.87 242.424 41.1316 242.359 41.4046 242.359C41.5866 242.359 41.7686 242.393 41.9506 242.461C42.1327 242.524 42.2947 242.615 42.4369 242.734Z" fill="#7D7D7D"/>
<path d="M44.7413 240.815V241.642H43.9138V240.815H44.7413ZM44.7413 242.393V247H43.9138V242.393H44.7413Z" fill="#7D7D7D"/>
<path d="M46.6837 247H45.8562V240.729H46.6837V247Z" fill="#7D7D7D"/>
<path d="M48.5433 247H47.7158V240.729H48.5433V247Z" fill="#7D7D7D"/>
<path d="M50.4884 240.815V241.642H49.6609V240.815H50.4884ZM50.4884 242.393V247H49.6609V242.393H50.4884Z" fill="#7D7D7D"/>
<path d="M53.5826 247.128C53.2414 247.128 52.9229 247.062 52.6271 246.932C52.3314 246.801 52.084 246.613 51.8849 246.368C51.5266 245.925 51.3474 245.367 51.3474 244.696C51.3474 244.025 51.5266 243.465 51.8849 243.016C52.0783 242.777 52.3257 242.592 52.6271 242.461C52.9286 242.33 53.2471 242.265 53.5826 242.265C53.9239 242.265 54.2424 242.33 54.5381 242.461C54.8396 242.586 55.0898 242.771 55.2889 243.016C55.6472 243.465 55.8263 244.025 55.8263 244.696C55.8263 245.356 55.6472 245.913 55.2889 246.368C55.0841 246.619 54.8339 246.809 54.5381 246.94C54.2481 247.065 53.9296 247.128 53.5826 247.128ZM54.632 245.865C54.8424 245.586 54.9476 245.197 54.9476 244.696C54.9476 244.19 54.8424 243.798 54.632 243.519C54.5182 243.365 54.3675 243.249 54.1798 243.169C53.9978 243.09 53.7987 243.05 53.5826 243.05C53.3665 243.05 53.1674 243.09 52.9854 243.169C52.8034 243.249 52.6556 243.365 52.5418 243.519C52.3314 243.798 52.2261 244.19 52.2261 244.696C52.2261 245.197 52.3314 245.586 52.5418 245.865C52.6556 246.019 52.8034 246.138 52.9854 246.223C53.1674 246.303 53.3665 246.343 53.5826 246.343C53.7987 246.343 53.9978 246.303 54.1798 246.223C54.3618 246.138 54.5125 246.019 54.632 245.865Z" fill="#7D7D7D"/>
<path d="M59.985 242.7C60.2694 242.928 60.4599 243.203 60.5566 243.528C60.6533 243.852 60.6988 244.25 60.6931 244.722V247H59.8571V244.722C59.8571 244.392 59.8258 244.113 59.7632 243.886C59.7007 243.653 59.5812 243.465 59.4049 243.323C59.1888 243.147 58.9129 243.064 58.5774 243.075C58.2987 243.092 58.0655 243.178 57.8778 243.331C57.6674 243.502 57.5366 243.741 57.4854 244.048C57.4569 244.167 57.4399 244.31 57.4342 244.475C57.4285 244.639 57.4257 244.807 57.4257 244.978V247H56.5981V242.393H57.3318V242.854C57.3318 242.854 57.3631 242.822 57.4257 242.76C57.602 242.601 57.8067 242.481 58.0399 242.401C58.2788 242.322 58.5205 242.282 58.7651 242.282C58.9869 242.282 59.203 242.319 59.4134 242.393C59.6296 242.461 59.8201 242.564 59.985 242.7Z" fill="#7D7D7D"/>
<path d="M24.0013 197.304C24.3311 197.605 24.4961 197.984 24.4961 198.439C24.4961 198.706 24.4307 198.962 24.2999 199.206C24.169 199.451 23.987 199.644 23.7539 199.787C23.5377 199.934 23.259 200.037 22.9178 200.094V200.844H22.0903V200.085C21.84 200.04 21.6125 199.951 21.4077 199.821C21.203 199.69 21.0324 199.525 20.8959 199.326C20.6399 198.979 20.512 198.595 20.512 198.174H21.348C21.348 198.294 21.3679 198.419 21.4077 198.549C21.4532 198.675 21.5158 198.78 21.5954 198.865C21.7035 199.013 21.8343 199.13 21.9879 199.215C22.1414 199.295 22.3092 199.334 22.4912 199.334C22.6448 199.334 22.7955 199.314 22.9434 199.275C23.0969 199.229 23.2278 199.161 23.3358 199.07C23.5292 198.911 23.6259 198.692 23.6259 198.413C23.6259 198.288 23.5974 198.177 23.5406 198.08C23.4894 197.978 23.4041 197.881 23.2846 197.79C23.1766 197.705 23.0571 197.631 22.9263 197.568C22.7955 197.506 22.6277 197.432 22.423 197.347C22.2865 197.295 22.1358 197.23 21.9708 197.15C21.5215 196.957 21.1831 196.718 20.9556 196.434C20.8532 196.309 20.7707 196.161 20.7082 195.99C20.6456 195.814 20.6143 195.635 20.6143 195.453C20.6143 195.219 20.6627 194.992 20.7594 194.77C20.8561 194.548 20.9897 194.361 21.1603 194.207C21.4106 193.98 21.7206 193.832 22.0903 193.763V193.013H22.9178V193.781C23.3273 193.866 23.6628 194.071 23.9245 194.395C24.2202 194.73 24.3709 195.123 24.3766 195.572H23.5064C23.5064 195.328 23.424 195.1 23.259 194.89C23.0429 194.645 22.7841 194.523 22.4827 194.523C22.1813 194.523 21.9338 194.619 21.7405 194.813C21.5698 194.983 21.4845 195.194 21.4845 195.444C21.4845 195.649 21.5414 195.819 21.6552 195.956C21.7291 196.058 21.8372 196.152 21.9793 196.238C22.1272 196.323 22.3121 196.408 22.5339 196.493C22.9775 196.681 23.2932 196.823 23.4808 196.92C23.6685 197.017 23.842 197.145 24.0013 197.304Z" fill="#7D7D7D"/>
<path d="M28.5114 195.06C28.3863 194.89 28.2299 194.756 28.0422 194.659C27.8545 194.563 27.6583 194.514 27.4536 194.514C27.2317 194.514 27.0213 194.568 26.8222 194.676C26.6289 194.784 26.4781 194.929 26.3701 195.111C26.1995 195.345 26.1141 195.643 26.1141 196.007V196.656C26.2848 196.468 26.4895 196.32 26.7284 196.212C26.9673 196.104 27.2175 196.05 27.4791 196.05C27.7294 196.05 27.974 196.098 28.2128 196.195C28.4574 196.286 28.6735 196.417 28.8612 196.587C29.2707 196.98 29.4755 197.463 29.4755 198.038C29.4755 198.316 29.4214 198.586 29.3134 198.848C29.2053 199.104 29.0517 199.329 28.8527 199.522C28.6707 199.71 28.4517 199.858 28.1958 199.966C27.9398 200.068 27.6754 200.119 27.4024 200.119C27.1123 200.119 26.8336 200.065 26.5663 199.957C26.299 199.849 26.0686 199.696 25.8753 199.496C25.6535 199.275 25.497 199.033 25.406 198.771C25.315 198.504 25.2695 198.197 25.2695 197.85V196.007C25.2695 195.677 25.3122 195.384 25.3975 195.128C25.4885 194.867 25.6335 194.625 25.8326 194.403C26.043 194.176 26.2876 194.005 26.5663 193.891C26.845 193.778 27.1407 193.726 27.4536 193.738C27.7834 193.732 28.0906 193.795 28.3749 193.926C28.665 194.056 28.9124 194.247 29.1172 194.497L28.5114 195.06ZM27.7692 199.164C27.9228 199.118 28.0564 199.041 28.1702 198.933C28.2896 198.82 28.3835 198.689 28.4517 198.541C28.5143 198.41 28.5456 198.257 28.5456 198.08C28.5456 197.927 28.5228 197.79 28.4773 197.671C28.4204 197.523 28.338 197.392 28.2299 197.278C28.1275 197.159 28.0081 197.068 27.8716 197.005C27.7066 196.931 27.5446 196.894 27.3853 196.894C27.2488 196.894 27.1123 196.92 26.9758 196.971C26.8222 197.022 26.6857 197.102 26.5663 197.21C26.4526 197.318 26.3644 197.443 26.3018 197.585C26.2393 197.716 26.208 197.873 26.208 198.055C26.208 198.208 26.2307 198.345 26.2762 198.464C26.3274 198.606 26.4042 198.734 26.5066 198.848C26.609 198.962 26.7256 199.047 26.8564 199.104C27.0213 199.189 27.1948 199.232 27.3768 199.232C27.5019 199.232 27.6327 199.209 27.7692 199.164Z" fill="#7D7D7D"/>
<path d="M33.0778 199.949C32.8048 200.062 32.509 200.119 32.1905 200.119C31.8777 200.119 31.582 200.062 31.3033 199.949C31.0246 199.829 30.7886 199.659 30.5952 199.437C30.4075 199.215 30.2738 198.987 30.1942 198.754C30.1203 198.515 30.0833 198.237 30.0833 197.918V195.93C30.0833 195.612 30.1203 195.333 30.1942 195.094C30.2738 194.855 30.4103 194.622 30.6037 194.395C30.7971 194.179 31.0331 194.014 31.3118 193.9C31.5962 193.786 31.9005 193.729 32.2247 193.729C32.5204 193.729 32.802 193.786 33.0693 193.9C33.3423 194.014 33.5755 194.179 33.7688 194.395C33.9622 194.611 34.0987 194.841 34.1783 195.086C34.258 195.325 34.2978 195.606 34.2978 195.93V197.918C34.2978 198.231 34.258 198.51 34.1783 198.754C34.1044 198.999 33.9736 199.226 33.7859 199.437C33.5925 199.659 33.3565 199.829 33.0778 199.949ZM32.8048 194.676C32.6114 194.568 32.4067 194.514 32.1905 194.514C31.9744 194.514 31.7697 194.568 31.5763 194.676C31.3886 194.784 31.2379 194.929 31.1241 195.111C31.0502 195.219 30.999 195.339 30.9706 195.47C30.9421 195.601 30.9279 195.754 30.9279 195.93V197.918C30.9279 198.089 30.9421 198.242 30.9706 198.379C30.999 198.515 31.053 198.643 31.1327 198.763C31.2521 198.939 31.4028 199.081 31.5848 199.189C31.7725 199.292 31.9744 199.34 32.1905 199.334C32.4067 199.34 32.6086 199.292 32.7963 199.189C32.984 199.081 33.1375 198.936 33.257 198.754C33.3309 198.64 33.3821 198.521 33.4105 198.396C33.439 198.265 33.4532 198.106 33.4532 197.918V195.93C33.4532 195.754 33.439 195.606 33.4105 195.487C33.3878 195.362 33.3394 195.237 33.2655 195.111C33.1517 194.929 32.9982 194.784 32.8048 194.676Z" fill="#7D7D7D"/>
<path d="M42.5808 195.734C42.7912 195.91 42.9306 196.118 42.9988 196.357C43.0728 196.596 43.1097 196.894 43.1097 197.253L43.1012 200H42.2737L42.2822 197.253C42.2822 197.025 42.2595 196.849 42.214 196.724C42.1741 196.593 42.0888 196.468 41.958 196.348C41.8784 196.269 41.7817 196.206 41.668 196.161C41.5542 196.115 41.4404 196.092 41.3267 196.092C41.1788 196.092 41.0395 196.124 40.9087 196.186C40.7779 196.243 40.6669 196.326 40.5759 196.434C40.4849 196.542 40.4224 196.656 40.3883 196.775C40.3598 196.889 40.3456 197.022 40.3456 197.176V200H39.5181V197.253C39.5181 197.025 39.4982 196.849 39.4583 196.724C39.4185 196.593 39.3332 196.468 39.2024 196.348C39.0204 196.178 38.8071 196.092 38.5626 196.092C38.4147 196.092 38.2753 196.124 38.1445 196.186C38.0194 196.243 37.9113 196.326 37.8203 196.434C37.7237 196.542 37.6582 196.656 37.6241 196.775C37.5957 196.889 37.5815 197.022 37.5815 197.176V200H36.7539V195.393H37.4876V195.982C37.6412 195.788 37.8317 195.637 38.0592 195.529C38.2924 195.416 38.537 195.359 38.7929 195.359C38.9749 195.359 39.1541 195.393 39.3304 195.461C39.5124 195.524 39.6745 195.615 39.8167 195.734C39.9475 195.842 40.0584 195.973 40.1494 196.127L40.175 196.075C40.3229 195.854 40.5191 195.68 40.7636 195.555C41.0139 195.424 41.2755 195.359 41.5485 195.359C41.7305 195.359 41.9125 195.393 42.0945 195.461C42.2765 195.524 42.4386 195.615 42.5808 195.734Z" fill="#7D7D7D"/>
<path d="M44.8854 193.815V194.642H44.0579V193.815H44.8854ZM44.8854 195.393V200H44.0579V195.393H44.8854Z" fill="#7D7D7D"/>
<path d="M46.8276 200H46V193.729H46.8276V200Z" fill="#7D7D7D"/>
<path d="M48.6875 200H47.8599V193.729H48.6875V200Z" fill="#7D7D7D"/>
<path d="M50.6324 193.815V194.642H49.8049V193.815H50.6324ZM50.6324 195.393V200H49.8049V195.393H50.6324Z" fill="#7D7D7D"/>
<path d="M53.7264 200.128C53.3851 200.128 53.0666 200.062 52.7709 199.932C52.4751 199.801 52.2277 199.613 52.0287 199.368C51.6703 198.925 51.4912 198.368 51.4912 197.696C51.4912 197.025 51.6703 196.465 52.0287 196.016C52.222 195.777 52.4694 195.592 52.7709 195.461C53.0723 195.33 53.3908 195.265 53.7264 195.265C54.0676 195.265 54.3861 195.33 54.6819 195.461C54.9833 195.586 55.2336 195.771 55.4326 196.016C55.791 196.465 55.9701 197.025 55.9701 197.696C55.9701 198.356 55.791 198.913 55.4326 199.368C55.2279 199.619 54.9776 199.809 54.6819 199.94C54.3918 200.065 54.0733 200.128 53.7264 200.128ZM54.7757 198.865C54.9862 198.586 55.0914 198.197 55.0914 197.696C55.0914 197.19 54.9862 196.798 54.7757 196.519C54.662 196.365 54.5113 196.249 54.3236 196.169C54.1416 196.09 53.9425 196.05 53.7264 196.05C53.5103 196.05 53.3112 196.09 53.1292 196.169C52.9472 196.249 52.7993 196.365 52.6856 196.519C52.4751 196.798 52.3699 197.19 52.3699 197.696C52.3699 198.197 52.4751 198.586 52.6856 198.865C52.7993 199.019 52.9472 199.138 53.1292 199.223C53.3112 199.303 53.5103 199.343 53.7264 199.343C53.9425 199.343 54.1416 199.303 54.3236 199.223C54.5056 199.138 54.6563 199.019 54.7757 198.865Z" fill="#7D7D7D"/>
<path d="M60.1291 195.7C60.4135 195.928 60.604 196.203 60.7007 196.528C60.7974 196.852 60.8429 197.25 60.8372 197.722V200H60.0011V197.722C60.0011 197.392 59.9699 197.113 59.9073 196.886C59.8447 196.653 59.7253 196.465 59.549 196.323C59.3329 196.147 59.057 196.064 58.7214 196.075C58.4428 196.092 58.2096 196.178 58.0219 196.331C57.8114 196.502 57.6806 196.741 57.6294 197.048C57.601 197.167 57.5839 197.31 57.5783 197.475C57.5726 197.639 57.5697 197.807 57.5697 197.978V200H56.7422V195.393H57.4759V195.854C57.4759 195.854 57.5072 195.822 57.5697 195.76C57.746 195.601 57.9508 195.481 58.184 195.401C58.4228 195.322 58.6646 195.282 58.9091 195.282C59.1309 195.282 59.3471 195.319 59.5575 195.393C59.7736 195.461 59.9642 195.564 60.1291 195.7Z" fill="#7D7D7D"/>
<path d="M24.0013 150.304C24.3311 150.605 24.4961 150.984 24.4961 151.439C24.4961 151.706 24.4307 151.962 24.2999 152.206C24.169 152.451 23.987 152.644 23.7539 152.787C23.5377 152.934 23.259 153.037 22.9178 153.094V153.844H22.0903V153.085C21.84 153.04 21.6125 152.951 21.4077 152.821C21.203 152.69 21.0324 152.525 20.8959 152.326C20.6399 151.979 20.512 151.595 20.512 151.174H21.348C21.348 151.294 21.3679 151.419 21.4077 151.549C21.4532 151.675 21.5158 151.78 21.5954 151.865C21.7035 152.013 21.8343 152.13 21.9879 152.215C22.1414 152.295 22.3092 152.334 22.4912 152.334C22.6448 152.334 22.7955 152.314 22.9434 152.275C23.0969 152.229 23.2278 152.161 23.3358 152.07C23.5292 151.911 23.6259 151.692 23.6259 151.413C23.6259 151.288 23.5974 151.177 23.5406 151.08C23.4894 150.978 23.4041 150.881 23.2846 150.79C23.1766 150.705 23.0571 150.631 22.9263 150.568C22.7955 150.506 22.6277 150.432 22.423 150.347C22.2865 150.295 22.1358 150.23 21.9708 150.15C21.5215 149.957 21.1831 149.718 20.9556 149.434C20.8532 149.309 20.7707 149.161 20.7082 148.99C20.6456 148.814 20.6143 148.635 20.6143 148.453C20.6143 148.219 20.6627 147.992 20.7594 147.77C20.8561 147.548 20.9897 147.361 21.1603 147.207C21.4106 146.98 21.7206 146.832 22.0903 146.763V146.013H22.9178V146.781C23.3273 146.866 23.6628 147.071 23.9245 147.395C24.2202 147.73 24.3709 148.123 24.3766 148.572H23.5064C23.5064 148.328 23.424 148.1 23.259 147.89C23.0429 147.645 22.7841 147.523 22.4827 147.523C22.1813 147.523 21.9338 147.619 21.7405 147.813C21.5698 147.983 21.4845 148.194 21.4845 148.444C21.4845 148.649 21.5414 148.819 21.6552 148.956C21.7291 149.058 21.8372 149.152 21.9793 149.238C22.1272 149.323 22.3121 149.408 22.5339 149.493C22.9775 149.681 23.2932 149.823 23.4808 149.92C23.6685 150.017 23.842 150.145 24.0013 150.304Z" fill="#7D7D7D"/>
<path d="M26.3362 151.805C26.4556 151.97 26.6092 152.101 26.7968 152.198C26.9845 152.295 27.1836 152.343 27.394 152.343C27.6215 152.343 27.832 152.289 28.0253 152.181C28.2187 152.073 28.3694 151.928 28.4775 151.746C28.6481 151.518 28.7334 151.222 28.7334 150.858V150.21C28.5628 150.398 28.3581 150.546 28.1192 150.654C27.8803 150.762 27.6301 150.816 27.3684 150.816C27.1182 150.816 26.8708 150.77 26.6262 150.679C26.3873 150.583 26.1741 150.449 25.9864 150.278C25.5769 149.886 25.3721 149.402 25.3721 148.828C25.3721 148.549 25.4262 148.279 25.5342 148.018C25.6423 147.756 25.793 147.531 25.9864 147.344C26.1741 147.156 26.3959 147.011 26.6518 146.908C26.9078 146.8 27.1694 146.746 27.4367 146.746C27.7324 146.746 28.014 146.8 28.2813 146.908C28.5486 147.011 28.7789 147.162 28.9723 147.361C29.1941 147.582 29.3505 147.827 29.4415 148.094C29.5325 148.362 29.578 148.669 29.578 149.016V150.858C29.578 151.188 29.5325 151.484 29.4415 151.746C29.3562 152.002 29.2112 152.238 29.0064 152.454C28.8017 152.681 28.5571 152.852 28.2728 152.966C27.9941 153.074 27.6926 153.128 27.3684 153.128C27.0443 153.128 26.74 153.062 26.4556 152.932C26.1712 152.795 25.9295 152.605 25.7304 152.36L26.3362 151.805ZM27.0784 147.693C26.9248 147.745 26.7883 147.824 26.6689 147.932C26.5494 148.04 26.4584 148.168 26.3959 148.316C26.3333 148.447 26.302 148.603 26.302 148.785C26.302 148.939 26.3248 149.073 26.3703 149.186C26.4215 149.334 26.4983 149.468 26.6006 149.587C26.7087 149.701 26.8338 149.792 26.976 149.86C27.1296 149.929 27.2945 149.963 27.4708 149.963C27.5959 149.963 27.7268 149.94 27.8633 149.894C28.0168 149.843 28.1533 149.764 28.2728 149.656C28.3922 149.547 28.4832 149.42 28.5458 149.272C28.6083 149.141 28.6396 148.987 28.6396 148.811C28.6396 148.652 28.6169 148.515 28.5714 148.401C28.5202 148.259 28.4434 148.134 28.341 148.026C28.2386 147.912 28.122 147.824 27.9912 147.762C27.832 147.676 27.6557 147.634 27.4623 147.634C27.3258 147.634 27.1978 147.654 27.0784 147.693Z" fill="#7D7D7D"/>
<path d="M33.1737 152.949C32.9007 153.062 32.6049 153.119 32.2864 153.119C31.9736 153.119 31.6779 153.062 31.3992 152.949C31.1205 152.829 30.8844 152.659 30.6911 152.437C30.5034 152.215 30.3697 151.987 30.2901 151.754C30.2162 151.515 30.1792 151.237 30.1792 150.918V148.93C30.1792 148.612 30.2162 148.333 30.2901 148.094C30.3697 147.855 30.5062 147.622 30.6996 147.395C30.893 147.179 31.129 147.014 31.4077 146.9C31.6921 146.786 31.9964 146.729 32.3205 146.729C32.6163 146.729 32.8978 146.786 33.1651 146.9C33.4381 147.014 33.6713 147.179 33.8647 147.395C34.0581 147.611 34.1946 147.841 34.2742 148.086C34.3538 148.325 34.3936 148.606 34.3936 148.93V150.918C34.3936 151.231 34.3538 151.51 34.2742 151.754C34.2003 151.999 34.0695 152.226 33.8818 152.437C33.6884 152.659 33.4524 152.829 33.1737 152.949ZM32.9007 147.676C32.7073 147.568 32.5025 147.514 32.2864 147.514C32.0703 147.514 31.8655 147.568 31.6722 147.676C31.4845 147.784 31.3338 147.929 31.22 148.111C31.1461 148.219 31.0949 148.339 31.0664 148.47C31.038 148.601 31.0238 148.754 31.0238 148.93V150.918C31.0238 151.089 31.038 151.242 31.0664 151.379C31.0949 151.515 31.1489 151.643 31.2285 151.763C31.348 151.939 31.4987 152.081 31.6807 152.189C31.8684 152.292 32.0703 152.34 32.2864 152.334C32.5025 152.34 32.7045 152.292 32.8921 152.189C33.0798 152.081 33.2334 151.936 33.3528 151.754C33.4268 151.64 33.478 151.521 33.5064 151.396C33.5348 151.265 33.549 151.106 33.549 150.918V148.93C33.549 148.754 33.5348 148.606 33.5064 148.487C33.4836 148.362 33.4353 148.237 33.3614 148.111C33.2476 147.929 33.094 147.784 32.9007 147.676Z" fill="#7D7D7D"/>
<path d="M42.677 148.734C42.8874 148.91 43.0268 149.118 43.095 149.357C43.1689 149.596 43.2059 149.894 43.2059 150.253L43.1974 153H42.3698L42.3784 150.253C42.3784 150.025 42.3556 149.849 42.3101 149.724C42.2703 149.593 42.185 149.468 42.0542 149.348C41.9746 149.269 41.8779 149.206 41.7641 149.161C41.6504 149.115 41.5366 149.092 41.4229 149.092C41.275 149.092 41.1357 149.124 41.0048 149.186C40.874 149.243 40.7631 149.326 40.6721 149.434C40.5811 149.542 40.5186 149.656 40.4844 149.775C40.456 149.889 40.4418 150.022 40.4418 150.176V153H39.6142V150.253C39.6142 150.025 39.5943 149.849 39.5545 149.724C39.5147 149.593 39.4294 149.468 39.2986 149.348C39.1166 149.178 38.9033 149.092 38.6587 149.092C38.5109 149.092 38.3715 149.124 38.2407 149.186C38.1156 149.243 38.0075 149.326 37.9165 149.434C37.8198 149.542 37.7544 149.656 37.7203 149.775C37.6919 149.889 37.6776 150.022 37.6776 150.176V153H36.8501V148.393H37.5838V148.982C37.7374 148.788 37.9279 148.637 38.1554 148.529C38.3886 148.416 38.6331 148.359 38.8891 148.359C39.0711 148.359 39.2502 148.393 39.4266 148.461C39.6086 148.524 39.7706 148.615 39.9128 148.734C40.0437 148.842 40.1546 148.973 40.2456 149.127L40.2712 149.075C40.419 148.854 40.6152 148.68 40.8598 148.555C41.1101 148.424 41.3717 148.359 41.6447 148.359C41.8267 148.359 42.0087 148.393 42.1907 148.461C42.3727 148.524 42.5348 148.615 42.677 148.734Z" fill="#7D7D7D"/>
<path d="M44.9814 146.815V147.642H44.1538V146.815H44.9814ZM44.9814 148.393V153H44.1538V148.393H44.9814Z" fill="#7D7D7D"/>
<path d="M46.9237 153H46.0962V146.729H46.9237V153Z" fill="#7D7D7D"/>
<path d="M48.7834 153H47.9558V146.729H48.7834V153Z" fill="#7D7D7D"/>
<path d="M50.7285 146.815V147.642H49.9009V146.815H50.7285ZM50.7285 148.393V153H49.9009V148.393H50.7285Z" fill="#7D7D7D"/>
<path d="M53.8226 153.128C53.4813 153.128 53.1628 153.062 52.8671 152.932C52.5713 152.801 52.3239 152.613 52.1248 152.368C51.7665 151.925 51.5874 151.367 51.5874 150.696C51.5874 150.025 51.7665 149.465 52.1248 149.016C52.3182 148.777 52.5656 148.592 52.8671 148.461C53.1685 148.33 53.487 148.265 53.8226 148.265C54.1638 148.265 54.4823 148.33 54.7781 148.461C55.0795 148.586 55.3298 148.771 55.5288 149.016C55.8871 149.465 56.0663 150.025 56.0663 150.696C56.0663 151.356 55.8871 151.913 55.5288 152.368C55.3241 152.619 55.0738 152.809 54.7781 152.94C54.488 153.065 54.1695 153.128 53.8226 153.128ZM54.8719 151.865C55.0823 151.586 55.1876 151.197 55.1876 150.696C55.1876 150.19 55.0823 149.798 54.8719 149.519C54.7582 149.365 54.6074 149.249 54.4198 149.169C54.2378 149.09 54.0387 149.05 53.8226 149.05C53.6064 149.05 53.4074 149.09 53.2254 149.169C53.0434 149.249 52.8955 149.365 52.7817 149.519C52.5713 149.798 52.4661 150.19 52.4661 150.696C52.4661 151.197 52.5713 151.586 52.7817 151.865C52.8955 152.019 53.0434 152.138 53.2254 152.223C53.4074 152.303 53.6064 152.343 53.8226 152.343C54.0387 152.343 54.2378 152.303 54.4198 152.223C54.6018 152.138 54.7525 152.019 54.8719 151.865Z" fill="#7D7D7D"/>
<path d="M60.225 148.7C60.5094 148.928 60.6999 149.203 60.7966 149.528C60.8933 149.852 60.9388 150.25 60.9331 150.722V153H60.097V150.722C60.097 150.392 60.0657 150.113 60.0032 149.886C59.9406 149.653 59.8212 149.465 59.6449 149.323C59.4287 149.147 59.1529 149.064 58.8173 149.075C58.5386 149.092 58.3054 149.178 58.1178 149.331C57.9073 149.502 57.7765 149.741 57.7253 150.048C57.6969 150.167 57.6798 150.31 57.6741 150.475C57.6684 150.639 57.6656 150.807 57.6656 150.978V153H56.8381V148.393H57.5718V148.854C57.5718 148.854 57.603 148.822 57.6656 148.76C57.8419 148.601 58.0467 148.481 58.2798 148.401C58.5187 148.322 58.7604 148.282 59.005 148.282C59.2268 148.282 59.4429 148.319 59.6534 148.393C59.8695 148.461 60.06 148.564 60.225 148.7Z" fill="#7D7D7D"/>
<path d="M24.0013 103.304C24.3311 103.605 24.4961 103.984 24.4961 104.439C24.4961 104.706 24.4307 104.962 24.2999 105.206C24.169 105.451 23.987 105.644 23.7539 105.787C23.5377 105.934 23.259 106.037 22.9178 106.094V106.844H22.0903V106.085C21.84 106.04 21.6125 105.951 21.4077 105.821C21.203 105.69 21.0324 105.525 20.8959 105.326C20.6399 104.979 20.512 104.595 20.512 104.174H21.348C21.348 104.294 21.3679 104.419 21.4077 104.549C21.4532 104.675 21.5158 104.78 21.5954 104.865C21.7035 105.013 21.8343 105.13 21.9879 105.215C22.1414 105.295 22.3092 105.334 22.4912 105.334C22.6448 105.334 22.7955 105.314 22.9434 105.275C23.0969 105.229 23.2278 105.161 23.3358 105.07C23.5292 104.911 23.6259 104.692 23.6259 104.413C23.6259 104.288 23.5974 104.177 23.5406 104.08C23.4894 103.978 23.4041 103.881 23.2846 103.79C23.1766 103.705 23.0571 103.631 22.9263 103.568C22.7955 103.506 22.6277 103.432 22.423 103.347C22.2865 103.295 22.1358 103.23 21.9708 103.15C21.5215 102.957 21.1831 102.718 20.9556 102.434C20.8532 102.309 20.7707 102.161 20.7082 101.99C20.6456 101.814 20.6143 101.635 20.6143 101.453C20.6143 101.219 20.6627 100.992 20.7594 100.77C20.8561 100.548 20.9897 100.361 21.1603 100.207C21.4106 99.9796 21.7206 99.8317 22.0903 99.7634V99.0127H22.9178V99.7805C23.3273 99.8658 23.6628 100.071 23.9245 100.395C24.2202 100.73 24.3709 101.123 24.3766 101.572H23.5064C23.5064 101.328 23.424 101.1 23.259 100.89C23.0429 100.645 22.7841 100.523 22.4827 100.523C22.1813 100.523 21.9338 100.619 21.7405 100.813C21.5698 100.983 21.4845 101.194 21.4845 101.444C21.4845 101.649 21.5414 101.819 21.6552 101.956C21.7291 102.058 21.8372 102.152 21.9793 102.238C22.1272 102.323 22.3121 102.408 22.5339 102.493C22.9775 102.681 23.2932 102.823 23.4808 102.92C23.6685 103.017 23.842 103.145 24.0013 103.304Z" fill="#7D7D7D"/>
<path d="M27.1125 99.8574V106H26.2679V100.77L25.1162 101.47V100.548L26.2679 99.8574H27.1125Z" fill="#7D7D7D"/>
<path d="M28.3551 101.649C28.3494 101.376 28.4034 101.114 28.5172 100.864C28.6309 100.608 28.7873 100.389 28.9864 100.207C29.1684 100.048 29.3789 99.9286 29.6177 99.849C29.8566 99.7693 30.104 99.7295 30.3599 99.7295C30.6443 99.7295 30.9088 99.7807 31.1534 99.8831C31.3979 99.9798 31.6055 100.127 31.7761 100.327C31.9468 100.503 32.0776 100.708 32.1686 100.941C32.2596 101.168 32.3051 101.407 32.3051 101.657C32.3051 101.993 32.2311 102.289 32.0833 102.545C31.9411 102.801 31.705 103.085 31.3752 103.398L29.5921 105.206H32.2454V105.991H28.321V105.206L30.906 102.698C31.27 102.351 31.452 102.001 31.452 101.649C31.452 101.507 31.4264 101.367 31.3752 101.231C31.324 101.094 31.25 100.975 31.1534 100.873C30.9315 100.634 30.6529 100.514 30.3173 100.514C30.1751 100.514 30.0386 100.543 29.9078 100.6C29.777 100.651 29.6604 100.725 29.558 100.821C29.4443 100.924 29.3561 101.049 29.2935 101.197C29.231 101.339 29.1997 101.49 29.1997 101.649H28.3551Z" fill="#7D7D7D"/>
<path d="M35.9132 105.949C35.6402 106.062 35.3444 106.119 35.0259 106.119C34.7131 106.119 34.4174 106.062 34.1387 105.949C33.86 105.829 33.6239 105.659 33.4306 105.437C33.2429 105.215 33.1092 104.987 33.0296 104.754C32.9557 104.515 32.9187 104.237 32.9187 103.918V101.93C32.9187 101.612 32.9557 101.333 33.0296 101.094C33.1092 100.855 33.2457 100.622 33.4391 100.395C33.6325 100.179 33.8685 100.014 34.1472 99.9001C34.4316 99.7864 34.7359 99.7295 35.06 99.7295C35.3558 99.7295 35.6373 99.7864 35.9046 99.9001C36.1776 100.014 36.4108 100.179 36.6042 100.395C36.7976 100.611 36.9341 100.841 37.0137 101.086C37.0933 101.325 37.1331 101.606 37.1331 101.93V103.918C37.1331 104.231 37.0933 104.51 37.0137 104.754C36.9398 104.999 36.809 105.226 36.6213 105.437C36.4279 105.659 36.1919 105.829 35.9132 105.949ZM35.6402 100.676C35.4468 100.568 35.242 100.514 35.0259 100.514C34.8098 100.514 34.605 100.568 34.4117 100.676C34.224 100.784 34.0733 100.929 33.9595 101.111C33.8856 101.219 33.8344 101.339 33.8059 101.47C33.7775 101.601 33.7633 101.754 33.7633 101.93V103.918C33.7633 104.089 33.7775 104.242 33.8059 104.379C33.8344 104.515 33.8884 104.643 33.968 104.763C34.0875 104.939 34.2382 105.081 34.4202 105.189C34.6079 105.292 34.8098 105.34 35.0259 105.334C35.242 105.34 35.444 105.292 35.6316 105.189C35.8193 105.081 35.9729 104.936 36.0923 104.754C36.1663 104.64 36.2175 104.521 36.2459 104.396C36.2743 104.265 36.2886 104.106 36.2886 103.918V101.93C36.2886 101.754 36.2743 101.606 36.2459 101.487C36.2231 101.362 36.1748 101.237 36.1009 101.111C35.9871 100.929 35.8335 100.784 35.6402 100.676Z" fill="#7D7D7D"/>
<path d="M45.4165 101.734C45.6269 101.91 45.7663 102.118 45.8345 102.357C45.9084 102.596 45.9454 102.894 45.9454 103.253L45.9369 106H45.1093L45.1179 103.253C45.1179 103.025 45.0951 102.849 45.0496 102.724C45.0098 102.593 44.9245 102.468 44.7937 102.348C44.7141 102.269 44.6174 102.206 44.5036 102.161C44.3899 102.115 44.2761 102.092 44.1624 102.092C44.0145 102.092 43.8752 102.124 43.7443 102.186C43.6135 102.243 43.5026 102.326 43.4116 102.434C43.3206 102.542 43.2581 102.656 43.2239 102.775C43.1955 102.889 43.1813 103.022 43.1813 103.176V106H42.3537V103.253C42.3537 103.025 42.3338 102.849 42.294 102.724C42.2542 102.593 42.1689 102.468 42.0381 102.348C41.8561 102.178 41.6428 102.092 41.3982 102.092C41.2504 102.092 41.111 102.124 40.9802 102.186C40.8551 102.243 40.747 102.326 40.656 102.434C40.5593 102.542 40.4939 102.656 40.4598 102.775C40.4314 102.889 40.4171 103.022 40.4171 103.176V106H39.5896V101.393H40.3233V101.982C40.4769 101.788 40.6674 101.637 40.8949 101.529C41.1281 101.416 41.3726 101.359 41.6286 101.359C41.8106 101.359 41.9897 101.393 42.1661 101.461C42.3481 101.524 42.5101 101.615 42.6523 101.734C42.7832 101.842 42.8941 101.973 42.9851 102.127L43.0107 102.075C43.1585 101.854 43.3547 101.68 43.5993 101.555C43.8496 101.424 44.1112 101.359 44.3842 101.359C44.5662 101.359 44.7482 101.393 44.9302 101.461C45.1122 101.524 45.2743 101.615 45.4165 101.734Z" fill="#7D7D7D"/>
<path d="M47.7209 99.8145V100.642H46.8933V99.8145H47.7209ZM47.7209 101.393V106H46.8933V101.393H47.7209Z" fill="#7D7D7D"/>
<path d="M49.6632 106H48.8357V99.7295H49.6632V106Z" fill="#7D7D7D"/>
<path d="M51.5229 106H50.6953V99.7295H51.5229V106Z" fill="#7D7D7D"/>
<path d="M53.468 99.8145V100.642H52.6404V99.8145H53.468ZM53.468 101.393V106H52.6404V101.393H53.468Z" fill="#7D7D7D"/>
<path d="M56.5621 106.128C56.2208 106.128 55.9023 106.062 55.6066 105.932C55.3108 105.801 55.0634 105.613 54.8643 105.369C54.506 104.925 54.3269 104.367 54.3269 103.696C54.3269 103.025 54.506 102.465 54.8643 102.016C55.0577 101.777 55.3051 101.592 55.6066 101.461C55.908 101.33 56.2265 101.265 56.5621 101.265C56.9033 101.265 57.2218 101.33 57.5176 101.461C57.819 101.586 58.0693 101.771 58.2683 102.016C58.6266 102.465 58.8058 103.025 58.8058 103.696C58.8058 104.356 58.6266 104.913 58.2683 105.369C58.0636 105.619 57.8133 105.809 57.5176 105.94C57.2275 106.065 56.909 106.128 56.5621 106.128ZM57.6114 104.865C57.8218 104.586 57.9271 104.197 57.9271 103.696C57.9271 103.19 57.8218 102.798 57.6114 102.519C57.4977 102.365 57.3469 102.249 57.1592 102.169C56.9772 102.09 56.7782 102.05 56.5621 102.05C56.3459 102.05 56.1469 102.09 55.9649 102.169C55.7829 102.249 55.635 102.365 55.5212 102.519C55.3108 102.798 55.2056 103.19 55.2056 103.696C55.2056 104.197 55.3108 104.586 55.5212 104.865C55.635 105.019 55.7829 105.138 55.9649 105.223C56.1469 105.303 56.3459 105.343 56.5621 105.343C56.7782 105.343 56.9772 105.303 57.1592 105.223C57.3412 105.138 57.492 105.019 57.6114 104.865Z" fill="#7D7D7D"/>
<path d="M62.9645 101.7C63.2489 101.928 63.4394 102.203 63.5361 102.528C63.6328 102.852 63.6783 103.25 63.6726 103.722V106H62.8365V103.722C62.8365 103.392 62.8052 103.113 62.7427 102.886C62.6801 102.653 62.5607 102.465 62.3844 102.323C62.1682 102.147 61.8924 102.064 61.5568 102.075C61.2781 102.092 61.0449 102.178 60.8573 102.331C60.6468 102.502 60.516 102.741 60.4648 103.048C60.4364 103.167 60.4193 103.31 60.4136 103.475C60.4079 103.639 60.4051 103.807 60.4051 103.978V106H59.5776V101.393H60.3113V101.854C60.3113 101.854 60.3425 101.822 60.4051 101.76C60.5814 101.601 60.7862 101.481 61.0194 101.401C61.2582 101.322 61.4999 101.282 61.7445 101.282C61.9663 101.282 62.1824 101.319 62.3929 101.393C62.609 101.461 62.7995 101.564 62.9645 101.7Z" fill="#7D7D7D"/>
</svg>
