<svg width="10" height="10" viewBox="0 0 10 10" fill="none" xmlns="http://www.w3.org/2000/svg">
<g clip-path="url(#clip0_2029_240)">
<path fill-rule="evenodd" clip-rule="evenodd" d="M0.290039 0.875869C0.290039 0.486095 0.606 0.170136 0.995772 0.170135H9.81732L9.81727 8.99166C9.81727 9.38144 9.50132 9.69739 9.11154 9.69739C8.72182 9.69744 8.40582 9.38144 8.40588 8.99166V4.28337C8.40582 3.65464 7.64566 3.33982 7.2011 3.7844L1.84764 9.13789C1.57206 9.41344 1.12517 9.41344 0.849594 9.13789C0.573983 8.86222 0.573983 8.41533 0.849555 8.13977L6.20304 2.78631C6.64766 2.3417 6.33277 1.5816 5.70404 1.58156L0.995733 1.58156C0.606 1.5816 0.29 1.2656 0.290039 0.875869Z" fill="#9C9C9C"/>
</g>
<defs>
<clipPath id="clip0_2029_240">
<rect width="10" height="10" fill="white"/>
</clipPath>
</defs>
</svg>
