<svg width="180" height="20" viewBox="0 0 180 20" fill="none" xmlns="http://www.w3.org/2000/svg">
<path d="M17.7756 17.0252C20.0099 17.0252 21.1023 16.3014 21.1023 14.8537V0H24.9057V14.8735C24.9057 18.2548 22.5521 20 17.7756 20H7.13009C2.35353 20 0 18.2548 0 14.814V0H3.80338V14.7942C3.80338 16.2419 4.89573 17.0252 7.13009 17.0252H17.7756Z" fill="white"/>
<path d="M28.54 0H32.0356L43.8826 16.3014L55.7496 0H59.0068V19.9801H55.3821V6.09815L45.3424 19.9801H42.264L32.1647 6.09815V19.9801H28.54V0Z" fill="white"/>
<path d="M62.6914 0H66.5047V19.9801H62.6914V0Z" fill="white"/>
<path d="M73.8727 4.76945V19.9801H70.3076V0H73.2868L93.1477 15.3297V0H96.7227V19.9801H93.7436L73.8727 4.76945Z" fill="white"/>
<path d="M128.897 19.9801V0H144.786C149.563 0 151.916 1.44769 151.916 4.28358V6.70301C151.916 9.11252 150.288 10.5007 146.951 10.9271L151.668 19.9206H147.616L142.899 10.9965H132.592V19.99L128.897 19.9801ZM132.711 2.97471V8.17053H144.747C146.981 8.17053 148.073 7.68466 148.073 6.78234V4.34307C148.073 3.44075 146.981 2.95488 144.747 2.95488L132.711 2.97471Z" fill="white"/>
<path d="M172.87 7.84331C177.647 7.84331 180 9.30092 180 12.1368V15.6965C180 18.5324 177.647 19.9206 172.87 19.9206H155.82V16.9459H172.87C175.105 16.9459 176.187 16.5195 176.187 15.6172V12.0773C176.187 11.1651 175.105 10.6891 172.87 10.6891H162.225C157.448 10.6891 155.095 9.23151 155.095 6.39562V4.28358C155.095 1.3882 157.448 0 162.225 0H178.729V2.97471H162.225C159.99 2.97471 158.898 3.46058 158.898 4.36291V6.53444C158.898 7.44669 159.99 7.93256 162.225 7.93256H172.87V7.84331Z" fill="white"/>
<path d="M125.988 0H99.8711V2.97471H125.988V0Z" fill="white"/>
<path d="M125.988 8.15063H99.8711V11.1253H125.988V8.15063Z" fill="white"/>
<path d="M125.988 17.0253H99.8711V20H125.988V17.0253Z" fill="white"/>
</svg>
