<svg width="41" height="37" viewBox="0 0 41 37" fill="none" xmlns="http://www.w3.org/2000/svg">
<path d="M8 29.1921H15.7344C18.5628 29.1921 19.977 29.1921 20.8557 28.3135C21.7344 27.4348 21.7344 26.0206 21.7344 23.1921V8C21.7344 5.17157 21.7344 3.75736 20.8557 2.87868C19.977 2 18.5628 2 15.7344 2H8C5.17157 2 3.75736 2 2.87868 2.87868C2 3.75736 2 5.17157 2 8V23.1921C2 26.0206 2 27.4348 2.87868 28.3135C3.75736 29.1921 5.17157 29.1921 8 29.1921Z" stroke="#00C1AD" stroke-width="3" stroke-linecap="round"/>
<path d="M19.4949 29.1921V29.1921C19.4949 31.3043 19.4949 32.3604 20.003 33.1184C20.2206 33.4431 20.4997 33.7221 20.8244 33.9398C21.5823 34.4479 22.6384 34.4479 24.7506 34.4479H33.2292C36.0577 34.4479 37.4719 34.4479 38.3506 33.5692C39.2292 32.6905 39.2292 31.2763 39.2292 28.4479V13.2557C39.2292 10.4273 39.2292 9.0131 38.3506 8.13442C37.4719 7.25574 36.0577 7.25574 33.2292 7.25574H22.0706" stroke="#00C1AD" stroke-width="3" stroke-linecap="round"/>
<path d="M34.5845 23.571L26.1888 20.4011" stroke="#00C1AD" stroke-width="2" stroke-linecap="round" stroke-linejoin="round"/>
<path d="M29.0334 19.1519L26.1888 20.3998L27.4369 23.2355" stroke="#00C1AD" stroke-width="2" stroke-linecap="round" stroke-linejoin="round"/>
<path d="M7.99898 14.9644L16.3946 18.1343" stroke="#00C1AD" stroke-width="2" stroke-linecap="round" stroke-linejoin="round"/>
<path d="M13.55 19.3835L16.3946 18.1357L15.1466 15.2999" stroke="#00C1AD" stroke-width="2" stroke-linecap="round" stroke-linejoin="round"/>
</svg>
