<svg width="565" height="256" viewBox="0 0 565 256" fill="none" xmlns="http://www.w3.org/2000/svg">
<path d="M1 255C15.075 224.646 31.229 198.74 52.182 193.42C73.134 188.1 79.932 231.535 103.364 224.646C126.795 217.757 136.552 167.152 154.545 161.294C172.539 155.437 184.375 195.136 205.727 192.811C227.08 190.486 235.717 137.645 256.909 149.47C278.102 161.294 286.179 187.383 308.091 193.808C330.003 200.232 340.16 158.13 359.273 162.026C378.386 165.923 388.862 172.807 410.455 169.064C432.047 165.321 440.204 120.899 461.636 139.855C483.069 158.811 487.147 80.548 512.818 73.8073C538.489 67.067 553.444 47.811 564 1" stroke="#00FFBF" stroke-width="2" stroke-linejoin="round"/>
</svg>
