<svg width="701" height="279" viewBox="0 0 701 279" fill="none" xmlns="http://www.w3.org/2000/svg">
<path d="M48.187 233.458C48.187 233.698 48.193 233.968 48.205 234.268C48.223 234.562 48.271 234.841 48.349 235.105C48.433 235.363 48.565 235.582 48.745 235.762C48.925 235.942 49.177 236.032 49.501 236.032C49.825 236.032 50.077 235.942 50.257 235.762C50.437 235.582 50.566 235.363 50.644 235.105C50.728 234.841 50.776 234.562 50.788 234.268C50.806 233.968 50.815 233.698 50.815 233.458C50.815 233.302 50.812 233.131 50.806 232.945C50.806 232.753 50.791 232.564 50.761 232.378C50.737 232.186 50.698 232 50.644 231.82C50.596 231.64 50.521 231.484 50.419 231.352C50.323 231.214 50.2 231.103 50.05 231.019C49.9 230.935 49.717 230.893 49.501 230.893C49.285 230.893 49.102 230.935 48.952 231.019C48.802 231.103 48.676 231.214 48.574 231.352C48.478 231.484 48.403 231.64 48.349 231.82C48.301 232 48.262 232.186 48.232 232.378C48.208 232.564 48.193 232.753 48.187 232.945C48.187 233.131 48.187 233.302 48.187 233.458ZM47.377 233.467C47.377 233.233 47.383 232.99 47.395 232.738C47.407 232.486 47.437 232.24 47.485 232C47.533 231.76 47.602 231.532 47.692 231.316C47.782 231.1 47.905 230.911 48.061 230.749C48.217 230.587 48.412 230.458 48.646 230.362C48.886 230.266 49.171 230.218 49.501 230.218C49.831 230.218 50.113 230.266 50.347 230.362C50.587 230.458 50.785 230.587 50.941 230.749C51.097 230.911 51.22 231.1 51.31 231.316C51.4 231.532 51.469 231.76 51.517 232C51.565 232.24 51.595 232.486 51.607 232.738C51.619 232.99 51.625 233.233 51.625 233.467C51.625 233.701 51.619 233.944 51.607 234.196C51.595 234.448 51.565 234.694 51.517 234.934C51.469 235.174 51.4 235.402 51.31 235.618C51.22 235.828 51.097 236.014 50.941 236.176C50.785 236.338 50.59 236.467 50.356 236.563C50.122 236.653 49.837 236.698 49.501 236.698C49.171 236.698 48.886 236.653 48.646 236.563C48.412 236.467 48.217 236.338 48.061 236.176C47.905 236.014 47.782 235.828 47.692 235.618C47.602 235.402 47.533 235.174 47.485 234.934C47.437 234.694 47.407 234.448 47.395 234.196C47.383 233.944 47.377 233.701 47.377 233.467Z" fill="white" fill-opacity="0.49"/>
<path d="M60 233.599H681" stroke="white" stroke-opacity="0.49"/>
<path d="M87.549 250.007C87.711 249.869 87.888 249.719 88.08 249.557C88.278 249.389 88.461 249.209 88.629 249.017C88.803 248.825 88.95 248.624 89.07 248.414C89.19 248.198 89.253 247.964 89.259 247.712C89.271 247.328 89.16 247.034 88.926 246.83C88.692 246.62 88.383 246.515 87.999 246.515C87.693 246.515 87.426 246.578 87.198 246.704C86.97 246.83 86.82 247.013 86.748 247.253H85.911C85.953 247.007 86.04 246.794 86.172 246.614C86.31 246.428 86.475 246.275 86.667 246.155C86.865 246.035 87.081 245.945 87.315 245.885C87.549 245.825 87.789 245.795 88.035 245.795C88.329 245.795 88.599 245.837 88.845 245.921C89.091 245.999 89.304 246.116 89.484 246.272C89.664 246.428 89.802 246.623 89.898 246.857C90 247.085 90.051 247.346 90.051 247.64C90.051 247.934 90.006 248.198 89.916 248.432C89.832 248.666 89.715 248.882 89.565 249.08C89.421 249.278 89.256 249.464 89.07 249.638C88.884 249.812 88.692 249.986 88.494 250.16L86.883 251.519H90.123V252.23H85.749V251.582L87.549 250.007ZM96.058 249.053C96.058 249.461 96.016 249.86 95.932 250.25C95.854 250.64 95.719 250.988 95.527 251.294C95.335 251.594 95.08 251.837 94.762 252.023C94.444 252.209 94.048 252.302 93.574 252.302C93.094 252.302 92.695 252.209 92.377 252.023C92.059 251.837 91.804 251.594 91.612 251.294C91.42 250.988 91.285 250.646 91.207 250.268C91.129 249.89 91.09 249.485 91.09 249.053C91.09 248.621 91.129 248.216 91.207 247.838C91.285 247.454 91.42 247.112 91.612 246.812C91.804 246.512 92.059 246.269 92.377 246.083C92.695 245.891 93.094 245.795 93.574 245.795C94.048 245.795 94.444 245.888 94.762 246.074C95.08 246.26 95.335 246.506 95.527 246.812C95.719 247.118 95.854 247.466 95.932 247.856C96.016 248.246 96.058 248.645 96.058 249.053ZM91.891 249.053C91.891 249.341 91.912 249.635 91.954 249.935C91.996 250.235 92.077 250.508 92.197 250.754C92.317 251 92.485 251.201 92.701 251.357C92.923 251.513 93.214 251.591 93.574 251.591C93.928 251.591 94.213 251.513 94.429 251.357C94.651 251.201 94.822 251 94.942 250.754C95.062 250.508 95.143 250.235 95.185 249.935C95.227 249.635 95.248 249.341 95.248 249.053C95.248 248.771 95.227 248.48 95.185 248.18C95.143 247.88 95.062 247.607 94.942 247.361C94.822 247.109 94.651 246.905 94.429 246.749C94.213 246.587 93.928 246.506 93.574 246.506C93.214 246.506 92.923 246.587 92.701 246.749C92.485 246.905 92.317 247.109 92.197 247.361C92.077 247.607 91.996 247.88 91.954 248.18C91.912 248.48 91.891 248.771 91.891 249.053ZM98.867 252.23H98.084V247.127H96.788V246.596C96.968 246.584 97.133 246.569 97.283 246.551C97.433 246.527 97.571 246.488 97.697 246.434C97.823 246.38 97.937 246.308 98.039 246.218C98.141 246.128 98.234 246.011 98.318 245.867H98.867V252.23ZM102.451 252.302C102.199 252.302 101.944 252.278 101.686 252.23C101.434 252.182 101.197 252.101 100.975 251.987C100.759 251.867 100.573 251.711 100.417 251.519C100.267 251.327 100.171 251.09 100.129 250.808H100.939C100.993 250.964 101.074 251.093 101.182 251.195C101.296 251.291 101.422 251.369 101.56 251.429C101.704 251.489 101.854 251.531 102.01 251.555C102.166 251.579 102.316 251.591 102.46 251.591C102.592 251.591 102.742 251.579 102.91 251.555C103.078 251.531 103.234 251.48 103.378 251.402C103.528 251.324 103.651 251.21 103.747 251.06C103.849 250.904 103.9 250.7 103.9 250.448C103.9 250.208 103.852 250.016 103.756 249.872C103.666 249.728 103.546 249.617 103.396 249.539C103.252 249.461 103.087 249.41 102.901 249.386C102.721 249.362 102.538 249.35 102.352 249.35H101.74V248.648H102.109C102.271 248.648 102.421 248.645 102.559 248.639C102.697 248.627 102.85 248.585 103.018 248.513C103.21 248.423 103.363 248.297 103.477 248.135C103.591 247.967 103.651 247.775 103.657 247.559C103.657 247.343 103.621 247.166 103.549 247.028C103.477 246.89 103.381 246.782 103.261 246.704C103.141 246.626 103.006 246.575 102.856 246.551C102.706 246.521 102.553 246.506 102.397 246.506C102.271 246.506 102.139 246.521 102.001 246.551C101.869 246.575 101.743 246.617 101.623 246.677C101.509 246.737 101.407 246.818 101.317 246.92C101.227 247.016 101.164 247.133 101.128 247.271H100.345C100.381 247.007 100.465 246.782 100.597 246.596C100.729 246.41 100.891 246.257 101.083 246.137C101.281 246.017 101.497 245.93 101.731 245.876C101.971 245.822 102.214 245.795 102.46 245.795C102.73 245.795 102.982 245.825 103.216 245.885C103.456 245.939 103.666 246.032 103.846 246.164C104.026 246.29 104.167 246.458 104.269 246.668C104.377 246.878 104.431 247.133 104.431 247.433C104.431 247.547 104.419 247.67 104.395 247.802C104.371 247.928 104.326 248.054 104.26 248.18C104.194 248.306 104.098 248.432 103.972 248.558C103.846 248.684 103.681 248.789 103.477 248.873C103.879 248.951 104.185 249.128 104.395 249.404C104.605 249.674 104.71 250.001 104.71 250.385V250.421C104.71 250.751 104.65 251.036 104.53 251.276C104.416 251.51 104.257 251.705 104.053 251.861C103.849 252.011 103.609 252.122 103.333 252.194C103.057 252.266 102.763 252.302 102.451 252.302Z" fill="white" fill-opacity="0.49"/>
<path d="M189.322 250.007C189.484 249.869 189.661 249.719 189.853 249.557C190.051 249.389 190.234 249.209 190.402 249.017C190.576 248.825 190.723 248.624 190.843 248.414C190.963 248.198 191.026 247.964 191.032 247.712C191.044 247.328 190.933 247.034 190.699 246.83C190.465 246.62 190.156 246.515 189.772 246.515C189.466 246.515 189.199 246.578 188.971 246.704C188.743 246.83 188.593 247.013 188.521 247.253H187.684C187.726 247.007 187.813 246.794 187.945 246.614C188.083 246.428 188.248 246.275 188.44 246.155C188.638 246.035 188.854 245.945 189.088 245.885C189.322 245.825 189.562 245.795 189.808 245.795C190.102 245.795 190.372 245.837 190.618 245.921C190.864 245.999 191.077 246.116 191.257 246.272C191.437 246.428 191.575 246.623 191.671 246.857C191.773 247.085 191.824 247.346 191.824 247.64C191.824 247.934 191.779 248.198 191.689 248.432C191.605 248.666 191.488 248.882 191.338 249.08C191.194 249.278 191.029 249.464 190.843 249.638C190.657 249.812 190.465 249.986 190.267 250.16L188.656 251.519H191.896V252.23H187.522V251.582L189.322 250.007ZM197.831 249.053C197.831 249.461 197.789 249.86 197.705 250.25C197.627 250.64 197.492 250.988 197.3 251.294C197.108 251.594 196.853 251.837 196.535 252.023C196.217 252.209 195.821 252.302 195.347 252.302C194.867 252.302 194.468 252.209 194.15 252.023C193.832 251.837 193.577 251.594 193.385 251.294C193.193 250.988 193.058 250.646 192.98 250.268C192.902 249.89 192.863 249.485 192.863 249.053C192.863 248.621 192.902 248.216 192.98 247.838C193.058 247.454 193.193 247.112 193.385 246.812C193.577 246.512 193.832 246.269 194.15 246.083C194.468 245.891 194.867 245.795 195.347 245.795C195.821 245.795 196.217 245.888 196.535 246.074C196.853 246.26 197.108 246.506 197.3 246.812C197.492 247.118 197.627 247.466 197.705 247.856C197.789 248.246 197.831 248.645 197.831 249.053ZM193.664 249.053C193.664 249.341 193.685 249.635 193.727 249.935C193.769 250.235 193.85 250.508 193.97 250.754C194.09 251 194.258 251.201 194.474 251.357C194.696 251.513 194.987 251.591 195.347 251.591C195.701 251.591 195.986 251.513 196.202 251.357C196.424 251.201 196.595 251 196.715 250.754C196.835 250.508 196.916 250.235 196.958 249.935C197 249.635 197.021 249.341 197.021 249.053C197.021 248.771 197 248.48 196.958 248.18C196.916 247.88 196.835 247.607 196.715 247.361C196.595 247.109 196.424 246.905 196.202 246.749C195.986 246.587 195.701 246.506 195.347 246.506C194.987 246.506 194.696 246.587 194.474 246.749C194.258 246.905 194.09 247.109 193.97 247.361C193.85 247.607 193.769 247.88 193.727 248.18C193.685 248.48 193.664 248.771 193.664 249.053ZM200.639 252.23H199.856V247.127H198.56V246.596C198.74 246.584 198.905 246.569 199.055 246.551C199.205 246.527 199.343 246.488 199.469 246.434C199.595 246.38 199.709 246.308 199.811 246.218C199.913 246.128 200.006 246.011 200.09 245.867H200.639V252.23ZM202.343 249.368L202.631 245.867H206.438V246.587H203.333L203.153 248.585C203.315 248.453 203.513 248.348 203.747 248.27C203.981 248.186 204.269 248.144 204.611 248.144C204.917 248.144 205.196 248.192 205.448 248.288C205.7 248.384 205.916 248.522 206.096 248.702C206.276 248.876 206.414 249.089 206.51 249.341C206.612 249.593 206.663 249.872 206.663 250.178C206.663 250.514 206.603 250.814 206.483 251.078C206.369 251.336 206.21 251.558 206.006 251.744C205.802 251.93 205.559 252.071 205.277 252.167C205.001 252.263 204.701 252.311 204.377 252.311C204.113 252.311 203.858 252.281 203.612 252.221C203.372 252.161 203.153 252.071 202.955 251.951C202.757 251.825 202.589 251.666 202.451 251.474C202.313 251.282 202.217 251.054 202.163 250.79H202.955C203.003 250.916 203.075 251.03 203.171 251.132C203.267 251.228 203.375 251.312 203.495 251.384C203.621 251.45 203.753 251.501 203.891 251.537C204.029 251.573 204.167 251.591 204.305 251.591C204.521 251.591 204.722 251.564 204.908 251.51C205.1 251.456 205.265 251.375 205.403 251.267C205.547 251.153 205.658 251.012 205.736 250.844C205.814 250.67 205.853 250.463 205.853 250.223C205.853 249.785 205.721 249.449 205.457 249.215C205.193 248.981 204.851 248.864 204.431 248.864C204.179 248.864 203.945 248.909 203.729 248.999C203.519 249.089 203.327 249.212 203.153 249.368H202.343Z" fill="white" fill-opacity="0.49"/>
<path d="M291.676 250.007C291.838 249.869 292.015 249.719 292.207 249.557C292.405 249.389 292.588 249.209 292.756 249.017C292.93 248.825 293.077 248.624 293.197 248.414C293.317 248.198 293.38 247.964 293.386 247.712C293.398 247.328 293.287 247.034 293.053 246.83C292.819 246.62 292.51 246.515 292.126 246.515C291.82 246.515 291.553 246.578 291.325 246.704C291.097 246.83 290.947 247.013 290.875 247.253H290.038C290.08 247.007 290.167 246.794 290.299 246.614C290.437 246.428 290.602 246.275 290.794 246.155C290.992 246.035 291.208 245.945 291.442 245.885C291.676 245.825 291.916 245.795 292.162 245.795C292.456 245.795 292.726 245.837 292.972 245.921C293.218 245.999 293.431 246.116 293.611 246.272C293.791 246.428 293.929 246.623 294.025 246.857C294.127 247.085 294.178 247.346 294.178 247.64C294.178 247.934 294.133 248.198 294.043 248.432C293.959 248.666 293.842 248.882 293.692 249.08C293.548 249.278 293.383 249.464 293.197 249.638C293.011 249.812 292.819 249.986 292.621 250.16L291.01 251.519H294.25V252.23H289.876V251.582L291.676 250.007ZM300.185 249.053C300.185 249.461 300.143 249.86 300.059 250.25C299.981 250.64 299.846 250.988 299.654 251.294C299.462 251.594 299.207 251.837 298.889 252.023C298.571 252.209 298.175 252.302 297.701 252.302C297.221 252.302 296.822 252.209 296.504 252.023C296.186 251.837 295.931 251.594 295.739 251.294C295.547 250.988 295.412 250.646 295.334 250.268C295.256 249.89 295.217 249.485 295.217 249.053C295.217 248.621 295.256 248.216 295.334 247.838C295.412 247.454 295.547 247.112 295.739 246.812C295.931 246.512 296.186 246.269 296.504 246.083C296.822 245.891 297.221 245.795 297.701 245.795C298.175 245.795 298.571 245.888 298.889 246.074C299.207 246.26 299.462 246.506 299.654 246.812C299.846 247.118 299.981 247.466 300.059 247.856C300.143 248.246 300.185 248.645 300.185 249.053ZM296.018 249.053C296.018 249.341 296.039 249.635 296.081 249.935C296.123 250.235 296.204 250.508 296.324 250.754C296.444 251 296.612 251.201 296.828 251.357C297.05 251.513 297.341 251.591 297.701 251.591C298.055 251.591 298.34 251.513 298.556 251.357C298.778 251.201 298.949 251 299.069 250.754C299.189 250.508 299.27 250.235 299.312 249.935C299.354 249.635 299.375 249.341 299.375 249.053C299.375 248.771 299.354 248.48 299.312 248.18C299.27 247.88 299.189 247.607 299.069 247.361C298.949 247.109 298.778 246.905 298.556 246.749C298.34 246.587 298.055 246.506 297.701 246.506C297.341 246.506 297.05 246.587 296.828 246.749C296.612 246.905 296.444 247.109 296.324 247.361C296.204 247.607 296.123 247.88 296.081 248.18C296.039 248.48 296.018 248.771 296.018 249.053ZM302.993 252.23H302.21V247.127H300.914V246.596C301.094 246.584 301.259 246.569 301.409 246.551C301.559 246.527 301.697 246.488 301.823 246.434C301.949 246.38 302.063 246.308 302.165 246.218C302.267 246.128 302.36 246.011 302.444 245.867H302.993V252.23ZM304.858 252.23L307.432 246.587H304.066V245.867H308.296V246.515L305.722 252.23H304.858Z" fill="white" fill-opacity="0.49"/>
<path d="M393.009 250.007C393.171 249.869 393.348 249.719 393.54 249.557C393.738 249.389 393.921 249.209 394.089 249.017C394.263 248.825 394.41 248.624 394.53 248.414C394.65 248.198 394.713 247.964 394.719 247.712C394.731 247.328 394.62 247.034 394.386 246.83C394.152 246.62 393.843 246.515 393.459 246.515C393.153 246.515 392.886 246.578 392.658 246.704C392.43 246.83 392.28 247.013 392.208 247.253H391.371C391.413 247.007 391.5 246.794 391.632 246.614C391.77 246.428 391.935 246.275 392.127 246.155C392.325 246.035 392.541 245.945 392.775 245.885C393.009 245.825 393.249 245.795 393.495 245.795C393.789 245.795 394.059 245.837 394.305 245.921C394.551 245.999 394.764 246.116 394.944 246.272C395.124 246.428 395.262 246.623 395.358 246.857C395.46 247.085 395.511 247.346 395.511 247.64C395.511 247.934 395.466 248.198 395.376 248.432C395.292 248.666 395.175 248.882 395.025 249.08C394.881 249.278 394.716 249.464 394.53 249.638C394.344 249.812 394.152 249.986 393.954 250.16L392.343 251.519H395.583V252.23H391.209V251.582L393.009 250.007ZM401.518 249.053C401.518 249.461 401.476 249.86 401.392 250.25C401.314 250.64 401.179 250.988 400.987 251.294C400.795 251.594 400.54 251.837 400.222 252.023C399.904 252.209 399.508 252.302 399.034 252.302C398.554 252.302 398.155 252.209 397.837 252.023C397.519 251.837 397.264 251.594 397.072 251.294C396.88 250.988 396.745 250.646 396.667 250.268C396.589 249.89 396.55 249.485 396.55 249.053C396.55 248.621 396.589 248.216 396.667 247.838C396.745 247.454 396.88 247.112 397.072 246.812C397.264 246.512 397.519 246.269 397.837 246.083C398.155 245.891 398.554 245.795 399.034 245.795C399.508 245.795 399.904 245.888 400.222 246.074C400.54 246.26 400.795 246.506 400.987 246.812C401.179 247.118 401.314 247.466 401.392 247.856C401.476 248.246 401.518 248.645 401.518 249.053ZM397.351 249.053C397.351 249.341 397.372 249.635 397.414 249.935C397.456 250.235 397.537 250.508 397.657 250.754C397.777 251 397.945 251.201 398.161 251.357C398.383 251.513 398.674 251.591 399.034 251.591C399.388 251.591 399.673 251.513 399.889 251.357C400.111 251.201 400.282 251 400.402 250.754C400.522 250.508 400.603 250.235 400.645 249.935C400.687 249.635 400.708 249.341 400.708 249.053C400.708 248.771 400.687 248.48 400.645 248.18C400.603 247.88 400.522 247.607 400.402 247.361C400.282 247.109 400.111 246.905 399.889 246.749C399.673 246.587 399.388 246.506 399.034 246.506C398.674 246.506 398.383 246.587 398.161 246.749C397.945 246.905 397.777 247.109 397.657 247.361C397.537 247.607 397.456 247.88 397.414 248.18C397.372 248.48 397.351 248.771 397.351 249.053ZM404.326 252.23H403.543V247.127H402.247V246.596C402.427 246.584 402.592 246.569 402.742 246.551C402.892 246.527 403.03 246.488 403.156 246.434C403.282 246.38 403.396 246.308 403.498 246.218C403.6 246.128 403.693 246.011 403.777 245.867H404.326V252.23ZM409.621 248.945C409.537 249.119 409.429 249.269 409.297 249.395C409.165 249.515 409.018 249.614 408.856 249.692C408.694 249.77 408.523 249.827 408.343 249.863C408.169 249.893 407.992 249.908 407.812 249.908C407.53 249.908 407.266 249.866 407.02 249.782C406.774 249.692 406.558 249.563 406.372 249.395C406.192 249.227 406.048 249.02 405.94 248.774C405.832 248.528 405.778 248.243 405.778 247.919C405.778 247.601 405.832 247.313 405.94 247.055C406.048 246.791 406.198 246.566 406.39 246.38C406.588 246.194 406.819 246.05 407.083 245.948C407.347 245.846 407.65 245.795 407.992 245.795C408.46 245.795 408.847 245.9 409.153 246.11C409.459 246.314 409.702 246.578 409.882 246.902C410.062 247.226 410.188 247.589 410.26 247.991C410.332 248.393 410.368 248.789 410.368 249.179C410.368 249.611 410.317 250.034 410.215 250.448C410.119 250.856 409.96 251.204 409.738 251.492C409.546 251.744 409.294 251.942 408.982 252.086C408.676 252.23 408.307 252.302 407.875 252.302C407.647 252.302 407.422 252.275 407.2 252.221C406.984 252.161 406.786 252.074 406.606 251.96C406.426 251.84 406.27 251.696 406.138 251.528C406.006 251.354 405.91 251.15 405.85 250.916H406.714C406.816 251.144 406.987 251.315 407.227 251.429C407.473 251.537 407.719 251.591 407.965 251.591C408.259 251.585 408.508 251.525 408.712 251.411C408.916 251.297 409.081 251.144 409.207 250.952C409.297 250.814 409.369 250.661 409.423 250.493C409.477 250.319 409.519 250.151 409.549 249.989C409.579 249.821 409.597 249.662 409.603 249.512C409.615 249.362 409.621 249.239 409.621 249.143V248.945ZM406.579 247.847C406.579 248.267 406.699 248.594 406.939 248.828C407.185 249.062 407.515 249.182 407.929 249.188C408.121 249.188 408.301 249.158 408.469 249.098C408.643 249.038 408.793 248.951 408.919 248.837C409.051 248.723 409.153 248.588 409.225 248.432C409.303 248.27 409.342 248.093 409.342 247.901C409.342 247.697 409.306 247.511 409.234 247.343C409.168 247.169 409.072 247.022 408.946 246.902C408.826 246.776 408.682 246.68 408.514 246.614C408.346 246.542 408.163 246.506 407.965 246.506C407.767 246.506 407.581 246.542 407.407 246.614C407.239 246.686 407.092 246.782 406.966 246.902C406.846 247.022 406.75 247.163 406.678 247.325C406.612 247.487 406.579 247.661 406.579 247.847Z" fill="white" fill-opacity="0.49"/>
<path d="M495.169 250.007C495.331 249.869 495.508 249.719 495.7 249.557C495.898 249.389 496.081 249.209 496.249 249.017C496.423 248.825 496.57 248.624 496.69 248.414C496.81 248.198 496.873 247.964 496.879 247.712C496.891 247.328 496.78 247.034 496.546 246.83C496.312 246.62 496.003 246.515 495.619 246.515C495.313 246.515 495.046 246.578 494.818 246.704C494.59 246.83 494.44 247.013 494.368 247.253H493.531C493.573 247.007 493.66 246.794 493.792 246.614C493.93 246.428 494.095 246.275 494.287 246.155C494.485 246.035 494.701 245.945 494.935 245.885C495.169 245.825 495.409 245.795 495.655 245.795C495.949 245.795 496.219 245.837 496.465 245.921C496.711 245.999 496.924 246.116 497.104 246.272C497.284 246.428 497.422 246.623 497.518 246.857C497.62 247.085 497.671 247.346 497.671 247.64C497.671 247.934 497.626 248.198 497.536 248.432C497.452 248.666 497.335 248.882 497.185 249.08C497.041 249.278 496.876 249.464 496.69 249.638C496.504 249.812 496.312 249.986 496.114 250.16L494.503 251.519H497.743V252.23H493.369V251.582L495.169 250.007ZM503.678 249.053C503.678 249.461 503.636 249.86 503.552 250.25C503.474 250.64 503.339 250.988 503.147 251.294C502.955 251.594 502.7 251.837 502.382 252.023C502.064 252.209 501.668 252.302 501.194 252.302C500.714 252.302 500.315 252.209 499.997 252.023C499.679 251.837 499.424 251.594 499.232 251.294C499.04 250.988 498.905 250.646 498.827 250.268C498.749 249.89 498.71 249.485 498.71 249.053C498.71 248.621 498.749 248.216 498.827 247.838C498.905 247.454 499.04 247.112 499.232 246.812C499.424 246.512 499.679 246.269 499.997 246.083C500.315 245.891 500.714 245.795 501.194 245.795C501.668 245.795 502.064 245.888 502.382 246.074C502.7 246.26 502.955 246.506 503.147 246.812C503.339 247.118 503.474 247.466 503.552 247.856C503.636 248.246 503.678 248.645 503.678 249.053ZM499.511 249.053C499.511 249.341 499.532 249.635 499.574 249.935C499.616 250.235 499.697 250.508 499.817 250.754C499.937 251 500.105 251.201 500.321 251.357C500.543 251.513 500.834 251.591 501.194 251.591C501.548 251.591 501.833 251.513 502.049 251.357C502.271 251.201 502.442 251 502.562 250.754C502.682 250.508 502.763 250.235 502.805 249.935C502.847 249.635 502.868 249.341 502.868 249.053C502.868 248.771 502.847 248.48 502.805 248.18C502.763 247.88 502.682 247.607 502.562 247.361C502.442 247.109 502.271 246.905 502.049 246.749C501.833 246.587 501.548 246.506 501.194 246.506C500.834 246.506 500.543 246.587 500.321 246.749C500.105 246.905 499.937 247.109 499.817 247.361C499.697 247.607 499.616 247.88 499.574 248.18C499.532 248.48 499.511 248.771 499.511 249.053ZM506.12 250.007C506.282 249.869 506.459 249.719 506.651 249.557C506.849 249.389 507.032 249.209 507.2 249.017C507.374 248.825 507.521 248.624 507.641 248.414C507.761 248.198 507.824 247.964 507.83 247.712C507.842 247.328 507.731 247.034 507.497 246.83C507.263 246.62 506.954 246.515 506.57 246.515C506.264 246.515 505.997 246.578 505.769 246.704C505.541 246.83 505.391 247.013 505.319 247.253H504.482C504.524 247.007 504.611 246.794 504.743 246.614C504.881 246.428 505.046 246.275 505.238 246.155C505.436 246.035 505.652 245.945 505.886 245.885C506.12 245.825 506.36 245.795 506.606 245.795C506.9 245.795 507.17 245.837 507.416 245.921C507.662 245.999 507.875 246.116 508.055 246.272C508.235 246.428 508.373 246.623 508.469 246.857C508.571 247.085 508.622 247.346 508.622 247.64C508.622 247.934 508.577 248.198 508.487 248.432C508.403 248.666 508.286 248.882 508.136 249.08C507.992 249.278 507.827 249.464 507.641 249.638C507.455 249.812 507.263 249.986 507.065 250.16L505.454 251.519H508.694V252.23H504.32V251.582L506.12 250.007ZM511.452 252.23H510.669V247.127H509.373V246.596C509.553 246.584 509.718 246.569 509.868 246.551C510.018 246.527 510.156 246.488 510.282 246.434C510.408 246.38 510.522 246.308 510.624 246.218C510.726 246.128 510.819 246.011 510.903 245.867H511.452V252.23Z" fill="white" fill-opacity="0.49"/>
<path d="M595.963 250.007C596.125 249.869 596.302 249.719 596.494 249.557C596.692 249.389 596.875 249.209 597.043 249.017C597.217 248.825 597.364 248.624 597.484 248.414C597.604 248.198 597.667 247.964 597.673 247.712C597.685 247.328 597.574 247.034 597.34 246.83C597.106 246.62 596.797 246.515 596.413 246.515C596.107 246.515 595.84 246.578 595.612 246.704C595.384 246.83 595.234 247.013 595.162 247.253H594.325C594.367 247.007 594.454 246.794 594.586 246.614C594.724 246.428 594.889 246.275 595.081 246.155C595.279 246.035 595.495 245.945 595.729 245.885C595.963 245.825 596.203 245.795 596.449 245.795C596.743 245.795 597.013 245.837 597.259 245.921C597.505 245.999 597.718 246.116 597.898 246.272C598.078 246.428 598.216 246.623 598.312 246.857C598.414 247.085 598.465 247.346 598.465 247.64C598.465 247.934 598.42 248.198 598.33 248.432C598.246 248.666 598.129 248.882 597.979 249.08C597.835 249.278 597.67 249.464 597.484 249.638C597.298 249.812 597.106 249.986 596.908 250.16L595.297 251.519H598.537V252.23H594.163V251.582L595.963 250.007ZM604.471 249.053C604.471 249.461 604.429 249.86 604.345 250.25C604.267 250.64 604.132 250.988 603.94 251.294C603.748 251.594 603.493 251.837 603.175 252.023C602.857 252.209 602.461 252.302 601.987 252.302C601.507 252.302 601.108 252.209 600.79 252.023C600.472 251.837 600.217 251.594 600.025 251.294C599.833 250.988 599.698 250.646 599.62 250.268C599.542 249.89 599.503 249.485 599.503 249.053C599.503 248.621 599.542 248.216 599.62 247.838C599.698 247.454 599.833 247.112 600.025 246.812C600.217 246.512 600.472 246.269 600.79 246.083C601.108 245.891 601.507 245.795 601.987 245.795C602.461 245.795 602.857 245.888 603.175 246.074C603.493 246.26 603.748 246.506 603.94 246.812C604.132 247.118 604.267 247.466 604.345 247.856C604.429 248.246 604.471 248.645 604.471 249.053ZM600.304 249.053C600.304 249.341 600.325 249.635 600.367 249.935C600.409 250.235 600.49 250.508 600.61 250.754C600.73 251 600.898 251.201 601.114 251.357C601.336 251.513 601.627 251.591 601.987 251.591C602.341 251.591 602.626 251.513 602.842 251.357C603.064 251.201 603.235 251 603.355 250.754C603.475 250.508 603.556 250.235 603.598 249.935C603.64 249.635 603.661 249.341 603.661 249.053C603.661 248.771 603.64 248.48 603.598 248.18C603.556 247.88 603.475 247.607 603.355 247.361C603.235 247.109 603.064 246.905 602.842 246.749C602.626 246.587 602.341 246.506 601.987 246.506C601.627 246.506 601.336 246.587 601.114 246.749C600.898 246.905 600.73 247.109 600.61 247.361C600.49 247.607 600.409 247.88 600.367 248.18C600.325 248.48 600.304 248.771 600.304 249.053ZM606.914 250.007C607.076 249.869 607.253 249.719 607.445 249.557C607.643 249.389 607.826 249.209 607.994 249.017C608.168 248.825 608.315 248.624 608.435 248.414C608.555 248.198 608.618 247.964 608.624 247.712C608.636 247.328 608.525 247.034 608.291 246.83C608.057 246.62 607.748 246.515 607.364 246.515C607.058 246.515 606.791 246.578 606.563 246.704C606.335 246.83 606.185 247.013 606.113 247.253H605.276C605.318 247.007 605.405 246.794 605.537 246.614C605.675 246.428 605.84 246.275 606.032 246.155C606.23 246.035 606.446 245.945 606.68 245.885C606.914 245.825 607.154 245.795 607.4 245.795C607.694 245.795 607.964 245.837 608.21 245.921C608.456 245.999 608.669 246.116 608.849 246.272C609.029 246.428 609.167 246.623 609.263 246.857C609.365 247.085 609.416 247.346 609.416 247.64C609.416 247.934 609.371 248.198 609.281 248.432C609.197 248.666 609.08 248.882 608.93 249.08C608.786 249.278 608.621 249.464 608.435 249.638C608.249 249.812 608.057 249.986 607.859 250.16L606.248 251.519H609.488V252.23H605.114V251.582L606.914 250.007ZM612.56 252.302C612.308 252.302 612.053 252.278 611.795 252.23C611.543 252.182 611.306 252.101 611.084 251.987C610.868 251.867 610.682 251.711 610.526 251.519C610.376 251.327 610.28 251.09 610.238 250.808H611.048C611.102 250.964 611.183 251.093 611.291 251.195C611.405 251.291 611.531 251.369 611.669 251.429C611.813 251.489 611.963 251.531 612.119 251.555C612.275 251.579 612.425 251.591 612.569 251.591C612.701 251.591 612.851 251.579 613.019 251.555C613.187 251.531 613.343 251.48 613.487 251.402C613.637 251.324 613.76 251.21 613.856 251.06C613.958 250.904 614.009 250.7 614.009 250.448C614.009 250.208 613.961 250.016 613.865 249.872C613.775 249.728 613.655 249.617 613.505 249.539C613.361 249.461 613.196 249.41 613.01 249.386C612.83 249.362 612.647 249.35 612.461 249.35H611.849V248.648H612.218C612.38 248.648 612.53 248.645 612.668 248.639C612.806 248.627 612.959 248.585 613.127 248.513C613.319 248.423 613.472 248.297 613.586 248.135C613.7 247.967 613.76 247.775 613.766 247.559C613.766 247.343 613.73 247.166 613.658 247.028C613.586 246.89 613.49 246.782 613.37 246.704C613.25 246.626 613.115 246.575 612.965 246.551C612.815 246.521 612.662 246.506 612.506 246.506C612.38 246.506 612.248 246.521 612.11 246.551C611.978 246.575 611.852 246.617 611.732 246.677C611.618 246.737 611.516 246.818 611.426 246.92C611.336 247.016 611.273 247.133 611.237 247.271H610.454C610.49 247.007 610.574 246.782 610.706 246.596C610.838 246.41 611 246.257 611.192 246.137C611.39 246.017 611.606 245.93 611.84 245.876C612.08 245.822 612.323 245.795 612.569 245.795C612.839 245.795 613.091 245.825 613.325 245.885C613.565 245.939 613.775 246.032 613.955 246.164C614.135 246.29 614.276 246.458 614.378 246.668C614.486 246.878 614.54 247.133 614.54 247.433C614.54 247.547 614.528 247.67 614.504 247.802C614.48 247.928 614.435 248.054 614.369 248.18C614.303 248.306 614.207 248.432 614.081 248.558C613.955 248.684 613.79 248.789 613.586 248.873C613.988 248.951 614.294 249.128 614.504 249.404C614.714 249.674 614.819 250.001 614.819 250.385V250.421C614.819 250.751 614.759 251.036 614.639 251.276C614.525 251.51 614.366 251.705 614.162 251.861C613.958 252.011 613.718 252.122 613.442 252.194C613.166 252.266 612.872 252.302 612.56 252.302Z" fill="white" fill-opacity="0.49"/>
<path d="M9.00126 187.304C9.33106 187.605 9.49606 187.984 9.49606 188.439C9.49606 188.706 9.43066 188.962 9.29986 189.206C9.16896 189.451 8.98696 189.644 8.75386 189.787C8.53766 189.934 8.25896 190.037 7.91776 190.094V190.844H7.09026V190.085C6.83996 190.04 6.61246 189.951 6.40766 189.821C6.20296 189.69 6.03236 189.525 5.89586 189.326C5.63986 188.979 5.51196 188.595 5.51196 188.174H6.34796C6.34796 188.294 6.36786 188.419 6.40766 188.549C6.45316 188.675 6.51576 188.78 6.59536 188.865C6.70346 189.013 6.83426 189.13 6.98786 189.215C7.14136 189.295 7.30916 189.334 7.49116 189.334C7.64476 189.334 7.79546 189.314 7.94336 189.275C8.09686 189.229 8.22776 189.161 8.33576 189.07C8.52916 188.911 8.62586 188.692 8.62586 188.413C8.62586 188.288 8.59736 188.177 8.54056 188.08C8.48936 187.978 8.40406 187.881 8.28456 187.79C8.17656 187.705 8.05706 187.631 7.92626 187.568C7.79546 187.506 7.62766 187.432 7.42296 187.347C7.28646 187.295 7.13576 187.23 6.97076 187.15C6.52146 186.957 6.18306 186.718 5.95556 186.434C5.85316 186.309 5.77066 186.161 5.70816 185.99C5.64556 185.814 5.61426 185.635 5.61426 185.453C5.61426 185.219 5.66266 184.992 5.75936 184.77C5.85606 184.548 5.98966 184.361 6.16026 184.207C6.41056 183.98 6.72056 183.832 7.09026 183.763V183.013H7.91776V183.781C8.32726 183.866 8.66276 184.071 8.92446 184.395C9.22016 184.73 9.37086 185.123 9.37656 185.572H8.50636C8.50636 185.328 8.42396 185.1 8.25896 184.89C8.04286 184.645 7.78406 184.523 7.48266 184.523C7.18126 184.523 6.93376 184.619 6.74046 184.813C6.56976 184.983 6.48446 185.194 6.48446 185.444C6.48446 185.649 6.54136 185.819 6.65516 185.956C6.72906 186.058 6.83716 186.152 6.97926 186.238C7.12716 186.323 7.31206 186.408 7.53386 186.493C7.97746 186.681 8.29316 186.823 8.48076 186.92C8.66846 187.017 8.84196 187.145 9.00126 187.304Z" fill="#7D7D7D"/>
<path d="M13.8698 186.749C14.0291 186.926 14.1457 187.128 14.2196 187.355C14.2993 187.577 14.3391 187.813 14.3391 188.063C14.3391 188.376 14.2793 188.672 14.1599 188.95C14.0462 189.229 13.8755 189.462 13.648 189.65C13.4603 189.804 13.2499 189.92 13.0167 190C12.7892 190.085 12.556 190.125 12.3172 190.119C12.0783 190.125 11.8422 190.085 11.6091 190C11.3759 189.92 11.1654 189.804 10.9777 189.65C10.682 189.411 10.4744 189.098 10.355 188.712L11.1484 188.49C11.228 188.734 11.3531 188.925 11.5237 189.061C11.7512 189.243 12.0129 189.334 12.3086 189.334C12.6214 189.323 12.8831 189.229 13.0935 189.053C13.23 188.939 13.3295 188.8 13.3921 188.635C13.4603 188.47 13.4945 188.294 13.4945 188.106C13.4945 187.708 13.3693 187.395 13.1191 187.167C12.903 186.968 12.63 186.869 12.3001 186.869C12.101 186.869 11.8991 186.923 11.6944 187.031L11.3019 186.374L13.1362 184.642H10.5938V183.857H14.2538V184.668L12.6584 186.178C13.1475 186.223 13.5513 186.414 13.8698 186.749Z" fill="#7D7D7D"/>
<path d="M17.9339 189.949C17.6609 190.062 17.3652 190.119 17.0467 190.119C16.7339 190.119 16.4381 190.062 16.1594 189.949C15.8807 189.829 15.6447 189.659 15.4513 189.437C15.2636 189.215 15.13 188.987 15.0504 188.754C14.9764 188.515 14.9395 188.237 14.9395 187.918V185.93C14.9395 185.612 14.9764 185.333 15.0504 185.094C15.13 184.855 15.2665 184.622 15.4599 184.395C15.6532 184.179 15.8893 184.014 16.168 183.9C16.4523 183.786 16.7566 183.729 17.0808 183.729C17.3766 183.729 17.6581 183.786 17.9254 183.9C18.1984 184.014 18.4316 184.179 18.625 184.395C18.8183 184.611 18.9548 184.841 19.0345 185.086C19.1141 185.325 19.1539 185.606 19.1539 185.93V187.918C19.1539 188.231 19.1141 188.51 19.0345 188.754C18.9605 188.999 18.8297 189.226 18.642 189.437C18.4487 189.659 18.2126 189.829 17.9339 189.949ZM17.6609 184.676C17.4676 184.568 17.2628 184.514 17.0467 184.514C16.8306 184.514 16.6258 184.568 16.4324 184.676C16.2447 184.784 16.094 184.929 15.9803 185.111C15.9063 185.219 15.8551 185.339 15.8267 185.47C15.7983 185.601 15.784 185.754 15.784 185.93V187.918C15.784 188.089 15.7983 188.242 15.8267 188.379C15.8551 188.515 15.9092 188.643 15.9888 188.763C16.1082 188.939 16.259 189.081 16.441 189.189C16.6286 189.292 16.8306 189.34 17.0467 189.334C17.2628 189.34 17.4647 189.292 17.6524 189.189C17.8401 189.081 17.9936 188.936 18.1131 188.754C18.187 188.64 18.2382 188.521 18.2667 188.396C18.2951 188.265 18.3093 188.106 18.3093 187.918V185.93C18.3093 185.754 18.2951 185.606 18.2667 185.487C18.2439 185.362 18.1956 185.237 18.1216 185.111C18.0079 184.929 17.8543 184.784 17.6609 184.676Z" fill="#7D7D7D"/>
<path d="M27.4369 185.734C27.6474 185.91 27.7867 186.118 27.855 186.357C27.9289 186.596 27.9659 186.894 27.9659 187.253L27.9573 190H27.1298L27.1383 187.253C27.1383 187.025 27.1156 186.849 27.0701 186.724C27.0303 186.593 26.945 186.468 26.8141 186.348C26.7345 186.269 26.6378 186.206 26.5241 186.161C26.4103 186.115 26.2966 186.092 26.1828 186.092C26.035 186.092 25.8956 186.124 25.7648 186.186C25.634 186.243 25.5231 186.326 25.4321 186.434C25.3411 186.542 25.2785 186.656 25.2444 186.775C25.216 186.889 25.2017 187.022 25.2017 187.176V190H24.3742V187.253C24.3742 187.025 24.3543 186.849 24.3145 186.724C24.2747 186.593 24.1894 186.468 24.0585 186.348C23.8765 186.178 23.6633 186.092 23.4187 186.092C23.2708 186.092 23.1315 186.124 23.0007 186.186C22.8755 186.243 22.7675 186.326 22.6765 186.434C22.5798 186.542 22.5144 186.656 22.4803 186.775C22.4518 186.889 22.4376 187.022 22.4376 187.176V190H21.6101V185.393H22.3438V185.982C22.4973 185.788 22.6879 185.637 22.9154 185.529C23.1485 185.416 23.3931 185.359 23.649 185.359C23.831 185.359 24.0102 185.393 24.1865 185.461C24.3685 185.524 24.5306 185.615 24.6728 185.734C24.8036 185.842 24.9145 185.973 25.0055 186.127L25.0311 186.075C25.179 185.854 25.3752 185.68 25.6198 185.555C25.87 185.424 26.1316 185.359 26.4046 185.359C26.5866 185.359 26.7686 185.393 26.9506 185.461C27.1327 185.524 27.2947 185.615 27.4369 185.734Z" fill="#7D7D7D"/>
<path d="M29.7413 183.815V184.642H28.9138V183.815H29.7413ZM29.7413 185.393V190H28.9138V185.393H29.7413Z" fill="#7D7D7D"/>
<path d="M31.6837 190H30.8562V183.729H31.6837V190Z" fill="#7D7D7D"/>
<path d="M33.5433 190H32.7158V183.729H33.5433V190Z" fill="#7D7D7D"/>
<path d="M35.4884 183.815V184.642H34.6609V183.815H35.4884ZM35.4884 185.393V190H34.6609V185.393H35.4884Z" fill="#7D7D7D"/>
<path d="M38.5826 190.128C38.2414 190.128 37.9229 190.062 37.6271 189.932C37.3314 189.801 37.084 189.613 36.8849 189.368C36.5266 188.925 36.3474 188.367 36.3474 187.696C36.3474 187.025 36.5266 186.465 36.8849 186.016C37.0783 185.777 37.3257 185.592 37.6271 185.461C37.9286 185.33 38.2471 185.265 38.5826 185.265C38.9239 185.265 39.2424 185.33 39.5381 185.461C39.8396 185.586 40.0898 185.771 40.2889 186.016C40.6472 186.465 40.8263 187.025 40.8263 187.696C40.8263 188.356 40.6472 188.913 40.2889 189.368C40.0841 189.619 39.8339 189.809 39.5381 189.94C39.2481 190.065 38.9296 190.128 38.5826 190.128ZM39.632 188.865C39.8424 188.586 39.9476 188.197 39.9476 187.696C39.9476 187.19 39.8424 186.798 39.632 186.519C39.5182 186.365 39.3675 186.249 39.1798 186.169C38.9978 186.09 38.7987 186.05 38.5826 186.05C38.3665 186.05 38.1674 186.09 37.9854 186.169C37.8034 186.249 37.6556 186.365 37.5418 186.519C37.3314 186.798 37.2261 187.19 37.2261 187.696C37.2261 188.197 37.3314 188.586 37.5418 188.865C37.6556 189.019 37.8034 189.138 37.9854 189.223C38.1674 189.303 38.3665 189.343 38.5826 189.343C38.7987 189.343 38.9978 189.303 39.1798 189.223C39.3618 189.138 39.5125 189.019 39.632 188.865Z" fill="#7D7D7D"/>
<path d="M44.985 185.7C45.2694 185.928 45.4599 186.203 45.5566 186.528C45.6533 186.852 45.6988 187.25 45.6931 187.722V190H44.8571V187.722C44.8571 187.392 44.8258 187.113 44.7632 186.886C44.7007 186.653 44.5812 186.465 44.4049 186.323C44.1888 186.147 43.9129 186.064 43.5774 186.075C43.2987 186.092 43.0655 186.178 42.8778 186.331C42.6674 186.502 42.5366 186.741 42.4854 187.048C42.4569 187.167 42.4399 187.31 42.4342 187.475C42.4285 187.639 42.4257 187.807 42.4257 187.978V190H41.5981V185.393H42.3318V185.854C42.3318 185.854 42.3631 185.822 42.4257 185.76C42.602 185.601 42.8067 185.481 43.0399 185.401C43.2788 185.322 43.5205 185.282 43.7651 185.282C43.9869 185.282 44.203 185.319 44.4134 185.393C44.6296 185.461 44.8201 185.564 44.985 185.7Z" fill="#7D7D7D"/>
<path d="M9.00126 140.304C9.33106 140.605 9.49606 140.984 9.49606 141.439C9.49606 141.706 9.43066 141.962 9.29986 142.206C9.16896 142.451 8.98696 142.644 8.75386 142.787C8.53766 142.934 8.25896 143.037 7.91776 143.094V143.844H7.09026V143.085C6.83996 143.04 6.61246 142.951 6.40766 142.821C6.20296 142.69 6.03236 142.525 5.89586 142.326C5.63986 141.979 5.51196 141.595 5.51196 141.174H6.34796C6.34796 141.294 6.36786 141.419 6.40766 141.549C6.45316 141.675 6.51576 141.78 6.59536 141.865C6.70346 142.013 6.83426 142.13 6.98786 142.215C7.14136 142.295 7.30916 142.334 7.49116 142.334C7.64476 142.334 7.79546 142.314 7.94336 142.275C8.09686 142.229 8.22776 142.161 8.33576 142.07C8.52916 141.911 8.62586 141.692 8.62586 141.413C8.62586 141.288 8.59736 141.177 8.54056 141.08C8.48936 140.978 8.40406 140.881 8.28456 140.79C8.17656 140.705 8.05706 140.631 7.92626 140.568C7.79546 140.506 7.62766 140.432 7.42296 140.347C7.28646 140.295 7.13576 140.23 6.97076 140.15C6.52146 139.957 6.18306 139.718 5.95556 139.434C5.85316 139.309 5.77066 139.161 5.70816 138.99C5.64556 138.814 5.61426 138.635 5.61426 138.453C5.61426 138.219 5.66266 137.992 5.75936 137.77C5.85606 137.548 5.98966 137.361 6.16026 137.207C6.41056 136.98 6.72056 136.832 7.09026 136.763V136.013H7.91776V136.781C8.32726 136.866 8.66276 137.071 8.92446 137.395C9.22016 137.73 9.37086 138.123 9.37656 138.572H8.50636C8.50636 138.328 8.42396 138.1 8.25896 137.89C8.04286 137.645 7.78406 137.523 7.48266 137.523C7.18126 137.523 6.93376 137.619 6.74046 137.813C6.56976 137.983 6.48446 138.194 6.48446 138.444C6.48446 138.649 6.54136 138.819 6.65516 138.956C6.72906 139.058 6.83716 139.152 6.97926 139.238C7.12716 139.323 7.31206 139.408 7.53386 139.493C7.97746 139.681 8.29316 139.823 8.48076 139.92C8.66846 140.017 8.84196 140.145 9.00126 140.304Z" fill="#7D7D7D"/>
<path d="M13.5114 138.06C13.3863 137.89 13.2299 137.756 13.0422 137.659C12.8545 137.563 12.6583 137.514 12.4536 137.514C12.2317 137.514 12.0213 137.568 11.8222 137.676C11.6289 137.784 11.4781 137.929 11.3701 138.111C11.1995 138.345 11.1141 138.643 11.1141 139.007V139.656C11.2848 139.468 11.4895 139.32 11.7284 139.212C11.9673 139.104 12.2175 139.05 12.4791 139.05C12.7294 139.05 12.974 139.098 13.2128 139.195C13.4574 139.286 13.6735 139.417 13.8612 139.587C14.2707 139.98 14.4755 140.463 14.4755 141.038C14.4755 141.316 14.4214 141.586 14.3134 141.848C14.2053 142.104 14.0517 142.329 13.8527 142.522C13.6707 142.71 13.4517 142.858 13.1958 142.966C12.9398 143.068 12.6754 143.119 12.4024 143.119C12.1123 143.119 11.8336 143.065 11.5663 142.957C11.299 142.849 11.0686 142.696 10.8753 142.496C10.6535 142.275 10.497 142.033 10.406 141.771C10.315 141.504 10.2695 141.197 10.2695 140.85V139.007C10.2695 138.677 10.3122 138.384 10.3975 138.128C10.4885 137.867 10.6335 137.625 10.8326 137.403C11.043 137.176 11.2876 137.005 11.5663 136.891C11.845 136.778 12.1407 136.726 12.4536 136.738C12.7834 136.732 13.0906 136.795 13.3749 136.926C13.665 137.056 13.9124 137.247 14.1172 137.497L13.5114 138.06ZM12.7692 142.164C12.9228 142.118 13.0564 142.041 13.1702 141.933C13.2896 141.82 13.3835 141.689 13.4517 141.541C13.5143 141.41 13.5456 141.257 13.5456 141.08C13.5456 140.927 13.5228 140.79 13.4773 140.671C13.4204 140.523 13.338 140.392 13.2299 140.278C13.1275 140.159 13.0081 140.068 12.8716 140.005C12.7066 139.931 12.5446 139.894 12.3853 139.894C12.2488 139.894 12.1123 139.92 11.9758 139.971C11.8222 140.022 11.6857 140.102 11.5663 140.21C11.4526 140.318 11.3644 140.443 11.3018 140.585C11.2393 140.716 11.208 140.873 11.208 141.055C11.208 141.208 11.2307 141.345 11.2762 141.464C11.3274 141.606 11.4042 141.734 11.5066 141.848C11.609 141.962 11.7256 142.047 11.8564 142.104C12.0213 142.189 12.1948 142.232 12.3768 142.232C12.5019 142.232 12.6327 142.209 12.7692 142.164Z" fill="#7D7D7D"/>
<path d="M18.0778 142.949C17.8048 143.062 17.509 143.119 17.1905 143.119C16.8777 143.119 16.582 143.062 16.3033 142.949C16.0246 142.829 15.7886 142.659 15.5952 142.437C15.4075 142.215 15.2738 141.987 15.1942 141.754C15.1203 141.515 15.0833 141.237 15.0833 140.918V138.93C15.0833 138.612 15.1203 138.333 15.1942 138.094C15.2738 137.855 15.4103 137.622 15.6037 137.395C15.7971 137.179 16.0331 137.014 16.3118 136.9C16.5962 136.786 16.9005 136.729 17.2247 136.729C17.5204 136.729 17.802 136.786 18.0693 136.9C18.3423 137.014 18.5755 137.179 18.7688 137.395C18.9622 137.611 19.0987 137.841 19.1783 138.086C19.258 138.325 19.2978 138.606 19.2978 138.93V140.918C19.2978 141.231 19.258 141.51 19.1783 141.754C19.1044 141.999 18.9736 142.226 18.7859 142.437C18.5925 142.659 18.3565 142.829 18.0778 142.949ZM17.8048 137.676C17.6114 137.568 17.4067 137.514 17.1905 137.514C16.9744 137.514 16.7697 137.568 16.5763 137.676C16.3886 137.784 16.2379 137.929 16.1241 138.111C16.0502 138.219 15.999 138.339 15.9706 138.47C15.9421 138.601 15.9279 138.754 15.9279 138.93V140.918C15.9279 141.089 15.9421 141.242 15.9706 141.379C15.999 141.515 16.053 141.643 16.1327 141.763C16.2521 141.939 16.4028 142.081 16.5848 142.189C16.7725 142.292 16.9744 142.34 17.1905 142.334C17.4067 142.34 17.6086 142.292 17.7963 142.189C17.984 142.081 18.1375 141.936 18.257 141.754C18.3309 141.64 18.3821 141.521 18.4105 141.396C18.439 141.265 18.4532 141.106 18.4532 140.918V138.93C18.4532 138.754 18.439 138.606 18.4105 138.487C18.3878 138.362 18.3394 138.237 18.2655 138.111C18.1517 137.929 17.9982 137.784 17.8048 137.676Z" fill="#7D7D7D"/>
<path d="M27.5808 138.734C27.7912 138.91 27.9306 139.118 27.9988 139.357C28.0728 139.596 28.1097 139.894 28.1097 140.253L28.1012 143H27.2737L27.2822 140.253C27.2822 140.025 27.2595 139.849 27.214 139.724C27.1741 139.593 27.0888 139.468 26.958 139.348C26.8784 139.269 26.7817 139.206 26.668 139.161C26.5542 139.115 26.4404 139.092 26.3267 139.092C26.1788 139.092 26.0395 139.124 25.9087 139.186C25.7779 139.243 25.6669 139.326 25.5759 139.434C25.4849 139.542 25.4224 139.656 25.3883 139.775C25.3598 139.889 25.3456 140.022 25.3456 140.176V143H24.5181V140.253C24.5181 140.025 24.4982 139.849 24.4583 139.724C24.4185 139.593 24.3332 139.468 24.2024 139.348C24.0204 139.178 23.8071 139.092 23.5626 139.092C23.4147 139.092 23.2753 139.124 23.1445 139.186C23.0194 139.243 22.9113 139.326 22.8203 139.434C22.7237 139.542 22.6582 139.656 22.6241 139.775C22.5957 139.889 22.5815 140.022 22.5815 140.176V143H21.7539V138.393H22.4876V138.982C22.6412 138.788 22.8317 138.637 23.0592 138.529C23.2924 138.416 23.537 138.359 23.7929 138.359C23.9749 138.359 24.1541 138.393 24.3304 138.461C24.5124 138.524 24.6745 138.615 24.8167 138.734C24.9475 138.842 25.0584 138.973 25.1494 139.127L25.175 139.075C25.3229 138.854 25.5191 138.68 25.7636 138.555C26.0139 138.424 26.2755 138.359 26.5485 138.359C26.7305 138.359 26.9125 138.393 27.0945 138.461C27.2765 138.524 27.4386 138.615 27.5808 138.734Z" fill="#7D7D7D"/>
<path d="M29.8854 136.815V137.642H29.0579V136.815H29.8854ZM29.8854 138.393V143H29.0579V138.393H29.8854Z" fill="#7D7D7D"/>
<path d="M31.8276 143H31V136.729H31.8276V143Z" fill="#7D7D7D"/>
<path d="M33.6875 143H32.8599V136.729H33.6875V143Z" fill="#7D7D7D"/>
<path d="M35.6324 136.815V137.642H34.8049V136.815H35.6324ZM35.6324 138.393V143H34.8049V138.393H35.6324Z" fill="#7D7D7D"/>
<path d="M38.7264 143.128C38.3851 143.128 38.0666 143.062 37.7709 142.932C37.4751 142.801 37.2277 142.613 37.0287 142.368C36.6703 141.925 36.4912 141.368 36.4912 140.696C36.4912 140.025 36.6703 139.465 37.0287 139.016C37.222 138.777 37.4694 138.592 37.7709 138.461C38.0723 138.33 38.3908 138.265 38.7264 138.265C39.0676 138.265 39.3861 138.33 39.6819 138.461C39.9833 138.586 40.2336 138.771 40.4326 139.016C40.791 139.465 40.9701 140.025 40.9701 140.696C40.9701 141.356 40.791 141.913 40.4326 142.368C40.2279 142.619 39.9776 142.809 39.6819 142.94C39.3918 143.065 39.0733 143.128 38.7264 143.128ZM39.7757 141.865C39.9862 141.586 40.0914 141.197 40.0914 140.696C40.0914 140.19 39.9862 139.798 39.7757 139.519C39.662 139.365 39.5113 139.249 39.3236 139.169C39.1416 139.09 38.9425 139.05 38.7264 139.05C38.5103 139.05 38.3112 139.09 38.1292 139.169C37.9472 139.249 37.7993 139.365 37.6856 139.519C37.4751 139.798 37.3699 140.19 37.3699 140.696C37.3699 141.197 37.4751 141.586 37.6856 141.865C37.7993 142.019 37.9472 142.138 38.1292 142.223C38.3112 142.303 38.5103 142.343 38.7264 142.343C38.9425 142.343 39.1416 142.303 39.3236 142.223C39.5056 142.138 39.6563 142.019 39.7757 141.865Z" fill="#7D7D7D"/>
<path d="M45.1291 138.7C45.4135 138.928 45.604 139.203 45.7007 139.528C45.7974 139.852 45.8429 140.25 45.8372 140.722V143H45.0011V140.722C45.0011 140.392 44.9699 140.113 44.9073 139.886C44.8447 139.653 44.7253 139.465 44.549 139.323C44.3329 139.147 44.057 139.064 43.7214 139.075C43.4428 139.092 43.2096 139.178 43.0219 139.331C42.8114 139.502 42.6806 139.741 42.6294 140.048C42.601 140.167 42.5839 140.31 42.5783 140.475C42.5726 140.639 42.5697 140.807 42.5697 140.978V143H41.7422V138.393H42.4759V138.854C42.4759 138.854 42.5072 138.822 42.5697 138.76C42.746 138.601 42.9508 138.481 43.184 138.401C43.4228 138.322 43.6646 138.282 43.9091 138.282C44.1309 138.282 44.3471 138.319 44.5575 138.393C44.7736 138.461 44.9642 138.564 45.1291 138.7Z" fill="#7D7D7D"/>
<path d="M9.00126 93.3037C9.33106 93.6047 9.49606 93.9837 9.49606 94.4387C9.49606 94.7057 9.43066 94.9617 9.29986 95.2057C9.16896 95.4507 8.98696 95.6437 8.75386 95.7867C8.53766 95.9337 8.25896 96.0367 7.91776 96.0937V96.8437H7.09026V96.0847C6.83996 96.0397 6.61246 95.9507 6.40766 95.8207C6.20296 95.6897 6.03236 95.5247 5.89586 95.3257C5.63986 94.9787 5.51196 94.5947 5.51196 94.1737H6.34796C6.34796 94.2937 6.36786 94.4187 6.40766 94.5487C6.45316 94.6747 6.51576 94.7797 6.59536 94.8647C6.70346 95.0127 6.83426 95.1297 6.98786 95.2147C7.14136 95.2947 7.30916 95.3337 7.49116 95.3337C7.64476 95.3337 7.79546 95.3137 7.94336 95.2747C8.09686 95.2287 8.22776 95.1607 8.33576 95.0697C8.52916 94.9107 8.62586 94.6917 8.62586 94.4127C8.62586 94.2877 8.59736 94.1767 8.54056 94.0797C8.48936 93.9777 8.40406 93.8807 8.28456 93.7897C8.17656 93.7047 8.05706 93.6307 7.92626 93.5677C7.79546 93.5057 7.62766 93.4317 7.42296 93.3467C7.28646 93.2947 7.13576 93.2297 6.97076 93.1497C6.52146 92.9567 6.18306 92.7177 5.95556 92.4337C5.85316 92.3087 5.77066 92.1607 5.70816 91.9897C5.64556 91.8137 5.61426 91.6347 5.61426 91.4527C5.61426 91.2187 5.66266 90.9917 5.75936 90.7697C5.85606 90.5477 5.98966 90.3607 6.16026 90.2067C6.41056 89.9797 6.72056 89.8317 7.09026 89.7627V89.0127H7.91776V89.7807C8.32726 89.8657 8.66276 90.0707 8.92446 90.3947C9.22016 90.7297 9.37086 91.1227 9.37656 91.5717H8.50636C8.50636 91.3277 8.42396 91.0997 8.25896 90.8897C8.04286 90.6447 7.78406 90.5227 7.48266 90.5227C7.18126 90.5227 6.93376 90.6187 6.74046 90.8127C6.56976 90.9827 6.48446 91.1937 6.48446 91.4437C6.48446 91.6487 6.54136 91.8187 6.65516 91.9557C6.72906 92.0577 6.83716 92.1517 6.97926 92.2377C7.12716 92.3227 7.31206 92.4077 7.53386 92.4927C7.97746 92.6807 8.29316 92.8227 8.48076 92.9197C8.66846 93.0167 8.84196 93.1447 9.00126 93.3037Z" fill="#7D7D7D"/>
<path d="M11.3362 94.8051C11.4556 94.9701 11.6092 95.1011 11.7968 95.1981C11.9845 95.2951 12.1836 95.3431 12.394 95.3431C12.6215 95.3431 12.832 95.2891 13.0253 95.1811C13.2187 95.0731 13.3694 94.9281 13.4775 94.7461C13.6481 94.5181 13.7334 94.2221 13.7334 93.8581V93.2101C13.5628 93.3981 13.3581 93.5461 13.1192 93.6541C12.8803 93.7621 12.6301 93.8161 12.3684 93.8161C12.1182 93.8161 11.8708 93.7701 11.6262 93.6791C11.3873 93.5831 11.1741 93.4491 10.9864 93.2781C10.5769 92.8861 10.3721 92.4021 10.3721 91.8281C10.3721 91.5491 10.4262 91.2791 10.5342 91.0181C10.6423 90.7561 10.793 90.5311 10.9864 90.3441C11.1741 90.1561 11.3959 90.0111 11.6518 89.9081C11.9078 89.8001 12.1694 89.7461 12.4367 89.7461C12.7324 89.7461 13.014 89.8001 13.2813 89.9081C13.5486 90.0111 13.7789 90.1621 13.9723 90.3611C14.1941 90.5821 14.3505 90.8271 14.4415 91.0941C14.5325 91.3621 14.578 91.6691 14.578 92.0161V93.8581C14.578 94.1881 14.5325 94.4841 14.4415 94.7461C14.3562 95.0021 14.2112 95.2381 14.0064 95.4541C13.8017 95.6811 13.5571 95.8521 13.2728 95.9661C12.9941 96.0741 12.6926 96.1281 12.3684 96.1281C12.0443 96.1281 11.74 96.0621 11.4556 95.9321C11.1712 95.7951 10.9295 95.6051 10.7304 95.3601L11.3362 94.8051ZM12.0784 90.6931C11.9248 90.7451 11.7883 90.8241 11.6689 90.9321C11.5494 91.0401 11.4584 91.1681 11.3959 91.3161C11.3333 91.4471 11.302 91.6031 11.302 91.7851C11.302 91.9391 11.3248 92.0731 11.3703 92.1861C11.4215 92.3341 11.4983 92.4681 11.6006 92.5871C11.7087 92.7011 11.8338 92.7921 11.976 92.8601C12.1296 92.9291 12.2945 92.9631 12.4708 92.9631C12.5959 92.9631 12.7268 92.9401 12.8633 92.8941C13.0168 92.8431 13.1533 92.7641 13.2728 92.6561C13.3922 92.5471 13.4832 92.4201 13.5458 92.2721C13.6083 92.1411 13.6396 91.9871 13.6396 91.8111C13.6396 91.6521 13.6169 91.5151 13.5714 91.4011C13.5202 91.2591 13.4434 91.1341 13.341 91.0261C13.2386 90.9121 13.122 90.8241 12.9912 90.7621C12.832 90.6761 12.6557 90.6341 12.4623 90.6341C12.3258 90.6341 12.1978 90.6541 12.0784 90.6931Z" fill="#7D7D7D"/>
<path d="M18.1737 95.9485C17.9007 96.0615 17.6049 96.1185 17.2864 96.1185C16.9736 96.1185 16.6779 96.0615 16.3992 95.9485C16.1205 95.8285 15.8844 95.6585 15.6911 95.4365C15.5034 95.2145 15.3697 94.9865 15.2901 94.7535C15.2162 94.5145 15.1792 94.2365 15.1792 93.9175V91.9295C15.1792 91.6115 15.2162 91.3325 15.2901 91.0935C15.3697 90.8545 15.5062 90.6215 15.6996 90.3945C15.893 90.1785 16.129 90.0135 16.4077 89.8995C16.6921 89.7855 16.9964 89.7285 17.3205 89.7285C17.6163 89.7285 17.8978 89.7855 18.1651 89.8995C18.4381 90.0135 18.6713 90.1785 18.8647 90.3945C19.0581 90.6105 19.1946 90.8405 19.2742 91.0855C19.3538 91.3245 19.3936 91.6055 19.3936 91.9295V93.9175C19.3936 94.2305 19.3538 94.5095 19.2742 94.7535C19.2003 94.9985 19.0695 95.2255 18.8818 95.4365C18.6884 95.6585 18.4524 95.8285 18.1737 95.9485ZM17.9007 90.6755C17.7073 90.5675 17.5025 90.5135 17.2864 90.5135C17.0703 90.5135 16.8655 90.5675 16.6722 90.6755C16.4845 90.7835 16.3338 90.9285 16.22 91.1105C16.1461 91.2185 16.0949 91.3385 16.0664 91.4695C16.038 91.6005 16.0238 91.7535 16.0238 91.9295V93.9175C16.0238 94.0885 16.038 94.2415 16.0664 94.3785C16.0949 94.5145 16.1489 94.6425 16.2285 94.7625C16.348 94.9385 16.4987 95.0805 16.6807 95.1885C16.8684 95.2915 17.0703 95.3395 17.2864 95.3335C17.5025 95.3395 17.7045 95.2915 17.8921 95.1885C18.0798 95.0805 18.2334 94.9355 18.3528 94.7535C18.4268 94.6395 18.478 94.5205 18.5064 94.3955C18.5348 94.2645 18.549 94.1055 18.549 93.9175V91.9295C18.549 91.7535 18.5348 91.6055 18.5064 91.4865C18.4836 91.3615 18.4353 91.2365 18.3614 91.1105C18.2476 90.9285 18.094 90.7835 17.9007 90.6755Z" fill="#7D7D7D"/>
<path d="M27.677 91.7344C27.8874 91.9104 28.0268 92.1184 28.095 92.3574C28.1689 92.5964 28.2059 92.8944 28.2059 93.2534L28.1974 96.0004H27.3698L27.3784 93.2534C27.3784 93.0254 27.3556 92.8494 27.3101 92.7244C27.2703 92.5934 27.185 92.4684 27.0542 92.3484C26.9746 92.2694 26.8779 92.2064 26.7641 92.1614C26.6504 92.1154 26.5366 92.0924 26.4229 92.0924C26.275 92.0924 26.1357 92.1244 26.0048 92.1864C25.874 92.2434 25.7631 92.3264 25.6721 92.4344C25.5811 92.5424 25.5186 92.6564 25.4844 92.7754C25.456 92.8894 25.4418 93.0224 25.4418 93.1764V96.0004H24.6142V93.2534C24.6142 93.0254 24.5943 92.8494 24.5545 92.7244C24.5147 92.5934 24.4294 92.4684 24.2986 92.3484C24.1166 92.1784 23.9033 92.0924 23.6587 92.0924C23.5109 92.0924 23.3715 92.1244 23.2407 92.1864C23.1156 92.2434 23.0075 92.3264 22.9165 92.4344C22.8198 92.5424 22.7544 92.6564 22.7203 92.7754C22.6919 92.8894 22.6776 93.0224 22.6776 93.1764V96.0004H21.8501V91.3934H22.5838V91.9824C22.7374 91.7884 22.9279 91.6374 23.1554 91.5294C23.3886 91.4164 23.6331 91.3594 23.8891 91.3594C24.0711 91.3594 24.2502 91.3934 24.4266 91.4614C24.6086 91.5244 24.7706 91.6154 24.9128 91.7344C25.0437 91.8424 25.1546 91.9734 25.2456 92.1274L25.2712 92.0754C25.419 91.8544 25.6152 91.6804 25.8598 91.5554C26.1101 91.4244 26.3717 91.3594 26.6447 91.3594C26.8267 91.3594 27.0087 91.3934 27.1907 91.4614C27.3727 91.5244 27.5348 91.6154 27.677 91.7344Z" fill="#7D7D7D"/>
<path d="M29.9814 89.8154V90.6424H29.1538V89.8154H29.9814ZM29.9814 91.3934V96.0004H29.1538V91.3934H29.9814Z" fill="#7D7D7D"/>
<path d="M31.9237 95.9995H31.0962V89.7285H31.9237V95.9995Z" fill="#7D7D7D"/>
<path d="M33.7834 95.9995H32.9558V89.7285H33.7834V95.9995Z" fill="#7D7D7D"/>
<path d="M35.7285 89.8154V90.6424H34.9009V89.8154H35.7285ZM35.7285 91.3934V96.0004H34.9009V91.3934H35.7285Z" fill="#7D7D7D"/>
<path d="M38.8226 96.1277C38.4813 96.1277 38.1628 96.0617 37.8671 95.9317C37.5713 95.8007 37.3239 95.6126 37.1248 95.3676C36.7665 94.9246 36.5874 94.3666 36.5874 93.6956C36.5874 93.0246 36.7665 92.4647 37.1248 92.0157C37.3182 91.7767 37.5656 91.5916 37.8671 91.4606C38.1685 91.3296 38.487 91.2646 38.8226 91.2646C39.1638 91.2646 39.4823 91.3296 39.7781 91.4606C40.0795 91.5856 40.3298 91.7707 40.5288 92.0157C40.8871 92.4647 41.0663 93.0246 41.0663 93.6956C41.0663 94.3556 40.8871 94.9126 40.5288 95.3676C40.3241 95.6186 40.0738 95.8087 39.7781 95.9397C39.488 96.0647 39.1695 96.1277 38.8226 96.1277ZM39.8719 94.8647C40.0823 94.5857 40.1876 94.1966 40.1876 93.6956C40.1876 93.1896 40.0823 92.7976 39.8719 92.5186C39.7582 92.3646 39.6074 92.2487 39.4198 92.1687C39.2378 92.0897 39.0387 92.0497 38.8226 92.0497C38.6064 92.0497 38.4074 92.0897 38.2254 92.1687C38.0434 92.2487 37.8955 92.3646 37.7817 92.5186C37.5713 92.7976 37.4661 93.1896 37.4661 93.6956C37.4661 94.1966 37.5713 94.5857 37.7817 94.8647C37.8955 95.0187 38.0434 95.1377 38.2254 95.2227C38.4074 95.3027 38.6064 95.3427 38.8226 95.3427C39.0387 95.3427 39.2378 95.3027 39.4198 95.2227C39.6018 95.1377 39.7525 95.0187 39.8719 94.8647Z" fill="#7D7D7D"/>
<path d="M45.225 91.7002C45.5094 91.9282 45.6999 92.2032 45.7966 92.5282C45.8933 92.8522 45.9388 93.2502 45.9331 93.7222V96.0002H45.097V93.7222C45.097 93.3922 45.0657 93.1132 45.0032 92.8862C44.9406 92.6532 44.8212 92.4652 44.6449 92.3232C44.4287 92.1472 44.1529 92.0642 43.8173 92.0752C43.5386 92.0922 43.3054 92.1782 43.1178 92.3312C42.9073 92.5022 42.7765 92.7412 42.7253 93.0482C42.6969 93.1672 42.6798 93.3102 42.6741 93.4752C42.6684 93.6392 42.6656 93.8072 42.6656 93.9782V96.0002H41.8381V91.3932H42.5718V91.8542C42.5718 91.8542 42.603 91.8222 42.6656 91.7602C42.8419 91.6012 43.0467 91.4812 43.2798 91.4012C43.5187 91.3222 43.7604 91.2822 44.005 91.2822C44.2268 91.2822 44.4429 91.3192 44.6534 91.3932C44.8695 91.4612 45.06 91.5642 45.225 91.7002Z" fill="#7D7D7D"/>
<path d="M9.00126 46.304C9.33106 46.605 9.49606 46.984 9.49606 47.439C9.49606 47.706 9.43066 47.962 9.29986 48.206C9.16896 48.451 8.98696 48.644 8.75386 48.787C8.53766 48.934 8.25896 49.037 7.91776 49.094V49.844H7.09026V49.085C6.83996 49.04 6.61246 48.951 6.40766 48.821C6.20296 48.69 6.03236 48.525 5.89586 48.326C5.63986 47.979 5.51196 47.595 5.51196 47.174H6.34796C6.34796 47.294 6.36786 47.419 6.40766 47.549C6.45316 47.675 6.51576 47.78 6.59536 47.865C6.70346 48.013 6.83426 48.13 6.98786 48.215C7.14136 48.295 7.30916 48.334 7.49116 48.334C7.64476 48.334 7.79546 48.314 7.94336 48.275C8.09686 48.229 8.22776 48.161 8.33576 48.07C8.52916 47.911 8.62586 47.692 8.62586 47.413C8.62586 47.288 8.59736 47.177 8.54056 47.08C8.48936 46.978 8.40406 46.881 8.28456 46.79C8.17656 46.705 8.05706 46.631 7.92626 46.568C7.79546 46.506 7.62766 46.432 7.42296 46.347C7.28646 46.295 7.13576 46.23 6.97076 46.15C6.52146 45.957 6.18306 45.718 5.95556 45.434C5.85316 45.309 5.77066 45.161 5.70816 44.99C5.64556 44.814 5.61426 44.635 5.61426 44.453C5.61426 44.219 5.66266 43.992 5.75936 43.77C5.85606 43.548 5.98966 43.361 6.16026 43.207C6.41056 42.9796 6.72056 42.8317 7.09026 42.7634V42.0127H7.91776V42.7805C8.32726 42.8658 8.66276 43.071 8.92446 43.395C9.22016 43.73 9.37086 44.123 9.37656 44.572H8.50636C8.50636 44.328 8.42396 44.1 8.25896 43.89C8.04286 43.645 7.78406 43.523 7.48266 43.523C7.18126 43.523 6.93376 43.619 6.74046 43.813C6.56976 43.983 6.48446 44.194 6.48446 44.444C6.48446 44.649 6.54136 44.819 6.65516 44.956C6.72906 45.058 6.83716 45.152 6.97926 45.238C7.12716 45.323 7.31206 45.408 7.53386 45.493C7.97746 45.681 8.29316 45.823 8.48076 45.92C8.66846 46.017 8.84196 46.145 9.00126 46.304Z" fill="#7D7D7D"/>
<path d="M12.1125 42.8574V49.0001H11.2679V43.7701L10.1162 44.4701V43.5481L11.2679 42.8574H12.1125Z" fill="#7D7D7D"/>
<path d="M13.3551 44.6492C13.3494 44.3762 13.4034 44.1142 13.5172 43.8642C13.6309 43.6082 13.7873 43.3892 13.9864 43.2072C14.1684 43.0482 14.3789 42.9286 14.6177 42.849C14.8566 42.7693 15.104 42.7295 15.3599 42.7295C15.6443 42.7295 15.9088 42.7807 16.1534 42.8831C16.3979 42.9798 16.6055 43.1272 16.7761 43.3272C16.9468 43.5032 17.0776 43.7082 17.1686 43.9412C17.2596 44.1682 17.3051 44.4072 17.3051 44.6572C17.3051 44.9932 17.2311 45.2892 17.0833 45.5452C16.9411 45.8012 16.705 46.0852 16.3752 46.3982L14.5921 48.2062H17.2454V48.9912H13.321V48.2062L15.906 45.6982C16.27 45.3512 16.452 45.0012 16.452 44.6492C16.452 44.5072 16.4264 44.3672 16.3752 44.2312C16.324 44.0942 16.25 43.9752 16.1534 43.8732C15.9315 43.6342 15.6529 43.5142 15.3173 43.5142C15.1751 43.5142 15.0386 43.5432 14.9078 43.6002C14.777 43.6512 14.6604 43.7252 14.558 43.8212C14.4443 43.9242 14.3561 44.0492 14.2935 44.1972C14.231 44.3392 14.1997 44.4902 14.1997 44.6492H13.3551Z" fill="#7D7D7D"/>
<path d="M20.9132 48.9492C20.6402 49.0622 20.3444 49.1192 20.0259 49.1192C19.7131 49.1192 19.4174 49.0622 19.1387 48.9492C18.86 48.8292 18.6239 48.6592 18.4306 48.4372C18.2429 48.2152 18.1092 47.9872 18.0296 47.7542C17.9557 47.5152 17.9187 47.2372 17.9187 46.9182V44.9302C17.9187 44.6122 17.9557 44.3332 18.0296 44.0942C18.1092 43.8552 18.2457 43.6222 18.4391 43.3952C18.6325 43.1792 18.8685 43.0142 19.1472 42.9001C19.4316 42.7864 19.7359 42.7295 20.06 42.7295C20.3558 42.7295 20.6373 42.7864 20.9046 42.9001C21.1776 43.0142 21.4108 43.1792 21.6042 43.3952C21.7976 43.6112 21.9341 43.8412 22.0137 44.0862C22.0933 44.3252 22.1331 44.6062 22.1331 44.9302V46.9182C22.1331 47.2312 22.0933 47.5102 22.0137 47.7542C21.9398 47.9992 21.809 48.2262 21.6213 48.4372C21.4279 48.6592 21.1919 48.8292 20.9132 48.9492ZM20.6402 43.6762C20.4468 43.5682 20.242 43.5142 20.0259 43.5142C19.8098 43.5142 19.605 43.5682 19.4117 43.6762C19.224 43.7842 19.0733 43.9292 18.9595 44.1112C18.8856 44.2192 18.8344 44.3392 18.8059 44.4702C18.7775 44.6012 18.7633 44.7542 18.7633 44.9302V46.9182C18.7633 47.0892 18.7775 47.2422 18.8059 47.3792C18.8344 47.5152 18.8884 47.6432 18.968 47.7632C19.0875 47.9392 19.2382 48.0812 19.4202 48.1892C19.6079 48.2922 19.8098 48.3402 20.0259 48.3342C20.242 48.3402 20.444 48.2922 20.6316 48.1892C20.8193 48.0812 20.9729 47.9362 21.0923 47.7542C21.1663 47.6402 21.2175 47.5212 21.2459 47.3962C21.2743 47.2652 21.2886 47.1062 21.2886 46.9182V44.9302C21.2886 44.7542 21.2743 44.6062 21.2459 44.4872C21.2231 44.3622 21.1748 44.2372 21.1009 44.1112C20.9871 43.9292 20.8335 43.7842 20.6402 43.6762Z" fill="#7D7D7D"/>
<path d="M30.4165 44.7344C30.6269 44.9104 30.7663 45.1184 30.8345 45.3574C30.9084 45.5964 30.9454 45.8944 30.9454 46.2534L30.9369 49.0004H30.1093L30.1179 46.2534C30.1179 46.0254 30.0951 45.8494 30.0496 45.7244C30.0098 45.5934 29.9245 45.4684 29.7937 45.3484C29.7141 45.2694 29.6174 45.2064 29.5036 45.1614C29.3899 45.1154 29.2761 45.0924 29.1624 45.0924C29.0145 45.0924 28.8752 45.1244 28.7443 45.1864C28.6135 45.2434 28.5026 45.3264 28.4116 45.4344C28.3206 45.5424 28.2581 45.6564 28.2239 45.7754C28.1955 45.8894 28.1813 46.0224 28.1813 46.1764V49.0004H27.3537V46.2534C27.3537 46.0254 27.3338 45.8494 27.294 45.7244C27.2542 45.5934 27.1689 45.4684 27.0381 45.3484C26.8561 45.1784 26.6428 45.0924 26.3982 45.0924C26.2504 45.0924 26.111 45.1244 25.9802 45.1864C25.8551 45.2434 25.747 45.3264 25.656 45.4344C25.5593 45.5424 25.4939 45.6564 25.4598 45.7754C25.4314 45.8894 25.4171 46.0224 25.4171 46.1764V49.0004H24.5896V44.3934H25.3233V44.9824C25.4769 44.7884 25.6674 44.6374 25.8949 44.5294C26.1281 44.4164 26.3726 44.3594 26.6286 44.3594C26.8106 44.3594 26.9897 44.3934 27.1661 44.4614C27.3481 44.5244 27.5101 44.6154 27.6523 44.7344C27.7832 44.8424 27.8941 44.9734 27.9851 45.1274L28.0107 45.0754C28.1585 44.8544 28.3547 44.6804 28.5993 44.5554C28.8496 44.4244 29.1112 44.3594 29.3842 44.3594C29.5662 44.3594 29.7482 44.3934 29.9302 44.4614C30.1122 44.5244 30.2743 44.6154 30.4165 44.7344Z" fill="#7D7D7D"/>
<path d="M32.7209 42.8145V43.6419H31.8933V42.8145H32.7209ZM32.7209 44.3929V48.9999H31.8933V44.3929H32.7209Z" fill="#7D7D7D"/>
<path d="M34.6632 49.0002H33.8357V42.7295H34.6632V49.0002Z" fill="#7D7D7D"/>
<path d="M36.5229 49.0002H35.6953V42.7295H36.5229V49.0002Z" fill="#7D7D7D"/>
<path d="M38.468 42.8145V43.6419H37.6404V42.8145H38.468ZM38.468 44.3929V48.9999H37.6404V44.3929H38.468Z" fill="#7D7D7D"/>
<path d="M41.5621 49.1276C41.2208 49.1276 40.9023 49.0616 40.6066 48.9316C40.3108 48.8006 40.0634 48.6127 39.8643 48.3687C39.506 47.9247 39.3269 47.3666 39.3269 46.6956C39.3269 46.0246 39.506 45.4646 39.8643 45.0156C40.0577 44.7766 40.3051 44.5916 40.6066 44.4606C40.908 44.3296 41.2265 44.2646 41.5621 44.2646C41.9033 44.2646 42.2218 44.3296 42.5176 44.4606C42.819 44.5856 43.0693 44.7706 43.2683 45.0156C43.6266 45.4646 43.8058 46.0246 43.8058 46.6956C43.8058 47.3556 43.6266 47.9127 43.2683 48.3687C43.0636 48.6187 42.8133 48.8087 42.5176 48.9397C42.2275 49.0647 41.909 49.1276 41.5621 49.1276ZM42.6114 47.8646C42.8218 47.5856 42.9271 47.1966 42.9271 46.6956C42.9271 46.1896 42.8218 45.7976 42.6114 45.5186C42.4977 45.3646 42.3469 45.2486 42.1592 45.1686C41.9772 45.0896 41.7782 45.0497 41.5621 45.0497C41.3459 45.0497 41.1469 45.0896 40.9649 45.1686C40.7829 45.2486 40.635 45.3646 40.5212 45.5186C40.3108 45.7976 40.2056 46.1896 40.2056 46.6956C40.2056 47.1966 40.3108 47.5856 40.5212 47.8646C40.635 48.0186 40.7829 48.1376 40.9649 48.2226C41.1469 48.3026 41.3459 48.3427 41.5621 48.3427C41.7782 48.3427 41.9772 48.3026 42.1592 48.2226C42.3412 48.1376 42.492 48.0186 42.6114 47.8646Z" fill="#7D7D7D"/>
<path d="M47.9645 44.7002C48.2489 44.9282 48.4394 45.2032 48.5361 45.5282C48.6328 45.8522 48.6783 46.2502 48.6726 46.7222V49.0002H47.8365V46.7222C47.8365 46.3922 47.8052 46.1132 47.7427 45.8862C47.6801 45.6532 47.5607 45.4652 47.3844 45.3232C47.1682 45.1472 46.8924 45.0642 46.5568 45.0752C46.2781 45.0922 46.0449 45.1782 45.8573 45.3312C45.6468 45.5022 45.516 45.7412 45.4648 46.0482C45.4364 46.1672 45.4193 46.3102 45.4136 46.4752C45.4079 46.6392 45.4051 46.8072 45.4051 46.9782V49.0002H44.5776V44.3932H45.3113V44.8542C45.3113 44.8542 45.3425 44.8222 45.4051 44.7602C45.5814 44.6012 45.7862 44.4812 46.0194 44.4012C46.2582 44.3222 46.4999 44.2822 46.7445 44.2822C46.9663 44.2822 47.1824 44.3192 47.3929 44.3932C47.609 44.4612 47.7995 44.5642 47.9645 44.7002Z" fill="#7D7D7D"/>
<g opacity="0.3">
<path d="M655.024 21.0635V233.598M629.536 21.0635V233.598M603.56 21.0635V233.598M577.584 21.0635V233.598M551.603 21.0635V233.598M526.119 21.0635V233.598M500.138 21.0635V233.598M474.162 21.0635V233.598M448.186 21.0635V233.598M422.21 21.0635V233.598M396.722 21.0635V233.598M370.746 21.0635V233.598M344.77 21.0635V233.598M318.789 21.0635V233.598M292.813 21.0635V233.598M267.325 21.0635V233.598M241.349 21.0635V233.598M215.372 21.0635V233.598M189.396 21.0635V233.598M163.42 21.0635V233.598M137.933 21.0635V233.598M111.956 21.0635V233.598M85.9752 21.0635V233.598M681 224.708H60M681 215.816H60M681 206.926H60M681 198.203H60M681 189.313H60M681 180.423H60M681 171.532H60M681 162.642H60M681 153.919H60M681 145.029H60M681 136.137H60M681 127.247H60M681 118.357H60M681 109.633H60M681 100.743H60M681 91.8528H60M681 82.9626H60M681 74.0707H60M681 65.3492H60M681 56.4574H60M681 47.5671H60M681 38.6768H60M681 29.9537H60M681 21.0635H60V233.598H681V21.0635Z" stroke="white" stroke-opacity="0.51" stroke-miterlimit="10"/>
</g>
</svg>
