<?xml version="1.0" encoding="UTF-8"?> <svg xmlns="http://www.w3.org/2000/svg" width="937" height="322" viewBox="0 0 937 322" fill="none"> <g opacity="0.3"> <path d="M896.889 1V321M858.514 1V321M819.403 1V321M780.293 1V321M741.175 1V321M702.806 1V321M663.688 1V321M624.578 1V321M585.467 1V321M546.357 1V321M507.981 1V321M468.87 1V321M429.76 1V321M390.642 1V321M351.531 1V321M313.156 1V321M274.045 1V321M234.934 1V321M195.824 1V321M156.713 1V321M118.338 1V321M79.227 1V321M40.1091 1V321M936 307.615H0.999974M936 294.227H0.999974M936 280.842H0.999974M936 267.708H0.999974M936 254.322H0.999974M936 240.937H0.999974M936 227.551H0.999974M936 214.166H0.999974M936 201.032H0.999974M936 187.647H0.999974M936 174.259H0.999974M936 160.873H0.999974M936 147.488H0.999974M936 134.354H0.999974M936 120.968H0.999974M936 107.583H0.999974M936 94.1975H0.999974M936 80.8096H0.999974M936 67.6782H0.999974M936 54.2903H0.999974M936 40.9048H0.999974M936 27.5193H0.999974M936 14.3855H0.999974M936 1H0.999974V321H936V1Z" stroke="white" stroke-opacity="0.51" stroke-miterlimit="10"></path> </g> </svg> 